<svg xmlns="http://www.w3.org/2000/svg" width="93" height="92"><g stroke="#B82B22" stroke-width="2" fill="none" fill-rule="evenodd" stroke-linecap="round"><path d="M73.627 80.5H19.96c-4.216 0-7.667-3.45-7.667-7.667V19.167c.001-4.217 3.452-7.667 7.667-7.667h53.667c4.216 0 7.666 3.45 7.666 7.667v53.666c.001 4.217-3.449 7.667-7.666 7.667z"/><path stroke-linejoin="round" d="M45.006 80.5V59.65h-9.54V46.21h9.54V36.186c0-2.254 1.909-13.862 15.105-13.862h9.378v12.401h-5.447s-3.87-.479-3.931 2.862c-.07 3.737 0 8.625 0 8.625h12.878l-3.34 13.44h-9.538V80.5"/></g></svg>