<svg xmlns="http://www.w3.org/2000/svg" width="93" height="92"><g stroke="#B82B22" stroke-width="2" fill="none" fill-rule="evenodd"><path stroke-linecap="round" d="M65.96 80.5H27.627c-8.433 0-15.334-6.9-15.334-15.333V26.833C12.294 18.4 19.195 11.5 27.627 11.5H65.96c8.434 0 15.334 6.9 15.334 15.333v38.334c0 8.433-6.9 15.333-15.334 15.333z"/><path stroke-linecap="round" d="M63.085 46.002c0 8.997-7.295 16.292-16.292 16.292-8.996 0-16.291-7.295-16.291-16.292 0-8.997 7.295-16.292 16.291-16.292 8.997 0 16.292 7.295 16.292 16.292z"/><path d="M70.649 26.617a4.313 4.313 0 11-8.624 0 4.313 4.313 0 018.624 0z"/></g></svg>