<svg xmlns="http://www.w3.org/2000/svg" width="93" height="92"><g stroke="#B82B22" stroke-width="2" fill="none" fill-rule="evenodd"><path d="M65.961 63.368v9.464c0 4.219-3.45 7.668-7.667 7.668H19.961c-4.217-.001-7.667-3.449-7.667-7.668V19.166c0-4.217 3.45-7.667 7.667-7.667h38.333c4.217 0 7.667 3.45 7.667 7.667v27.571"/><path stroke-linecap="round" stroke-linejoin="round" d="M33.906 28.75h20.556m-30.668 0h2.143m7.969 11.5h20.556m-30.668 0h2.143m7.969 11.5h20.556m-30.668 0h2.143m7.969 11.5h20.556m-30.668 0h2.143m29.7 9.68h0c-1.825-1.053 2.792-12.502 2.792-12.502l14.973-25.93a3.842 3.842 0 015.235-1.403 3.844 3.844 0 011.403 5.236l-14.97 25.93s-7.607 9.724-9.433 8.67z"/></g></svg>