<svg xmlns="http://www.w3.org/2000/svg" width="92" height="92"><g stroke="#B82B22" stroke-width="2" fill="none" fill-rule="evenodd"><path d="M43.565 55.583H19.168c-4.219 0-7.668-3.45-7.668-7.666v-28.75c.001-4.217 3.449-7.667 7.668-7.667h46c4.216 0 7.666 3.45 7.666 7.667v26.461M11.5 20.262h61.333M11.5 29.024h61.333"/><path stroke-linecap="round" stroke-linejoin="round" d="M20.777 46.547h17.524m32.1 10.953L59.785 68.116m-6.634-6.635l6.634 6.634"/><path stroke-linejoin="round" d="M80.5 61.333C80.5 71.92 71.92 80.5 61.333 80.5c-10.585 0-19.166-8.58-19.166-19.167 0-10.585 8.58-19.166 19.166-19.166S80.5 50.747 80.5 61.333z"/></g></svg>