<svg xmlns="http://www.w3.org/2000/svg" width="92" height="92"><g stroke="#B82B22" stroke-width="2" fill="none" fill-rule="evenodd"><path d="M65.167 74.75h0c0 3.162-2.588 5.75-5.75 5.75H32.583c-3.162 0-5.75-2.588-5.75-5.75 0-3.163 2.588-5.75 5.75-5.75h26.834c3.162 0 5.75 2.587 5.75 5.75z"/><path stroke-linecap="round" stroke-linejoin="round" d="M67.083 49.833v11.5A7.667 7.667 0 0159.417 69H32.583a7.667 7.667 0 01-7.666-7.667v-23c0-4.216 1.152-7.666 4.314-7.666 5.098 0 6.647 12.226 7.055 19.166h.142a9.582 9.582 0 019.583 9.584"/><path stroke-linecap="round" stroke-linejoin="round" d="M51.401 23.943s-1.372-.471-4.725-.46c-3.442.012-4.697 1.672-4.697 3.349 0 1.677 2.014 3.132 4.028 3.632 2.011.504 5.373 1.947 5.375 4.213.002 2.311-1.725 4.082-5.382 4.08-3.607 0-5.4-1.397-5.4-1.397m6.244-17.477v10.784m-.837 0V41.45"/><path stroke-linejoin="round" d="M24.917 49.833h-9.584A3.834 3.834 0 0111.5 46V15.333a3.834 3.834 0 013.833-3.833h61.334a3.834 3.834 0 013.833 3.833V46a3.834 3.834 0 01-3.833 3.833H35.974"/></g></svg>