<svg xmlns="http://www.w3.org/2000/svg" width="92" height="92"><g stroke="#B82B22" stroke-width="2" fill="none" fill-rule="evenodd"><path stroke-linecap="round" stroke-linejoin="round" d="M49.317 61.334H70.92c4.217 0 7.667 1.537 7.667 5.752 0 8.427-18.786 9.58-23.002 9.58h-23c-4.22 0-7.667-3.45-7.667-7.666m-.001-11.5h0a3.844 3.844 0 013.833-3.833h23a3.845 3.845 0 013.834 3.833 3.845 3.845 0 01-3.834 3.834h-11.5"/><path d="M19.167 76.667h0c-3.163 0-5.75-.67-5.75-3.833V57.5c0-3.162 2.587-3.833 5.75-3.833 3.162 0 5.75.67 5.75 3.833v15.334c0 3.162-2.588 3.833-5.75 3.833zm7.667-23V32.584m49.833 0v24.838c0 2.152-1.725 3.912-3.833 3.912m-28.75-40.25v-4.13a3.549 3.549 0 013.538-3.537h8.257a3.55 3.55 0 013.538 3.538v4.129M55.584 40.25h-7.667A1.922 1.922 0 0146 38.334V34.5c0-1.054.863-1.916 1.917-1.916h7.667c1.054 0 1.916.862 1.916 1.916v3.834a1.921 1.921 0 01-1.916 1.916z"/><path d="M46.214 36.417H30.667c-2.11 0-3.834-1.365-3.834-3.034v-9.266c0-1.67 1.725-3.034 3.834-3.034h42.166c2.107 0 3.834 1.364 3.834 3.034v9.265c0 1.67-1.727 3.034-3.834 3.034H57.287"/></g></svg>