<svg xmlns="http://www.w3.org/2000/svg" width="93" height="92"><g stroke="#B82B22" stroke-width="2" fill="none" fill-rule="evenodd" stroke-linejoin="round"><path d="M69.034 45.96c0 12.702-10.297 23-23 23-12.7 0-23-10.298-23-23 0-12.701 10.3-23 23-23 12.703 0 23 10.299 23 23z"/><path stroke-linecap="round" d="M75.556 48.875L80.535 46m4.98 2.875L80.536 46m-64.033-1.917l-4.979 2.875m-4.98-2.875l4.979 2.875"/><path d="M46.035 22.961v46m-23-23h46M26.868 32.583h38.333M26.868 59.421h38.333M57.534 45.96c0 12.702-5.147 23-11.5 23-6.35 0-11.5-10.298-11.5-23 0-12.701 5.15-23 11.5-23 6.353 0 11.5 10.299 11.5 23z"/><path stroke-linecap="round" d="M80.524 46c0 19.054-15.447 34.5-34.5 34.5-15.7 0-28.952-10.488-33.13-24.838M11.524 46c0-19.054 15.445-34.5 34.5-34.5 15.66 0 28.884 10.434 33.098 24.733"/></g></svg>