<svg xmlns="http://www.w3.org/2000/svg" width="93" height="92"><g stroke="#B82B22" stroke-width="2" fill="none" fill-rule="evenodd"><path stroke-linecap="round" stroke-linejoin="round" d="M68.633 52.357L58.308 62.682m-.019-21.885v21.906M47.964 52.357l10.325 10.325"/><path d="M58.298 74.75c-12.701 0-23-10.298-23-23s10.299-23 23-23c12.702 0 23 10.298 23 23s-10.298 23-23 23z"/><path d="M65.936 73.451c-.318 3.931-3.634 7.05-7.642 7.05H19.961c-4.217-.001-7.667-3.451-7.667-7.667V19.167c0-4.216 3.45-7.666 7.667-7.666h38.333c4.217 0 7.667 3.45 7.667 7.666v10.898"/><path stroke-linecap="round" stroke-linejoin="round" d="M23.794 51.75h11.503m-11.503 11.5h14.584m-14.584-23h14.584"/></g></svg>