<svg xmlns="http://www.w3.org/2000/svg" width="93" height="92"><g stroke="#B82B22" stroke-width="2" fill="none" fill-rule="evenodd" stroke-linejoin="round"><path d="M46.638 72.615a30.986 30.986 0 01-3.676.219c-16.938 0-30.668-13.731-30.668-30.667C12.295 25.23 26.024 11.5 42.962 11.5c16.935 0 30.666 13.73 30.666 30.667 0 1.058-.053 2.105-.159 3.136"/><path stroke-linecap="round" d="M43.934 55.289c-.313.017-.637.026-.973.026-5.86-.002-8.776-2.27-8.776-2.27M51.736 31.24s-2.229-.764-7.676-.747c-5.595.017-7.634 2.716-7.634 5.441 0 2.726 3.274 5.087 6.545 5.905 2.383.595 5.929 2.001 7.679 4.142m-6.317-21.339v17.524m-1.362.001v17.524"/><path d="M81.294 61.333c0 10.587-8.58 19.167-19.167 19.167-10.585 0-19.166-8.58-19.166-19.167 0-10.585 8.58-19.166 19.166-19.166s19.167 8.58 19.167 19.166z"/><path stroke-linecap="round" d="M62.127 50.813v11.13m8.567 0h-8.567"/></g></svg>