<svg xmlns="http://www.w3.org/2000/svg" width="93" height="92"><g stroke="#B82B22" stroke-width="2" fill="none" fill-rule="evenodd" stroke-linejoin="round"><path d="M64.044 53.667c0 14.82-12.014 26.833-26.834 26.833S10.377 68.486 10.377 53.667c0-14.82 12.014-26.834 26.833-26.834 14.82 0 26.834 12.014 26.834 26.834z"/><path stroke-linecap="round" d="M44.889 44.106s-1.95-.67-6.718-.654c-4.893.016-6.68 2.377-6.68 4.761 0 2.385 2.866 4.45 5.73 5.168 2.861.714 7.64 2.765 7.641 5.987.002 3.285-2.453 5.806-7.651 5.804-5.13-.002-7.68-1.988-7.68-1.988m8.879-24.851v15.334m-1.19 0V69"/><path d="M43.221 27.498c1.51-9.078 9.4-15.999 18.906-15.999 10.586.001 19.167 8.581 19.167 19.167 0 10.036-7.71 18.268-17.53 19.098"/><path stroke-linecap="round" d="M67.612 23.838s-1.393-.48-4.797-.468c-3.498.011-4.773 1.698-4.773 3.402 0 1.702 2.047 3.178 4.092 3.69 2.043.511 5.457 1.976 5.459 4.276.002 2.348-1.752 4.15-5.466 4.147a12.387 12.387 0 01-2.948-.343m3.805-18.828v10.952m-.85.001v10.952m-49.07-19.303l4.979 2.875m4.98-2.875l-4.979 2.875m0-.001l.107-6.002c0-4.217 3.45-7.667 7.667-7.667h11.496m33.25 46.942l4.979-2.875m4.98 2.875l-4.979-2.875m-13.67 19.269l6.003-.108c4.217 0 7.667-3.448 7.667-7.666V55.589"/></g></svg>