<?xml version="1.0" standalone="no"?>
<!DOCTYPE svg PUBLIC "-//W3C//DTD SVG 1.1//EN" "http://www.w3.org/Graphics/SVG/1.1/DTD/svg11.dtd" >
<svg xmlns="http://www.w3.org/2000/svg">
<metadata>Generated by IcoMoon</metadata>
<defs>
<font id="icomoon" horiz-adv-x="1024">
<font-face units-per-em="1024" ascent="960" descent="-64" />
<missing-glyph horiz-adv-x="1024" />
<glyph unicode="&#x20;" horiz-adv-x="512" d="" />
<glyph unicode="&#xe001;" glyph-name="error_outline" d="M512 84.667c188 0 342 154 342 342s-154 342-342 342-342-154-342-342 154-342 342-342zM512 852.667c236 0 426-190 426-426s-190-426-426-426-426 190-426 426 190 426 426 426zM470 640.667h84v-256h-84v256zM470 298.667h84v-86h-84v86z" />
<glyph unicode="&#xe01b;" glyph-name="av_timer" d="M256 426.667c0 24 18 42 42 42s44-18 44-42-20-42-44-42-42 18-42 42zM768 426.667c0-24-18-42-42-42s-44 18-44 42 20 42 44 42 42-18 42-42zM470 810.667h42c212 0 384-172 384-384s-172-384-384-384-384 172-384 384c0 126 60 236 154 306v2l290-290-60-60-232 230c-42-52-66-116-66-188 0-166 132-298 298-298s298 132 298 298c0 150-112 276-256 296v-82h-84v170zM470 212.667c0 24 18 44 42 44s42-20 42-44-18-42-42-42-42 18-42 42z" />
<glyph unicode="&#xe02f;" glyph-name="library_books" d="M810 640.667v84h-426v-84h426zM640 298.667v86h-256v-86h256zM810 468.667v86h-426v-86h426zM854 852.667c46 0 84-38 84-84v-512c0-46-38-86-84-86h-512c-46 0-86 40-86 86v512c0 46 40 84 86 84h512zM170 682.667v-598h598v-84h-598c-46 0-84 38-84 84v598h84z" />
<glyph unicode="&#xe03b;" glyph-name="playlist_add" d="M86 256.667v84h340v-84h-340zM768 340.667h170v-84h-170v-172h-86v172h-170v84h170v172h86v-172zM598 682.667v-86h-512v86h512zM598 512.667v-86h-512v86h512z" />
<glyph unicode="&#xe03c;" glyph-name="queue" d="M810 468.667v86h-170v170h-86v-170h-170v-86h170v-170h86v170h170zM854 852.667c46 0 84-38 84-84v-512c0-46-38-86-84-86h-512c-46 0-86 40-86 86v512c0 46 40 84 86 84h512zM170 682.667v-598h598v-84h-598c-46 0-84 38-84 84v598h84z" />
<glyph unicode="&#xe05f;" glyph-name="playlist_play" d="M726 384.667l212-128-212-128v256zM86 298.667v86h554v-86h-554zM810 724.667v-84h-724v84h724zM810 554.667v-86h-724v86h724z" />
<glyph unicode="&#xe065;" glyph-name="playlist_add_check" d="M918 448.667l64-64-298-300-194 192 64 64 130-128zM86 256.667v84h340v-84h-340zM598 682.667v-86h-512v86h512zM598 512.667v-86h-512v86h512z" />
<glyph unicode="&#xe0ca;" glyph-name="chat_bubble" d="M854 852.667c46 0 84-38 84-84v-512c0-46-38-86-84-86h-598l-170-170v768c0 46 38 84 84 84h684z" />
<glyph unicode="&#xe0cb;" glyph-name="chat_bubble_outline" d="M854 256.667v512h-684v-598l86 86h598zM854 852.667c46 0 84-38 84-84v-512c0-46-38-86-84-86h-598l-170-170v768c0 46 38 84 84 84h684z" />
<glyph unicode="&#xe0cc;" glyph-name="chat_bubble_outline2" d="M854 256.667v512h-684v-598l86 86h598zM854 852.667c46 0 84-38 84-84v-512c0-46-38-86-84-86h-598l-170-170v768c0 46 38 84 84 84h684z" />
<glyph unicode="&#xe0cd;" glyph-name="phone" d="M282 478.667c62-120 162-220 282-282l94 94c12 12 30 16 44 10 48-16 100-24 152-24 24 0 42-18 42-42v-150c0-24-18-42-42-42-400 0-726 326-726 726 0 24 18 42 42 42h150c24 0 42-18 42-42 0-54 8-104 24-152 4-14 2-32-10-44z" />
<glyph unicode="&#xe0ce;" glyph-name="chat_bubble2" d="M854 852.667c46 0 84-38 84-84v-512c0-46-38-86-84-86h-598l-170-170v768c0 46 38 84 84 84h684z" />
<glyph unicode="&#xe0d8;" glyph-name="textsms" d="M726 468.667v86h-86v-86h86zM554 468.667v86h-84v-86h84zM384 468.667v86h-86v-86h86zM854 852.667c46 0 84-38 84-84v-512c0-46-38-86-84-86h-598l-170-170v768c0 46 38 84 84 84h684z" />
<glyph unicode="&#xe0da;" glyph-name="vpn_key" d="M298 340.667c46 0 86 40 86 86s-40 86-86 86-84-40-84-86 38-86 84-86zM540 512.667h442v-172h-86v-170h-170v170h-186c-34-100-130-170-242-170-142 0-256 114-256 256s114 256 256 256c112 0 208-70 242-170z" />
<glyph unicode="&#xe0dd;" glyph-name="phonelink_ring" d="M598 84.667v684h-428v-684h428zM598 896.667c46 0 84-40 84-86v-768c0-46-38-86-84-86h-428c-46 0-84 40-84 86v768c0 46 38 86 84 86h428zM768 520.667c52-56 52-132 0-184l-42 44c22 30 22 68 0 98zM858 610.667c106-102 106-266 0-364l-44 44c76 82 76 200 0 276z" />
<glyph unicode="&#xe0e1;" glyph-name="mail_outline" d="M512 468.667l342 214h-684zM854 170.667v426l-342-212-342 212v-426h684zM854 768.667c46 0 84-40 84-86v-512c0-46-38-86-84-86h-684c-46 0-84 40-84 86v512c0 46 38 86 84 86h684z" />
<glyph unicode="&#xe146;" glyph-name="add_box" d="M726 384.667v84h-172v172h-84v-172h-172v-84h172v-172h84v172h172zM810 810.667c46 0 86-40 86-86v-596c0-46-40-86-86-86h-596c-48 0-86 40-86 86v596c0 46 38 86 86 86h596z" />
<glyph unicode="&#xe14d;" glyph-name="content_copy" d="M810 42.667v598h-468v-598h468zM810 724.667c46 0 86-38 86-84v-598c0-46-40-86-86-86h-468c-46 0-86 40-86 86v598c0 46 40 84 86 84h468zM682 896.667v-86h-512v-598h-84v598c0 46 38 86 84 86h512z" />
<glyph unicode="&#xe14e;" glyph-name="content_copy2" d="M810 42.667v598h-468v-598h468zM810 724.667c46 0 86-38 86-84v-598c0-46-40-86-86-86h-468c-46 0-86 40-86 86v598c0 46 40 84 86 84h468zM682 896.667v-86h-512v-598h-84v598c0 46 38 86 84 86h512z" />
<glyph unicode="&#xe14f;" glyph-name="content_paste" d="M810 84.667v684h-84v-128h-428v128h-84v-684h596zM512 852.667c-24 0-42-18-42-42s18-42 42-42 42 18 42 42-18 42-42 42zM810 852.667c46 0 86-38 86-84v-684c0-46-40-84-86-84h-596c-46 0-86 38-86 84v684c0 46 40 84 86 84h178c18 50 64 86 120 86s102-36 120-86h178z" />
<glyph unicode="&#xe151;" glyph-name="drafts" d="M512 384.667l352 220-352 206-352-206zM938 596.667v-426c0-46-38-86-84-86h-684c-46 0-84 40-84 86v426c0 30 16 60 40 74l386 226 386-226c24-14 40-44 40-74z" />
<glyph unicode="&#xe152;" glyph-name="drafts2" d="M512 384.667l352 220-352 206-352-206zM938 596.667v-426c0-46-38-86-84-86h-684c-46 0-84 40-84 86v426c0 30 16 60 40 74l386 226 386-226c24-14 40-44 40-74z" />
<glyph unicode="&#xe153;" glyph-name="drafts3" d="M512 384.667l352 220-352 206-352-206zM938 596.667v-426c0-46-38-86-84-86h-684c-46 0-84 40-84 86v426c0 30 16 60 40 74l386 226 386-226c24-14 40-44 40-74z" />
<glyph unicode="&#xe159;" glyph-name="markunread" d="M854 596.667v86l-342-214-342 214v-86l342-212zM854 768.667c46 0 84-40 84-86v-512c0-46-38-86-84-86h-684c-46 0-84 40-84 86v512c0 46 38 86 84 86h684z" />
<glyph unicode="&#xe15a;" glyph-name="redo" d="M786 486.667l152 154v-384h-384l156 154c-60 50-136 80-220 80-152 0-280-98-324-234l-100 32c58 178 226 308 424 308 114 0 218-42 296-110z" />
<glyph unicode="&#xe166;" glyph-name="undo" d="M534 596.667c198 0 364-130 424-308l-100-32c-44 136-172 234-324 234-84 0-160-30-220-80l156-154h-384v384l152-154c78 68 182 110 296 110z" />
<glyph unicode="&#xe191;" glyph-name="access_alarms" d="M512 84.667c166 0 298 134 298 300s-132 298-298 298-298-132-298-298 132-300 298-300zM512 768.667c214 0 384-170 384-384s-170-384-384-384-384 170-384 384 170 384 384 384zM534 596.667v-226l170-102-34-52-200 124v256h64zM338 792.667l-198-162-54 64 196 162zM938 694.667l-54-64-198 168 56 64z" />
<glyph unicode="&#xe1b2;" glyph-name="dvr" d="M298 426.667v-86h-84v86h84zM298 596.667v-84h-84v84h84zM810 426.667v-86h-468v86h468zM810 596.667v-84h-468v84h468zM896 212.667v512h-768v-512h768zM896 810.667c46 0 86-40 86-86l-2-512c0-46-38-84-84-84h-214v-86h-340v86h-214c-46 0-86 38-86 84v512c0 46 40 86 86 86h768z" />
<glyph unicode="&#xe1bc;" glyph-name="wallpaper" d="M170 384.667v-300h300v-84h-300c-46 0-84 38-84 84v300h84zM854 84.667v300h84v-300c0-46-38-84-84-84h-300v84h300zM854 852.667c46 0 84-38 84-84v-300h-84v300h-300v84h300zM726 576.667c0-36-28-64-64-64s-64 28-64 64 28 64 64 64 64-28 64-64zM426 384.667l128-158 86 114 128-170h-512zM170 768.667v-300h-84v300c0 46 38 84 84 84h300v-84h-300z" />
<glyph unicode="&#xe226;" glyph-name="attach_file" d="M704 682.667h64v-490c0-130-104-236-234-236s-236 106-236 236v532c0 94 78 172 172 172s170-78 170-172v-448c0-58-48-106-106-106s-108 48-108 106v406h64v-406c0-24 20-42 44-42s42 18 42 42v448c0 58-48 108-106 108s-108-50-108-108v-532c0-94 78-172 172-172s170 78 170 172v490z" />
<glyph unicode="&#xe22b;" glyph-name="border_color" d="M0 84.667h1024v-170h-1024v170zM884 766.667l-84-84-160 160 84 84c16 16 44 16 60 0l100-100c16-16 16-44 0-60zM758 640.667l-428-428h-160v160l428 428z" />
<glyph unicode="&#xe22c;" glyph-name="border_color2" d="M0 84.667h1024v-170h-1024v170zM884 766.667l-84-84-160 160 84 84c16 16 44 16 60 0l100-100c16-16 16-44 0-60zM758 640.667l-428-428h-160v160l428 428z" />
<glyph unicode="&#xe241;" glyph-name="format_list_bulleted" d="M298 724.667h598v-84h-598v84zM298 384.667v84h598v-84h-598zM298 128.667v84h598v-84h-598zM170 234.667c36 0 64-30 64-64s-30-64-64-64-64 30-64 64 28 64 64 64zM170 746.667c36 0 64-28 64-64s-28-64-64-64-64 28-64 64 28 64 64 64zM170 490.667c36 0 64-28 64-64s-28-64-64-64-64 28-64 64 28 64 64 64z" />
<glyph unicode="&#xe24c;" glyph-name="insert_comment" d="M768 596.667v86h-512v-86h512zM768 468.667v86h-512v-86h512zM768 340.667v86h-512v-86h512zM854 852.667c46 0 84-38 84-84v-768l-170 170h-598c-46 0-84 40-84 86v512c0 46 38 84 84 84h684z" />
<glyph unicode="&#xe254;" glyph-name="mode_edit" d="M884 638.667l-78-78-160 160 78 78c16 16 44 16 60 0l100-100c16-16 16-44 0-60zM128 202.667l472 472 160-160-472-472h-160v160z" />
<glyph unicode="&#xe255;" glyph-name="publish" d="M214 340.667l298 300 298-300h-170v-256h-256v256h-170zM214 768.667h596v-86h-596v86z" />
<glyph unicode="&#xe258;" glyph-name="vertical_align_bottom" d="M170 128.667h684v-86h-684v86zM682 384.667l-170-172-170 172h128v426h84v-426h128z" />
<glyph unicode="&#xe2c1;" glyph-name="cloud_off" d="M330 512.667h-74c-94 0-170-78-170-172s76-170 170-170h416zM128 714.667l54 54 714-714-54-54-86 84h-500c-142 0-256 114-256 256 0 138 110 250 246 256zM826 510.667c110-8 198-100 198-212 0-72-36-136-90-174l-62 62c40 22 66 64 66 112 0 70-58 128-128 128h-64v22c0 130-104 234-234 234-40 0-76-8-108-26l-64 62c50 32 108 50 172 50 156 0 284-110 314-258z" />
<glyph unicode="&#xe2c2;" glyph-name="cloud_queue" d="M810 170.667c70 0 128 58 128 128s-58 128-128 128h-64v22c0 130-104 234-234 234-108 0-198-72-226-170h-30c-94 0-170-78-170-172s76-170 170-170h554zM826 510.667c110-8 198-100 198-212 0-118-96-214-214-214h-554c-142 0-256 114-256 256 0 132 100 240 228 254 54 102 160 174 284 174 156 0 284-110 314-258z" />
<glyph unicode="&#xe2c3;" glyph-name="cloud_queue2" d="M810 170.667c70 0 128 58 128 128s-58 128-128 128h-64v22c0 130-104 234-234 234-108 0-198-72-226-170h-30c-94 0-170-78-170-172s76-170 170-170h554zM826 510.667c110-8 198-100 198-212 0-118-96-214-214-214h-554c-142 0-256 114-256 256 0 132 100 240 228 254 54 102 160 174 284 174 156 0 284-110 314-258z" />
<glyph unicode="&#xe2c4;" glyph-name="cloud_off2" d="M330 512.667h-74c-94 0-170-78-170-172s76-170 170-170h416zM128 714.667l54 54 714-714-54-54-86 84h-500c-142 0-256 114-256 256 0 138 110 250 246 256zM826 510.667c110-8 198-100 198-212 0-72-36-136-90-174l-62 62c40 22 66 64 66 112 0 70-58 128-128 128h-64v22c0 130-104 234-234 234-40 0-76-8-108-26l-64 62c50 32 108 50 172 50 156 0 284-110 314-258z" />
<glyph unicode="&#xe2c6;" glyph-name="file_upload" d="M214 170.667h596v-86h-596v86zM384 256.667v256h-170l298 298 298-298h-170v-256h-256z" />
<glyph unicode="&#xe313;" glyph-name="keyboard_arrow_down" d="M316 604.667l196-196 196 196 60-60-256-256-256 256z" />
<glyph unicode="&#xe314;" glyph-name="keyboard_arrow_left" d="M658 252.667l-60-60-256 256 256 256 60-60-196-196z" />
<glyph unicode="&#xe315;" glyph-name="keyboard_arrow_right" d="M366 240.667l196 196-196 196 60 60 256-256-256-256z" />
<glyph unicode="&#xe316;" glyph-name="keyboard_arrow_up" d="M316 280.667l-60 60 256 256 256-256-60-60-196 196z" />
<glyph unicode="&#xe317;" glyph-name="keyboard_backspace" d="M896 468.667v-84h-604l152-154-60-60-256 256 256 256 60-60-152-154h604z" />
<glyph unicode="&#xe318;" glyph-name="keyboard_capslock" d="M256 170.667v86h512v-86h-512zM512 580.667l-196-196-60 60 256 256 256-256-60-60z" />
<glyph unicode="&#xe319;" glyph-name="keyboard_arrow_down2" d="M316 604.667l196-196 196 196 60-60-256-256-256 256z" />
<glyph unicode="&#xe31a;" glyph-name="keyboard_arrow_left2" d="M658 252.667l-60-60-256 256 256 256 60-60-196-196z" />
<glyph unicode="&#xe31b;" glyph-name="keyboard_arrow_right2" d="M366 240.667l196 196-196 196 60 60 256-256-256-256z" />
<glyph unicode="&#xe31c;" glyph-name="keyboard_tab" d="M854 682.667h84v-512h-84v512zM494 622.667l60 60 256-256-256-256-60 60 154 154h-606v84h606z" />
<glyph unicode="&#xe31d;" glyph-name="keyboard_arrow_up2" d="M316 280.667l-60 60 256 256 256-256-60-60-196 196z" />
<glyph unicode="&#xe31e;" glyph-name="laptop" d="M170 682.667v-426h684v426h-684zM854 170.667h170v-86h-1024v86h170c-46 0-84 40-84 86v426c0 46 38 86 84 86h684c46 0 84-40 84-86v-426c0-46-38-86-84-86z" />
<glyph unicode="&#xe31f;" glyph-name="keyboard_capslock2" d="M256 170.667v86h512v-86h-512zM512 580.667l-196-196-60 60 256 256 256-256-60-60z" />
<glyph unicode="&#xe325;" glyph-name="phone_iphone" d="M682 170.667v598h-384v-598h384zM490 0.667c36 0 64 28 64 64s-28 64-64 64-64-28-64-64 28-64 64-64zM662 896.667c58 0 106-50 106-108v-724c0-58-48-108-106-108h-342c-58 0-106 50-106 108v724c0 58 48 108 106 108h342z" />
<glyph unicode="&#xe3c4;" glyph-name="crop_original" d="M596 414.667l150-202h-468l116 152 84-102zM810 128.667v596h-596v-596h596zM810 810.667c46 0 86-40 86-86v-596c0-46-40-86-86-86h-596c-46 0-86 40-86 86v596c0 46 40 86 86 86h596z" />
<glyph unicode="&#xe3d0;" glyph-name="filter_1" d="M896 212.667v598h-598v-598h598zM896 896.667c46 0 86-40 86-86v-598c0-46-40-84-86-84h-598c-46 0-84 38-84 84v598c0 46 38 86 84 86h598zM598 298.667v342h-86v84h170v-426h-84zM128 724.667v-682h682v-86h-682c-46 0-86 40-86 86v682h86z" />
<glyph unicode="&#xe3d1;" glyph-name="filter_2" d="M726 384.667v-86h-256v170c0 48 38 86 84 86h86v86h-170v84h170c46 0 86-36 86-84v-86c0-48-40-86-86-86h-86v-84h172zM896 212.667v598h-598v-598h598zM896 896.667c46 0 86-40 86-86v-598c0-46-40-84-86-84h-598c-46 0-84 38-84 84v598c0 46 38 86 84 86h598zM128 724.667v-682h682v-86h-682c-46 0-86 40-86 86v682h86z" />
<glyph unicode="&#xe3d2;" glyph-name="filter_3" d="M726 384.667c0-48-40-86-86-86h-170v86h170v84h-86v86h86v86h-170v84h170c46 0 86-36 86-84v-64c0-36-28-64-64-64 36 0 64-28 64-64v-64zM128 724.667v-682h682v-86h-682c-46 0-86 40-86 86v682h86zM896 212.667v598h-598v-598h598zM896 896.667c46 0 86-40 86-86v-598c0-46-40-84-86-84h-598c-46 0-84 38-84 84v598c0 46 38 86 84 86h598z" />
<glyph unicode="&#xe3d3;" glyph-name="filter" d="M896 212.667v598h-598v-598h598zM896 896.667c46 0 86-40 86-86v-598c0-46-40-84-86-84h-598c-46 0-84 38-84 84v598c0 46 38 86 84 86h598zM128 724.667v-682h682v-86h-682c-46 0-86 40-86 86v682h86zM680 498.667l152-200h-470l118 150 84-100z" />
<glyph unicode="&#xe3d4;" glyph-name="filter_4" d="M896 212.667v598h-598v-598h598zM896 896.667c46 0 86-40 86-86v-598c0-46-40-84-86-84h-598c-46 0-84 38-84 84v598c0 46 38 86 84 86h598zM640 298.667v170h-170v256h84v-170h86v170h86v-426h-86zM128 724.667v-682h682v-86h-682c-46 0-86 40-86 86v682h86z" />
<glyph unicode="&#xe3d5;" glyph-name="filter_5" d="M726 384.667c0-48-40-86-86-86h-170v86h170v84h-170v256h256v-84h-172v-86h86c46 0 86-38 86-86v-84zM128 724.667v-682h682v-86h-682c-46 0-86 40-86 86v682h86zM896 212.667v598h-598v-598h598zM896 896.667c46 0 86-40 86-86v-598c0-46-40-84-86-84h-598c-46 0-84 38-84 84v598c0 46 38 86 84 86h598z" />
<glyph unicode="&#xe3d6;" glyph-name="filter_6" d="M554 468.667v-84h86v84h-86zM554 298.667c-46 0-84 38-84 86v256c0 48 38 84 84 84h172v-84h-172v-86h86c46 0 86-38 86-86v-84c0-48-40-86-86-86h-86zM896 212.667v598h-598v-598h598zM896 896.667c46 0 86-40 86-86v-598c0-46-40-84-86-84h-598c-46 0-84 38-84 84v598c0 46 38 86 84 86h598zM128 724.667v-682h682v-86h-682c-46 0-86 40-86 86v682h86z" />
<glyph unicode="&#xe3d7;" glyph-name="filter_7" d="M554 298.667h-84l170 342h-170v84h256v-84zM896 212.667v598h-598v-598h598zM896 896.667c46 0 86-40 86-86v-598c0-46-40-84-86-84h-598c-46 0-84 38-84 84v598c0 46 38 86 84 86h598zM128 724.667v-682h682v-86h-682c-46 0-86 40-86 86v682h86z" />
<glyph unicode="&#xe3d8;" glyph-name="filter_8" d="M554 468.667v-84h86v84h-86zM554 640.667v-86h86v86h-86zM554 298.667c-46 0-84 38-84 86v64c0 36 28 64 64 64-36 0-64 28-64 64v64c0 48 38 84 84 84h86c46 0 86-36 86-84v-64c0-36-28-64-64-64 36 0 64-28 64-64v-64c0-48-40-86-86-86h-86zM896 212.667v598h-598v-598h598zM896 896.667c46 0 86-40 86-86v-598c0-46-40-84-86-84h-598c-46 0-84 38-84 84v598c0 46 38 86 84 86h598zM128 724.667v-682h682v-86h-682c-46 0-86 40-86 86v682h86z" />
<glyph unicode="&#xe3d9;" glyph-name="filter_9" d="M640 554.667v86h-86v-86h86zM640 724.667c46 0 86-36 86-84v-256c0-48-40-86-86-86h-170v86h170v84h-86c-46 0-84 38-84 86v86c0 48 38 84 84 84h86zM896 212.667v598h-598v-598h598zM896 896.667c46 0 86-40 86-86v-598c0-46-40-84-86-84h-598c-46 0-84 38-84 84v598c0 46 38 86 84 86h598zM128 724.667v-682h682v-86h-682c-46 0-86 40-86 86v682h86z" />
<glyph unicode="&#xe3da;" glyph-name="filter_9_plus" d="M896 554.667v256h-598v-598h598v256h-86v-84h-84v84h-86v86h86v86h84v-86h86zM896 896.667c46 0 86-40 86-86v-598c0-46-40-84-86-84h-598c-46 0-84 38-84 84v598c0 46 38 86 84 86h598zM470 554.667h42v42h-42v-42zM598 426.667c0-48-40-86-86-86h-128v86h128v42h-42c-46 0-86 38-86 86v42c0 48 40 86 86 86h42c46 0 86-38 86-86v-170zM128 724.667v-682h682v-86h-682c-46 0-86 40-86 86v682h86z" />
<glyph unicode="&#xe408;" glyph-name="navigate_before" d="M658 622.667l-196-196 196-196-60-60-256 256 256 256z" />
<glyph unicode="&#xe409;" glyph-name="navigate_next" d="M426 682.667l256-256-256-256-60 60 196 196-196 196z" />
<glyph unicode="&#xe42a;" glyph-name="view_comfy" d="M768 724.667h170v-170h-170v170zM768 128.667v170h170v-170h-170zM554 128.667v170h172v-170h-172zM342 128.667v170h170v-170h-170zM128 128.667v170h170v-170h-170zM768 340.667v172h170v-172h-170zM554 724.667h172v-170h-172v170zM342 554.667v170h170v-170h-170zM554 340.667v172h172v-172h-172zM342 340.667v172h170v-172h-170zM128 340.667v172h170v-172h-170zM128 554.667v170h170v-170h-170z" />
<glyph unicode="&#xe42b;" glyph-name="view_compact" d="M128 724.667h810v-256h-810v256zM426 128.667v298h512v-298h-512zM128 128.667v298h256v-298h-256z" />
<glyph unicode="&#xe53e;" glyph-name="local_atm" d="M854 170.667v512h-684v-512h684zM854 768.667c48 0 84-38 84-86v-512c0-48-36-86-84-86h-684c-48 0-84 38-84 86v512c0 48 36 86 84 86h684zM470 212.667v44h-86v84h170v44h-128c-24 0-42 18-42 42v128c0 24 18 42 42 42h44v44h84v-44h86v-84h-170v-44h128c24 0 42-18 42-42v-128c0-24-18-42-42-42h-44v-44h-84z" />
<glyph unicode="&#xe55a;" glyph-name="person_pin" d="M768 256.667v38c0 86-170 132-256 132s-256-46-256-132v-38h512zM512 712.667c-64 0-116-52-116-116s52-114 116-114 116 50 116 114-52 116-116 116zM810 852.667c46 0 86-38 86-84v-598c0-46-40-86-86-86h-170l-128-128-128 128h-170c-48 0-86 40-86 86v598c0 46 38 84 86 84h596z" />
<glyph unicode="&#xe55e;" glyph-name="pin_drop" d="M214 84.667h596v-84h-596v84zM426 596.667c0-46 40-84 86-84 48 0 86 38 86 84s-40 86-86 86-86-40-86-86zM768 596.667c0-192-256-468-256-468s-256 276-256 468c0 142 114 256 256 256s256-114 256-256z" />
<glyph unicode="&#xe56b;" glyph-name="zoom_out_map" d="M896 298.667v-256h-256l98 98-124 122 62 62 122-124zM384 42.667h-256v256l98-98 122 124 62-62-124-122zM128 554.667v256h256l-98-98 124-122-62-62-122 124zM640 810.667h256v-256l-98 98-122-124-62 62 124 122z" />
<glyph unicode="&#xe56c;" glyph-name="zoom_out_map2" d="M896 298.667v-256h-256l98 98-124 122 62 62 122-124zM384 42.667h-256v256l98-98 122 124 62-62-124-122zM128 554.667v256h256l-98-98 124-122-62-62-122 124zM640 810.667h256v-256l-98 98-122-124-62 62 124 122z" />
<glyph unicode="&#xe5c4;" glyph-name="arrow_back" d="M854 468.667v-84h-520l238-240-60-60-342 342 342 342 60-60-238-240h520z" />
<glyph unicode="&#xe5c5;" glyph-name="arrow_back2" d="M854 468.667v-84h-520l238-240-60-60-342 342 342 342 60-60-238-240h520z" />
<glyph unicode="&#xe5c6;" glyph-name="arrow_drop_down_circle" d="M512 340.667l170 172h-340zM512 852.667c236 0 426-190 426-426s-190-426-426-426-426 190-426 426 190 426 426 426z" />
<glyph unicode="&#xe5c8;" glyph-name="arrow_forward" d="M512 768.667l342-342-342-342-60 60 238 240h-520v84h520l-238 240z" />
<glyph unicode="&#xe5c9;" glyph-name="arrow_forward2" d="M512 768.667l342-342-342-342-60 60 238 240h-520v84h520l-238 240z" />
<glyph unicode="&#xe5ca;" glyph-name="check" d="M384 248.667l452 452 60-60-512-512-238 238 60 60z" />
<glyph unicode="&#xe5cb;" glyph-name="check2" d="M384 248.667l452 452 60-60-512-512-238 238 60 60z" />
<glyph unicode="&#xe5cd;" glyph-name="close" d="M810 664.667l-238-238 238-238-60-60-238 238-238-238-60 60 238 238-238 238 60 60 238-238 238 238z" />
<glyph unicode="&#xe5ce;" glyph-name="expand_less" d="M512 596.667l256-256-60-60-196 196-196-196-60 60z" />
<glyph unicode="&#xe5cf;" glyph-name="expand_more" d="M708 572.667l60-60-256-256-256 256 60 60 196-196z" />
<glyph unicode="&#xe5d0;" glyph-name="close2" d="M810 664.667l-238-238 238-238-60-60-238 238-238-238-60 60 238 238-238 238 60 60 238-238 238 238z" />
<glyph unicode="&#xe5d1;" glyph-name="close22" d="M810 664.667l-238-238 238-238-60-60-238 238-238-238-60 60 238 238-238 238 60 60 238-238 238 238z" />
<glyph unicode="&#xe5d2;" glyph-name="expand_less1" d="M512 596.667l256-256-60-60-196 196-196-196-60 60z" />
<glyph unicode="&#xe5d3;" glyph-name="expand_more1" d="M708 572.667l60-60-256-256-256 256 60 60 196-196z" />
<glyph unicode="&#xe5d5;" glyph-name="refresh" d="M754 668.667l100 100v-300h-300l138 138c-46 46-110 76-180 76-142 0-256-114-256-256s114-256 256-256c112 0 208 70 242 170h88c-38-148-170-256-330-256-188 0-340 154-340 342s152 342 340 342c94 0 180-38 242-100z" />
<glyph unicode="&#xe5d6;" glyph-name="unfold_less" d="M708 708.667l-196-196-196 196 60 60 136-136 136 136zM316 144.667l196 196 196-196-60-60-136 136-136-136z" />
<glyph unicode="&#xe5d7;" glyph-name="unfold_more" d="M512 162.667l136 136 60-60-196-196-196 196 60 60zM512 690.667l-136-136-60 60 196 196 196-196-60-60z" />
<glyph unicode="&#xe5d8;" glyph-name="arrow_upward" d="M170 426.667l342 342 342-342-62-60-238 238v-520h-84v520l-240-238z" />
<glyph unicode="&#xe5d9;" glyph-name="arrow_upward2" d="M170 426.667l342 342 342-342-62-60-238 238v-520h-84v520l-240-238z" />
<glyph unicode="&#xe5da;" glyph-name="unfold_less1" d="M708 708.667l-196-196-196 196 60 60 136-136 136 136zM316 144.667l196 196 196-196-60-60-136 136-136-136z" />
<glyph unicode="&#xe5db;" glyph-name="arrow_downward" d="M854 426.667l-342-342-342 342 62 60 238-238v520h84v-520l240 238z" />
<glyph unicode="&#xe5dc;" glyph-name="first_page" d="M256 682.667h86v-512h-86v512zM786 230.667l-60-60-256 256 256 256 60-60-196-196z" />
<glyph unicode="&#xe5dd;" glyph-name="last_page" d="M682 682.667h86v-512h-86v512zM238 622.667l60 60 256-256-256-256-60 60 196 196z" />
<glyph unicode="&#xe5de;" glyph-name="arrow_downward2" d="M854 426.667l-342-342-342 342 62 60 238-238v520h84v-520l240 238z" />
<glyph unicode="&#xe5df;" glyph-name="unfold_more1" d="M512 162.667l136 136 60-60-196-196-196 196 60 60zM512 690.667l-136-136-60 60 196 196 196-196-60-60z" />
<glyph unicode="&#xe645;" glyph-name="priority_high" d="M426 810.667h172v-512h-172v512zM426 128.667c0 48 38 84 86 84s86-36 86-84-38-86-86-86-86 38-86 86z" />
<glyph unicode="&#xe7e9;" glyph-name="cake" d="M768 554.667c70 0 128-58 128-128v-66c0-46-38-84-84-84-22 0-42 8-58 24l-92 92-92-92c-32-32-86-32-118 0l-90 92-92-92c-16-16-36-24-58-24-46 0-84 38-84 84v66c0 70 58 128 128 128h214v86h84v-86h214zM708 256.667c28-28 64-44 104-44 32 0 60 10 84 26v-196c0-24-18-42-42-42h-684c-24 0-42 18-42 42v196c24-16 52-26 84-26 40 0 76 16 104 44l46 46 46-46c56-56 152-56 208 0l46 46zM512 682.667c-46 0-86 40-86 86 0 16 6 32 14 44l72 126 72-126c8-12 14-28 14-44 0-46-38-86-86-86z" />
<glyph unicode="&#xe7f0;" glyph-name="group_add" d="M554 384.667c86 0 256-42 256-128v-86h-512v86c0 86 170 128 256 128zM838 376.667c86-14 186-54 186-120v-86h-128v86c0 50-22 88-58 120zM554 468.667c-70 0-128 58-128 128s58 128 128 128 128-58 128-128-58-128-128-128zM768 468.667c-14 0-26 2-38 6 24 34 38 76 38 122s-14 88-38 122c12 4 24 6 38 6 70 0 128-58 128-128s-58-128-128-128zM342 512.667v-86h-128v-128h-86v128h-128v86h128v128h86v-128h128z" />
<glyph unicode="&#xe7fb;" glyph-name="people" d="M682 384.667c100 0 300-50 300-150v-106h-256v106c0 64-34 112-84 148 14 2 28 2 40 2zM342 384.667c100 0 298-50 298-150v-106h-598v106c0 100 200 150 300 150zM342 468.667c-70 0-128 58-128 128s58 128 128 128 126-58 126-128-56-128-126-128zM682 468.667c-70 0-128 58-128 128s58 128 128 128 128-58 128-128-58-128-128-128z" />
<glyph unicode="&#xe834;" glyph-name="check_box" d="M426 212.667l384 384-60 62-324-324-152 152-60-60zM810 810.667c48 0 86-40 86-86v-596c0-46-38-86-86-86h-596c-48 0-86 40-86 86v596c0 46 38 86 86 86h596z" />
<glyph unicode="&#xe835;" glyph-name="check_box_outline_blank" d="M810 810.667c46 0 86-40 86-86v-596c0-46-40-86-86-86h-596c-46 0-86 40-86 86v596c0 46 40 86 86 86h596zM810 724.667h-596v-596h596v596z" />
<glyph unicode="&#xe836;" glyph-name="radio_button_unchecked" d="M512 84.667c188 0 342 154 342 342s-154 342-342 342-342-154-342-342 154-342 342-342zM512 852.667c236 0 426-190 426-426s-190-426-426-426-426 190-426 426 190 426 426 426z" />
<glyph unicode="&#xe838;" glyph-name="star3" d="M512 202.667l-264-160 70 300-232 202 306 26 120 282 120-282 306-26-232-202 70-300z" />
<glyph unicode="&#xe83a;" glyph-name="star_border" d="M512 280.667l160-96-42 182 142 124-188 16-72 172-72-172-188-16 142-124-42-182zM938 544.667l-232-202 70-300-264 160-264-160 70 300-232 202 306 26 120 282 120-282z" />
<glyph unicode="&#xe851;" glyph-name="account_box" d="M256 212.667v-42h512v42c0 86-170 132-256 132s-256-46-256-132zM640 554.667c0 70-58 128-128 128s-128-58-128-128 58-128 128-128 128 58 128 128zM128 724.667c0 46 38 86 86 86h596c46 0 86-40 86-86v-596c0-46-40-86-86-86h-596c-48 0-86 40-86 86v596z" />
<glyph unicode="&#xe853;" glyph-name="account_circle" d="M512 118.667c106 0 200 56 256 138-2 84-172 132-256 132-86 0-254-48-256-132 56-82 150-138 256-138zM512 724.667c-70 0-128-58-128-128s58-128 128-128 128 58 128 128-58 128-128 128zM512 852.667c236 0 426-190 426-426s-190-426-426-426-426 190-426 426 190 426 426 426z" />
<glyph unicode="&#xe854;" glyph-name="add_shopping_cart" d="M306 308.667c0-6 4-10 10-10h494v-86h-512c-46 0-84 40-84 86 0 14 4 28 10 40l58 106-154 324h-86v84h140c27.003-56.33 53.665-113.001 80-170 34.063-71.271 67.603-143.063 102-214h300c54.786 99.881 110.533 198.8 164 300l74-42-164-298c-14-26-42-44-74-44h-318l-38-70zM726 170.667c46 0 84-40 84-86s-38-84-84-84-86 38-86 84 40 86 86 86zM298 170.667c46 0 86-40 86-86s-40-84-86-84-84 38-84 84 38 86 84 86zM470 554.667v128h-128v86h128v128h84v-128h128v-86h-128v-128h-84z" />
<glyph unicode="&#xe855;" glyph-name="alarm" d="M512 84.667c166 0 298 134 298 300s-132 298-298 298-298-132-298-298 132-300 298-300zM512 768.667c212 0 384-172 384-384s-172-384-384-384-384 172-384 384 172 384 384 384zM534 596.667v-224l170-100-32-52-202 120v256h64zM336 794.667l-196-164-54 64 196 164zM938 694.667l-54-66-196 166 54 64z" />
<glyph unicode="&#xe856;" glyph-name="add_shopping_cart2" d="M306 308.667c0-6 4-10 10-10h494v-86h-512c-46 0-84 40-84 86 0 14 4 28 10 40l58 106-154 324h-86v84h140c27.003-56.33 53.665-113.001 80-170 34.063-71.271 67.603-143.063 102-214h300c54.786 99.881 110.533 198.8 164 300l74-42-164-298c-14-26-42-44-74-44h-318l-38-70zM726 170.667c46 0 84-40 84-86s-38-84-84-84-86 38-86 84 40 86 86 86zM298 170.667c46 0 86-40 86-86s-40-84-86-84-84 38-84 84 38 86 84 86zM470 554.667v128h-128v86h128v128h84v-128h128v-86h-128v-128h-84z" />
<glyph unicode="&#xe85d;" glyph-name="assignment" d="M726 554.667v86h-428v-86h428zM726 384.667v84h-428v-84h428zM598 212.667v86h-300v-86h300zM512 810.667c-24 0-42-18-42-42s18-44 42-44 42 20 42 44-18 42-42 42zM810 810.667c46 0 86-40 86-86v-596c0-46-40-86-86-86h-596c-46 0-86 40-86 86v596c0 46 40 86 86 86h178c18 50 64 86 120 86s102-36 120-86h178z" />
<glyph unicode="&#xe85e;" glyph-name="assignment_ind" d="M768 128.667v60c0 86-170 132-256 132s-256-46-256-132v-60h512zM512 640.667c-70 0-128-58-128-128s58-128 128-128 128 58 128 128-58 128-128 128zM512 810.667c-24 0-42-18-42-42s18-44 42-44 42 20 42 44-18 42-42 42zM810 810.667c46 0 86-40 86-86v-596c0-46-40-86-86-86h-596c-46 0-86 40-86 86v596c0 46 40 86 86 86h178c18 50 64 86 120 86s102-36 120-86h178z" />
<glyph unicode="&#xe863;" glyph-name="autorenew" d="M800 608.667c34-52 54-116 54-182 0-188-154-342-342-342v-128l-170 172 170 170v-128c142 0 256 114 256 256 0 44-12 84-30 120zM512 682.667c-142 0-256-114-256-256 0-44 10-84 30-120l-62-62c-34 52-54 116-54 182 0 188 154 342 342 342v128l170-172-170-170v128z" />
<glyph unicode="&#xe864;" glyph-name="autorenew1" d="M800 608.667c34-52 54-116 54-182 0-188-154-342-342-342v-128l-170 172 170 170v-128c142 0 256 114 256 256 0 44-12 84-30 120zM512 682.667c-142 0-256-114-256-256 0-44 10-84 30-120l-62-62c-34 52-54 116-54 182 0 188 154 342 342 342v128l170-172-170-170v128z" />
<glyph unicode="&#xe86c;" glyph-name="check_circle" d="M426 212.667l384 384-60 62-324-324-152 152-60-60zM512 852.667c236 0 426-190 426-426s-190-426-426-426-426 190-426 426 190 426 426 426z" />
<glyph unicode="&#xe872;" glyph-name="delete" d="M810 768.667v-86h-596v86h148l44 42h212l44-42h148zM256 128.667v512h512v-512c0-46-40-86-86-86h-340c-46 0-86 40-86 86z" />
<glyph unicode="&#xe873;" glyph-name="delete2" d="M810 768.667v-86h-596v86h148l44 42h212l44-42h148zM256 128.667v512h512v-512c0-46-40-86-86-86h-340c-46 0-86 40-86 86z" />
<glyph unicode="&#xe876;" glyph-name="done" d="M384 246.667l452 454 60-60-512-512-238 238 58 60z" />
<glyph unicode="&#xe877;" glyph-name="done_all" d="M18 366.667l60 60 238-238-60-60zM948 700.667l62-60-512-512-240 238 62 60 178-178zM768 640.667l-270-272-60 60 270 272z" />
<glyph unicode="&#xe879;" glyph-name="exit_to_app" d="M810 810.667c46 0 86-40 86-86v-596c0-46-40-86-86-86h-596c-48 0-86 40-86 86v170h86v-170h596v596h-596v-170h-86v170c0 46 38 86 86 86h596zM430 272.667l110 112h-412v84h412l-110 112 60 60 214-214-214-214z" />
<glyph unicode="&#xe87d;" glyph-name="favorite" d="M512 28.667l-62 56c-220 200-364 330-364 492 0 132 102 234 234 234 74 0 146-36 192-90 46 54 118 90 192 90 132 0 234-102 234-234 0-162-144-294-364-494z" />
<glyph unicode="&#xe87e;" glyph-name="favorite_border" d="M516 146.667c204 184 338 306 338 430 0 86-64 148-150 148-66 0-130-42-152-100h-80c-22 58-86 100-152 100-86 0-150-62-150-148 0-124 134-246 338-430l4-4zM704 810.667c132 0 234-102 234-234 0-162-144-292-364-492l-62-56-62 54c-220 200-364 332-364 494 0 132 102 234 234 234 74 0 146-36 192-90 46 54 118 90 192 90z" />
<glyph unicode="&#xe880;" glyph-name="find_in_page" d="M384 384.667c0 70 58 128 128 128s128-58 128-128-58-128-128-128-128 58-128 128zM854 102.667l-164 164c22 34 36 74 36 118 0 118-96 212-214 212s-214-94-214-212 96-214 214-214c44 0 84 14 118 36l188-190c-14-10-30-16-50-16h-512c-46 0-86 38-86 84l2 684c0 46 38 84 84 84h342l256-256v-494z" />
<glyph unicode="&#xe884;" glyph-name="get_app" d="M214 170.667h596v-86h-596v86zM810 554.667l-298-298-298 298h170v256h256v-256h170z" />
<glyph unicode="&#xe885;" glyph-name="get_app2" d="M214 170.667h596v-86h-596v86zM810 554.667l-298-298-298 298h170v256h256v-256h170z" />
<glyph unicode="&#xe887;" glyph-name="help" d="M642 458.667c24 24 40 58 40 96 0 94-76 170-170 170s-170-76-170-170h84c0 46 40 86 86 86s86-40 86-86c0-24-10-44-26-60l-52-54c-30-32-50-74-50-120v-22h84c0 64 20 88 50 120zM554 128.667v84h-84v-84h84zM512 852.667c236 0 426-190 426-426s-190-426-426-426-426 190-426 426 190 426 426 426z" />
<glyph unicode="&#xe88e;" glyph-name="info2" d="M554 554.667v86h-84v-86h84zM554 212.667v256h-84v-256h84zM512 852.667c236 0 426-190 426-426s-190-426-426-426-426 190-426 426 190 426 426 426z" />
<glyph unicode="&#xe88f;" glyph-name="info_outline" d="M470 554.667v86h84v-86h-84zM512 84.667c188 0 342 154 342 342s-154 342-342 342-342-154-342-342 154-342 342-342zM512 852.667c236 0 426-190 426-426s-190-426-426-426-426 190-426 426 190 426 426 426zM470 212.667v256h84v-256h-84z" />
<glyph unicode="&#xe894;" glyph-name="language" d="M698 340.667h144c6 28 12 56 12 86s-6 58-12 86h-144c4-28 6-56 6-86s-2-58-6-86zM622 104.667c78 26 146 82 186 152h-126c-14-54-34-104-60-152zM612 340.667c4 28 6 56 6 86s-2 58-6 86h-200c-4-28-6-56-6-86s2-58 6-86h200zM512 86.667c36 52 64 108 82 170h-164c18-62 46-118 82-170zM342 596.667c14 54 34 104 60 152-78-26-146-82-186-152h126zM216 256.667c40-70 108-126 186-152-26 48-46 98-60 152h-126zM182 340.667h144c-4 28-6 56-6 86s2 58 6 86h-144c-6-28-12-56-12-86s6-58 12-86zM512 766.667c-36-52-64-108-82-170h164c-18 62-46 118-82 170zM808 596.667c-40 70-108 126-186 152 26-48 46-98 60-152h126zM512 852.667c236 0 426-190 426-426s-190-426-426-426-426 190-426 426 190 426 426 426z" />
<glyph unicode="&#xe898;" glyph-name="lock_open" d="M768 84.667v428h-512v-428h512zM768 596.667c46 0 86-38 86-84v-428c0-46-40-84-86-84h-512c-46 0-86 38-86 84v428c0 46 40 84 86 84h388v86c0 72-60 132-132 132s-132-60-132-132h-82c0 118 96 214 214 214s214-96 214-214v-86h42zM512 212.667c-46 0-86 40-86 86s40 86 86 86 86-40 86-86-40-86-86-86z" />
<glyph unicode="&#xe899;" glyph-name="lock_outline" d="M768 84.667v428h-512v-428h512zM380 682.667v-86h264v86c0 72-60 132-132 132s-132-60-132-132zM768 596.667c46 0 86-38 86-84v-428c0-46-40-84-86-84h-512c-46 0-86 38-86 84v428c0 46 40 84 86 84h42v86c0 118 96 214 214 214s214-96 214-214v-86h42zM512 212.667c-46 0-86 40-86 86s40 86 86 86 86-40 86-86-40-86-86-86z" />
<glyph unicode="&#xe89a;" glyph-name="lock_open2" d="M768 84.667v428h-512v-428h512zM768 596.667c46 0 86-38 86-84v-428c0-46-40-84-86-84h-512c-46 0-86 38-86 84v428c0 46 40 84 86 84h388v86c0 72-60 132-132 132s-132-60-132-132h-82c0 118 96 214 214 214s214-96 214-214v-86h42zM512 212.667c-46 0-86 40-86 86s40 86 86 86 86-40 86-86-40-86-86-86z" />
<glyph unicode="&#xe89b;" glyph-name="lock_outline2" d="M768 84.667v428h-512v-428h512zM380 682.667v-86h264v86c0 72-60 132-132 132s-132-60-132-132zM768 596.667c46 0 86-38 86-84v-428c0-46-40-84-86-84h-512c-46 0-86 38-86 84v428c0 46 40 84 86 84h42v86c0 118 96 214 214 214s214-96 214-214v-86h42zM512 212.667c-46 0-86 40-86 86s40 86 86 86 86-40 86-86-40-86-86-86z" />
<glyph unicode="&#xe8ad;" glyph-name="print2" d="M768 810.667v-170h-512v170h512zM810 426.667c24 0 44 18 44 42s-20 44-44 44-42-20-42-44 18-42 42-42zM682 128.667v212h-340v-212h340zM810 596.667c70 0 128-58 128-128v-256h-170v-170h-512v170h-170v256c0 70 58 128 128 128h596z" />
<glyph unicode="&#xe8b0;" glyph-name="receipt" d="M128 0.667v852l64-64 64 64 64-64 64 64 64-64 64 64 64-64 64 64 64-64 64 64 64-64 64 64v-852l-64 64-64-64-64 64-64-64-64 64-64-64-64 64-64-64-64 64-64-64-64 64zM768 554.667v86h-512v-86h512zM768 384.667v84h-512v-84h512zM768 212.667v86h-512v-86h512z" />
<glyph unicode="&#xe8b4;" glyph-name="room" d="M512 448.667c58 0 106 48 106 106s-48 106-106 106-106-48-106-106 48-106 106-106zM512 852.667c166 0 298-132 298-298 0-224-298-554-298-554s-298 330-298 554c0 166 132 298 298 298z" />
<glyph unicode="&#xe8b5;" glyph-name="schedule" d="M534 640.667v-224l192-114-32-54-224 136v256h64zM512 84.667c188 0 342 154 342 342s-154 342-342 342-342-154-342-342 154-342 342-342zM512 852.667c236 0 426-190 426-426s-190-426-426-426-426 190-426 426 190 426 426 426z" />
<glyph unicode="&#xe8b6;" glyph-name="search2" d="M406 340.667c106 0 192 86 192 192s-86 192-192 192-192-86-192-192 86-192 192-192zM662 340.667l212-212-64-64-212 212v34l-12 12c-48-42-112-66-180-66-154 0-278 122-278 276s124 278 278 278 276-124 276-278c0-68-24-132-66-180l12-12h34z" />
<glyph unicode="&#xe8b7;" glyph-name="search22" d="M406 340.667c106 0 192 86 192 192s-86 192-192 192-192-86-192-192 86-192 192-192zM662 340.667l212-212-64-64-212 212v34l-12 12c-48-42-112-66-180-66-154 0-278 122-278 276s124 278 278 278 276-124 276-278c0-68-24-132-66-180l12-12h34z" />
<glyph unicode="&#xe8c5;" glyph-name="settings_phone" d="M810 554.667h86v-86h-86v86zM854 276.667c24 0 42-18 42-42v-150c0-24-18-42-42-42-400 0-726 326-726 726 0 24 18 42 42 42h150c24 0 42-18 42-42 0-54 8-104 24-152 4-14 2-32-10-44l-94-94c62-120 162-220 282-282l94 94c12 12 30 14 44 10 48-16 98-24 152-24zM726 554.667v-86h-86v86h86zM554 554.667v-86h-84v86h84z" />
<glyph unicode="&#xe8cc;" glyph-name="shopping_cart" d="M726 170.667c46 0 84-40 84-86s-38-84-84-84-86 38-86 84 40 86 86 86zM42 852.667h140l40-84h632c24 0 42-20 42-44 0-8-2-14-6-20l-152-276c-14-26-42-44-74-44h-318l-38-70-2-6c0-6 4-10 10-10h494v-86h-512c-46 0-84 40-84 86 0 14 4 28 10 40l58 106-154 324h-86v84zM298 170.667c46 0 86-40 86-86s-40-84-86-84-84 38-84 84 38 86 84 86z" />
<glyph unicode="&#xe8cd;" glyph-name="shopping_cart2" d="M726 170.667c46 0 84-40 84-86s-38-84-84-84-86 38-86 84 40 86 86 86zM42 852.667h140l40-84h632c24 0 42-20 42-44 0-8-2-14-6-20l-152-276c-14-26-42-44-74-44h-318l-38-70-2-6c0-6 4-10 10-10h494v-86h-512c-46 0-84 40-84 86 0 14 4 28 10 40l58 106-154 324h-86v84zM298 170.667c46 0 86-40 86-86s-40-84-86-84-84 38-84 84 38 86 84 86z" />
<glyph unicode="&#xe8d4;" glyph-name="swap_horiz" d="M896 554.667l-170-170v128h-300v84h300v128zM298 468.667v-128h300v-84h-300v-128l-170 170z" />
<glyph unicode="&#xe8d5;" glyph-name="swap_vert" d="M384 810.667l170-170h-128v-300h-84v300h-128zM682 212.667h128l-170-170-170 170h128v300h84v-300z" />
<glyph unicode="&#xe8ed;" glyph-name="view_day" d="M86 810.667h810v-128h-810v128zM854 596.667c24 0 42-18 42-42v-256c0-24-18-42-42-42h-726c-24 0-42 18-42 42v256c0 24 18 42 42 42h726zM86 42.667v128h810v-128h-810z" />
<glyph unicode="&#xe8ee;" glyph-name="view_headline" d="M170 724.667h684v-84h-684v84zM170 468.667v86h684v-86h-684zM170 128.667v84h684v-84h-684zM170 298.667v86h684v-86h-684z" />
<glyph unicode="&#xe8ef;" glyph-name="view_list" d="M384 724.667h512v-170h-512v170zM384 128.667v170h512v-170h-512zM384 340.667v172h512v-172h-512zM170 554.667v170h172v-170h-172zM170 128.667v170h172v-170h-172zM170 340.667v172h172v-172h-172z" />
<glyph unicode="&#xe8f0;" glyph-name="view_module" d="M682 724.667h214v-256h-214v256zM426 468.667v256h214v-256h-214zM682 170.667v256h214v-256h-214zM426 170.667v256h214v-256h-214zM170 170.667v256h214v-256h-214zM170 468.667v256h214v-256h-214z" />
<glyph unicode="&#xe8f1;" glyph-name="view_quilt" d="M426 724.667h470v-256h-470v256zM682 170.667v256h214v-256h-214zM170 170.667v554h214v-554h-214zM426 170.667v256h214v-256h-214z" />
<glyph unicode="&#xe8f2;" glyph-name="view_stream" d="M170 724.667h726v-256h-726v256zM170 170.667v256h726v-256h-726z" />
<glyph unicode="&#xe8f3;" glyph-name="view_week" d="M554 724.667c24 0 44-18 44-42v-512c0-24-20-42-44-42h-128c-24 0-42 18-42 42v512c0 24 18 42 42 42h128zM854 724.667c24 0 42-18 42-42v-512c0-24-18-42-42-42h-128c-24 0-44 18-44 42v512c0 24 20 42 44 42h128zM256 724.667c24 0 42-18 42-42v-512c0-24-18-42-42-42h-128c-24 0-42 18-42 42v512c0 24 18 42 42 42h128z" />
<glyph unicode="&#xe8fd;" glyph-name="help_outline" d="M512 682.667c94 0 170-76 170-170 0-106-128-118-128-214h-84c0 138 128 128 128 214 0 46-40 84-86 84s-86-38-86-84h-84c0 94 76 170 170 170zM512 84.667c188 0 342 154 342 342s-154 342-342 342-342-154-342-342 154-342 342-342zM512 852.667c236 0 426-190 426-426s-190-426-426-426-426 190-426 426 190 426 426 426zM470 170.667v86h84v-86h-84z" />
<glyph unicode="&#xe8ff;" glyph-name="zoom_in" d="M512 512.667h-86v-86h-42v86h-86v42h86v86h42v-86h86v-42zM406 340.667c106 0 192 86 192 192s-86 192-192 192-192-86-192-192 86-192 192-192zM662 340.667l212-212-64-64-212 212v34l-12 12c-48-42-112-66-180-66-154 0-278 122-278 276s124 278 278 278 276-124 276-278c0-68-24-132-66-180l12-12h34z" />
<glyph unicode="&#xe900;" glyph-name="add" d="M0 466h1024v-40h-1024v40zM492 960h40v-1024h-40v1024z" />
<glyph unicode="&#xe901;" glyph-name="arrow-left-01" d="M778.968 938.056l-21.936 21.944-512-512 512-512 21.936 21.928-490.064 490.072z" />
<glyph unicode="&#xe902;" glyph-name="arrow-right-01" d="M268.944 960l-21.944-21.944 490.064-490.056-490.064-490.072 21.944-21.928 511.992 512z" />
<glyph unicode="&#xe903;" glyph-name="close-01" d="M1004.544 957.976l19.456-19.44-1004.552-1004.504-19.448 19.424 1004.544 1004.52zM1024-46.544l-19.456-19.424-1004.544 1004.504 19.456 19.44 1004.544-1004.52z" />
<glyph unicode="&#xe904;" glyph-name="line-square" d="M611.144 599.848c-11.528 0-20.984-9.448-20.984-21v-98.56l-81.6 111.144c-4 5.288-10.288 8.424-16.848 8.424-2.232 0-4.464-0.344-6.664-1.048-8.544-2.856-14.336-10.904-14.336-19.952v-159.256c0-11.616 9.448-21.024 20.992-21.024 11.624 0 21 9.408 21 21.024v98.504l81.656-111.096c3.952-5.312 10.216-8.432 16.752-8.432 2.28 0 4.544 0.336 6.688 1.112 8.592 2.824 14.36 10.88 14.36 19.912h0.016v159.248c-0.008 11.56-9.376 21-21.032 21zM419.52 599.848c-11.648 0-21.064-9.448-21.064-21v-159.248c0-11.616 9.424-21.024 21.064-21.024 11.512 0 20.992 9.408 20.992 21.024v159.248c0 11.56-9.472 21-20.992 21zM358.12 440.656h-58.624v138.192c0 11.552-9.408 21-20.952 21-11.608 0-21.032-9.448-21.032-21v-159.24c0-11.616 9.424-21.024 21.032-21.024h79.576c11.608 0 21 9.408 20.992 21.016 0 11.568-9.384 21.056-20.992 21.056zM928 960h-832c-52.808 0-96-43.2-96-96v-832c0-52.8 43.2-96 96-96h832c52.8 0 96 43.2 96 96v832c0 52.8-43.2 96-96 96zM829.832 305.192c-84.064-96.808-272.024-214.616-314.832-232.64-42.744-18.056-36.424 11.456-34.696 21.576 1.032 6.032 5.672 34.312 5.672 34.312 1.36 10.208 2.76 26.064-1.24 36.2-4.52 11.144-22.288 16.96-35.328 19.744-192.568 25.464-335.144 160.16-335.144 320.888 0 179.288 179.792 325.168 400.736 325.168s400.736-145.88 400.736-325.16c0-71.768-27.832-136.392-85.904-200.088zM760.992 557.832c11.624 0 21.032 9.408 21.032 21.024 0 11.552-9.408 20.992-21.032 20.992h-79.632c-11.544 0-21-9.44-21-20.992 0-0.032 0-0.032 0-0.136v-79.456c0-0.032 0-0.064 0-0.064s0 0 0-0.064v-79.536c0-11.616 9.456-21.024 21-21.024h79.632c11.592 0 21.032 9.408 21.032 21.024 0 11.568-9.44 21.056-21.032 21.056h-58.632v37.52h58.632c11.624 0 21.032 9.48 21.032 21.032 0 11.608-9.408 21.024-21.032 21.024h-58.632v37.592h58.632z" />
<glyph unicode="&#xe905;" glyph-name="cut" d="M0 466h1024v-40h-1024v40z" />
<glyph unicode="&#xe906;" glyph-name="arrow-top-01" d="M1002.056 181.032l21.944 21.936-512 512-512-512 21.92-21.936 490.080 490.064z" />
<glyph unicode="&#xe907;" glyph-name="arrow-down-01" d="M21.944 714.968l-21.944-21.936 512-512 512 512-21.92 21.936-490.080-490.064z" />
<glyph unicode="&#xe908;" glyph-name="youtube-line" d="M984 920v-944h-944v944h944zM1024 960h-1024v-1024h1024v1024zM522.92 192.256h-0.152c-18.984 0.176-186.288 2-241.464 7.344-3.928 0.64-6.448 0.952-9.216 1.32-20.152 2.464-55.784 6.8-84.232 36.96-25.184 25.896-33.176 75.048-34.528 84.56-0.312 2.64-7.248 60.040-7.248 119.144v54.16c0 59.48 7.152 118 7.216 118.616 1.352 9.808 9.28 59.112 34.872 85.4 30.448 32.256 65.064 35.64 81.744 37.232l4.032 0.432c98.976 7.28 247.32 7.336 248.8 7.336s150.072-0.064 248.256-7.248l4.96-0.528c16.6-1.6 51.184-4.952 81.976-37.536 25.176-25.992 33.168-75.088 34.528-84.664 0.296-2.64 7.24-60.024 7.24-119.016v-54.184c0-59.56-7.216-118.088-7.216-118.672-1.416-9.8-9.344-58.984-34.856-85.28-30.328-32.168-64.856-35.664-81.352-37.272l-4.336-0.488c-99.816-7.312-247.568-7.616-249.024-7.616zM522.744 719.544c-1.488 0-148.904-0.056-246.6-7.256l-3.68-0.36c-15.792-1.536-42-4.056-66.112-29.616-16.84-17.264-25.568-52.864-28.112-71.208-0.032-0.44-6.976-57.424-6.976-115.36v-54.16c0-57.576 6.76-113.48 7.032-115.88 2.552-18 11.272-53.504 27.8-70.408 22.304-23.72 49.832-27.032 68.016-29.312 4.304-0.496 7.184-0.848 10.688-1.504 54.008-5.192 230.656-7.040 238.088-7.104l0.024-12.552v12.552c1.456 0 148.784 0.4 246.832 7.536l3.88 0.392c15.728 1.592 41.84 4.176 65.808 29.648 16.768 17.264 25.584 52.856 28.104 71.176 0.064 0.368 7.032 57.36 7.032 115.392v54.176c0 57.456-6.792 113.36-7.088 115.76-2.52 18.064-11.216 53.512-27.808 70.536-24.296 25.856-50.544 28.376-66.208 29.856l-4.632 0.528c-96.952 7.112-244.616 7.168-246.088 7.168zM425.144 334.184l-0.064 284.224 269.168-142.672-269.104-141.552zM450.272 576.512l0.056-200.608 189.92 99.968-189.976 100.64z" />
<glyph unicode="&#xe909;" glyph-name="fb-line" d="M429.608 50.264c-5.336 0-9.688 4.344-9.688 9.688v344.328h-109.448c-5.336 0-9.68 4.344-9.68 9.688v137.968c0 5.336 4.344 9.68 9.68 9.68h109.448v92.072c0 118.464 71.704 192.048 187.136 192.048 49.968 0 94.168-3.704 107.736-5.504 4.808-0.648 8.424-4.768 8.424-9.6v-123.4c0-5.336-4.344-9.688-9.68-9.688l-73.064-0.032c-49.352 0-58.712-20.2-58.712-57.472v-78.4h126.936c2.792 0 5.44-1.2 7.272-3.296 1.832-2.072 2.696-4.864 2.336-7.632l-17.776-137.96c-0.624-4.832-4.76-8.464-9.608-8.464h-109.16v-344.344c0-5.344-4.344-9.688-9.68-9.688h-142.472zM562.4 69.64v344.336c0 5.336 4.344 9.68 9.68 9.68h110.328l15.296 118.608h-125.624c-5.32 0-9.672 4.336-9.696 9.664v88.104c0 38 9.272 76.84 78.072 76.84l63.376 0.032v105.080c-18 1.792-55.144 4.4-96.776 4.4-105.048 0-167.768-64.552-167.768-172.68v-101.752c0-5.336-4.344-9.68-9.68-9.68h-109.448v-118.608h109.448c5.336 0 9.68-4.344 9.68-9.68v-344.336h123.112zM607.056 841.736c49.792 0 93.736-3.68 107.208-5.464 2.832-0.376 4.944-2.792 4.944-5.64v-123.4c0-3.144-2.544-5.688-5.68-5.688l-73.064-0.032c-52.456 0-62.712-22.552-62.712-61.472v-82.4h130.936c1.64 0 3.184-0.704 4.264-1.936 1.088-1.224 1.584-2.856 1.376-4.48l-17.768-137.96c-0.368-2.84-2.792-4.968-5.64-4.968h-113.16v-348.344c0-3.152-2.544-5.688-5.68-5.688h-142.472c-3.144 0-5.688 2.536-5.688 5.688v348.328h-113.448c-3.136 0-5.68 2.544-5.68 5.688v137.968c0 3.136 2.544 5.68 5.68 5.68h113.448v96.072c0 115.984 70.176 188.048 183.136 188.048zM316.16 419.656h113.448c3.136 0 5.68-2.544 5.68-5.68v-348.336h131.112v348.336c0 3.136 2.544 5.68 5.68 5.68h113.84l16.328 126.608h-130.168c-3.136 0-5.68 2.536-5.696 5.68v88.088c0 37.84 8.968 72.84 74.072 72.84l67.376 0.040v112.672c-17.144 1.864-56.552 4.8-100.776 4.8-107.552 0-171.768-66.056-171.768-176.68v-101.752c0-3.136-2.552-5.68-5.68-5.68h-113.448v-126.616zM607.056 849.736c-117.896 0-191.136-75.12-191.136-196.048v-88.064h-105.448c-7.544 0-13.68-6.136-13.68-13.68v-137.968c0-7.544 6.136-13.688 13.68-13.688h105.448v-340.328c0-7.544 6.144-13.688 13.688-13.688h142.472c7.544 0 13.68 6.144 13.68 13.688v340.336h105.168c6.856 0 12.696 5.136 13.576 11.944l17.776 137.968c0.504 3.904-0.704 7.84-3.32 10.808-2.568 2.928-6.32 4.632-10.256 4.632h-122.944v74.4c0 36.224 8.184 53.472 54.712 53.472l73.064 0.032c7.544 0 13.68 6.144 13.68 13.688v123.4c0 6.824-5.112 12.664-11.88 13.568-13.68 1.8-58.12 5.528-108.28 5.528v0zM324.16 538.264h105.448c7.544 0 13.68 6.136 13.68 13.68v101.752c0 105.624 61.216 168.68 163.768 168.68 38.88 0 73.8-2.288 92.776-4.040v-97.432l-59.384-0.032c-72.736 0-82.064-43.2-82.064-80.84v-88.088c0.040-7.56 6.176-13.68 13.696-13.68h121.072l-14.256-110.608h-106.816c-7.544 0-13.68-6.144-13.68-13.68v-340.336h-115.112v340.336c0 7.536-6.136 13.68-13.68 13.68h-105.448v110.608zM984 920v-944h-944v944h944zM1024 960h-1024v-1024h1024v1024z" />
<glyph unicode="&#xe90a;" glyph-name="play" d="M513.768 956.472c-281.8 0-510.24-228.44-510.24-510.232s228.44-510.24 510.24-510.24 510.232 228.44 510.232 510.232-228.44 510.24-510.232 510.24zM318.664 188.896v512.008l512-256.672-512-255.336z" />
<glyph unicode="&#xe90b;" glyph-name="zoom_out" d="M298 554.667h214v-42h-214v42zM406 340.667c106 0 192 86 192 192s-86 192-192 192-192-86-192-192 86-192 192-192zM662 340.667l212-212-64-64-212 212v34l-12 12c-48-42-112-66-180-66-154 0-278 122-278 276s124 278 278 278 276-124 276-278c0-68-24-132-66-180l12-12h34z" />
<glyph unicode="&#xe90c;" glyph-name="pencil" d="M864 960c88.364 0 160-71.634 160-160 0-36.020-11.91-69.258-32-96l-64-64-224 224 64 64c26.742 20.090 59.978 32 96 32zM64 224l-64-288 288 64 592 592-224 224-592-592zM715.578 596.422l-448-448-55.156 55.156 448 448 55.156-55.156z" />
<glyph unicode="&#xe90d;" glyph-name="settings" d="M512 597.334c-93.867 0-170.667-76.8-170.667-170.667s76.8-170.667 170.667-170.667c93.867 0 170.667 76.8 170.667 170.667s-76.8 170.667-170.667 170.667zM512 341.334c-46.933 0-85.333 38.4-85.333 85.333s38.4 85.333 85.333 85.333c46.933 0 85.333-38.4 85.333-85.333s-38.4-85.333-85.333-85.333zM866.133 281.6c4.267 8.533 12.8 17.067 29.867 17.067 72.533 0 128 55.467 128 128s-55.467 128-128 128h-8.533c-8.533 0-17.067 4.267-21.333 12.8l-4.267 8.533c-4.267 8.533-4.267 21.333 8.533 34.133 46.933 46.933 51.2 115.2 12.8 166.4v12.8l-17.067 8.533c-21.333 21.333-51.2 34.133-85.333 34.133 0 0 0 0 0 0-34.133 0-68.267-12.8-93.867-38.4-8.533-8.533-21.333-8.533-29.867-4.267-8.533-4.267-17.067 8.533-17.067 21.333 0 72.533-55.467 128-128 128s-128-55.467-128-128v-8.533c0-8.533-4.267-17.067-12.8-21.333l-8.533-4.267c-8.533-4.267-21.333 0-34.133 8.533-51.2 51.2-132.267 51.2-179.2 0-51.2-51.2-51.2-132.267 4.267-183.467 8.533-8.533 8.533-21.333 4.267-34.133-4.267-8.533-17.067-17.067-29.867-17.067-72.533 0-128-55.467-128-128s55.467-128 128-128h8.533c12.8 0 21.333-8.533 25.6-17.067s4.267-21.333-8.533-34.133c-25.6-25.6-38.4-55.467-38.4-89.6 0-29.867 12.8-59.733 34.133-85.333l4.267-4.267c0 0 0 0 0 0l12.8-12.8c51.2-38.4 119.467-34.133 170.667 12.8 8.533 8.533 21.333 8.533 34.133 4.267s17.067-12.8 17.067-29.867c0-72.533 55.467-128 128-128s128 55.467 128 128v8.533c0 12.8 8.533 21.333 17.067 25.6s21.333 4.267 34.133-8.533c51.2-51.2 132.267-51.2 179.2 0 51.2 51.2 51.2 132.267-4.267 183.467-4.267 12.8-8.533 25.6-4.267 34.133v0zM814.933 187.734c8.533-8.533 12.8-17.067 12.8-29.867s-4.267-21.333-12.8-29.867c-8.533-8.533-17.067-12.8-29.867-12.8 0 0 0 0 0 0-12.8 0-21.333 4.267-34.133 17.067-34.133 34.133-81.067 42.667-123.733 21.333-42.667-17.067-68.267-59.733-68.267-102.4v-8.533c0-25.6-17.067-42.667-42.667-42.667s-42.667 17.067-42.667 42.667v4.267c0 46.933-29.867 85.333-72.533 102.4-12.8 8.533-29.867 8.533-46.933 8.533-29.867 0-59.733-12.8-81.067-34.133-17.067-17.067-38.4-17.067-55.467-4.267l-8.533 17.067h-4.267c-4.267 4.267-4.267 12.8-4.267 17.067 0 12.8 4.267 21.333 17.067 34.133 34.133 34.133 42.667 81.067 21.333 123.733-17.067 42.667-59.733 68.267-102.4 68.267h-8.533c-25.6 0-42.667 17.067-42.667 42.667s17.067 42.667 42.667 42.667h4.267c46.933 0 85.333 29.867 102.4 72.533s8.533 89.6-25.6 128c-17.067 17.067-17.067 42.667 0 59.733s42.667 17.067 64-4.267c29.867-29.867 76.8-38.4 115.2-25.6l12.8 4.267c42.667 17.067 68.267 59.733 68.267 102.4v8.533c0 25.6 17.067 42.667 42.667 42.667s42.667-17.067 42.667-46.933c0-46.933 25.6-85.333 68.267-102.4s89.6-8.533 128 25.6c8.533 8.533 17.067 12.8 29.867 12.8v0c12.8 0 21.333-4.267 29.867-12.8v0c17.067-17.067 17.067-42.667-4.267-64-29.867-29.867-38.4-76.8-25.6-115.2l4.267-12.8c17.067-42.667 59.733-68.267 102.4-68.267h8.533c25.6 0 42.667-17.067 42.667-42.667s-17.067-42.667-46.933-42.667c-46.933 0-85.333-25.6-102.4-68.267-21.333-42.667-8.533-89.6 25.6-128z" />
<glyph unicode="&#xe90e;" glyph-name="user-check" d="M512 341.334h-298.667c-119.467 0-213.333-93.867-213.333-213.333v-85.333c0-25.6 17.067-42.667 42.667-42.667s42.667 17.067 42.667 42.667v85.333c0 72.533 55.467 128 128 128h298.667c72.533 0 128-55.467 128-128v-85.333c0-25.6 17.067-42.667 42.667-42.667s42.667 17.067 42.667 42.667v85.333c0 119.467-93.867 213.333-213.333 213.333zM362.667 426.667c119.467 0 213.333 93.867 213.333 213.333s-93.867 213.333-213.333 213.333-213.333-93.867-213.333-213.333 93.867-213.333 213.333-213.333zM362.667 768c72.533 0 128-55.467 128-128s-55.467-128-128-128-128 55.467-128 128 55.467 128 128 128zM1011.2 584.534c-17.067 17.067-42.667 17.067-59.733 0l-140.8-140.8-55.467 55.467c-17.067 17.067-42.667 17.067-59.733 0s-17.067-42.667 0-59.733l85.333-85.333c8.533-8.533 21.333-12.8 29.867-12.8s21.333 4.267 29.867 12.8l170.667 170.667c17.067 17.067 17.067 42.667 0 59.733z" />
<glyph unicode="&#xe90f;" glyph-name="menu2" d="M64 504h896v-112h-896v112zM64 213.5h896v-112h-896v112zM64 794.5h896v-112h-896v112z" />
<glyph unicode="&#xe910;" glyph-name="r-left" d="M122.442 400.062c19.434 0 34.972-15.566 34.972-34.442 0-197.764 160.56-358.292 358.336-358.292 197.174 0 358.266 160.53 358.266 358.292 0 179.408-132.766 328.272-304.964 353.852v-178.876l-236.636 207.76 236.634 208.294v-167.208c210.538-26.108 373.86-206.638 373.86-423.822 0-236.102-191.648-427.734-427.16-427.734-236.086 0-427.75 191.634-427.75 427.736 0 18.874 15.536 34.44 34.442 34.44z" />
<glyph unicode="&#xe911;" glyph-name="r-right" d="M908.468 494.474c-19.434 0-34.972 15.566-34.972 34.44 0 197.764-160.56 358.294-358.336 358.294-197.174 0-358.266-160.53-358.266-358.294 0-179.408 132.768-328.27 304.966-353.85v178.876l236.634-207.76-236.634-208.296v167.208c-210.538 26.108-373.86 206.638-373.86 423.822 0 236.102 191.648 427.736 427.16 427.736 236.086 0 427.75-191.632 427.75-427.736 0-18.874-15.534-34.44-34.442-34.44z" />
<glyph unicode="&#xe912;" glyph-name="users2" d="M554.667 341.334h-341.333c-119.467 0-213.333-93.867-213.333-213.333v-85.333c0-25.6 17.067-42.667 42.667-42.667s42.667 17.067 42.667 42.667v85.333c0 72.533 55.467 128 128 128h341.333c72.533 0 128-55.467 128-128v-85.333c0-25.6 17.067-42.667 42.667-42.667s42.667 17.067 42.667 42.667v85.333c0 119.467-93.867 213.333-213.333 213.333zM384 426.667c119.467 0 213.333 93.867 213.333 213.333s-93.867 213.333-213.333 213.333-213.333-93.867-213.333-213.333 93.867-213.333 213.333-213.333zM384 768c72.533 0 128-55.467 128-128s-55.467-128-128-128-128 55.467-128 128 55.467 128 128 128zM861.867 332.8c-21.333 4.267-46.933-8.533-51.2-29.867s8.533-46.933 29.867-51.2c55.467-12.8 93.867-64 93.867-123.733v-85.333c0-25.6 17.067-42.667 42.667-42.667s42.667 17.067 42.667 42.667v85.333c4.267 98.133-59.733 183.467-157.867 204.8zM691.2 844.8c-21.333 8.533-42.667-4.267-51.2-29.867-4.267-21.333 8.533-46.933 29.867-51.2 68.267-17.067 110.933-85.333 93.867-157.867-12.8-46.933-46.933-81.067-93.867-93.867-21.333-4.267-38.4-29.867-29.867-51.2 4.267-21.333 21.333-34.133 42.667-34.133 4.267 0 8.533 0 8.533 0 76.8 21.333 136.533 76.8 153.6 153.6 29.867 119.467-38.4 238.933-153.6 264.533z" />
<glyph unicode="&#xe913;" glyph-name="touch_app" d="M804 260.667c22-10 38-32 38-58v-8l-32-226c-4-32-30-54-62-54h-290c-18 0-32 6-44 18l-212 212 34 34c8 8 20 14 34 14 4 0 6-2 10-2l146-30v458c0 36 28 64 64 64s64-28 64-64v-256h34c8 0 14-2 22-4zM384 458.667c-52 34-86 94-86 160 0 106 86 192 192 192s192-86 192-192c0-66-32-126-84-160v160c0 58-50 106-108 106s-106-48-106-106v-160z" />
<glyph unicode="&#xe914;" glyph-name="location" d="M517 954.002c-187.468 0-340-152.49-340-340 0-180.37 309.062-650.55 322.278-670.44 3.91-5.904 10.584-9.56 17.722-9.56s13.77 3.656 17.722 9.56c13.178 19.89 322.278 490.068 322.278 670.438 0 187.512-152.532 340.002-340 340.002zM517 465.252c-82.026 0-148.75 66.726-148.75 148.75s66.726 148.75 148.75 148.75 148.75-66.726 148.75-148.75c0-82.024-66.726-148.75-148.75-148.75z" />
<glyph unicode="&#xe915;" glyph-name="controller-fast-forward" d="M473.293 485.376l-368.794 253.389c-29.286 19.61-53.299 5.222-53.299-32v-491.981c0-37.12 24.013-51.507 53.299-32l368.794 253.491c0 0 14.285 10.189 14.285 24.474 0 14.336-14.285 24.627-14.285 24.627zM952.32 460.749c0-14.285-14.285-24.474-14.285-24.474l-368.794-253.491c-29.286-19.507-53.299-5.12-53.299 32v491.981c0 37.222 24.013 51.61 53.299 32l368.742-253.389c0 0 14.336-10.291 14.336-24.627z" />
<glyph unicode="&#xe916;" glyph-name="controller-jump-to-start" d="M765.901 738.765l-368.794-253.389c0 0-14.285-10.291-14.285-24.627s14.285-24.525 14.285-24.525l368.794-253.491c29.286-19.456 53.299-5.069 53.299 32.051v491.981c0 37.222-24.013 51.61-53.299 32zM307.2 768h-51.2c-28.314 0-51.2-2.458-51.2-30.72v-552.96c0-28.262 22.886-30.72 51.2-30.72h51.2c28.314 0 51.2 2.458 51.2 30.72v552.96c0 28.262-22.886 30.72-51.2 30.72z" />
<glyph unicode="&#xe917;" glyph-name="controller-next" d="M626.893 485.376l-368.794 253.389c-29.286 19.61-53.299 5.222-53.299-32v-491.981c0-37.12 24.013-51.507 53.299-32l368.794 253.491c0 0 14.285 10.189 14.285 24.474 0 14.336-14.285 24.627-14.285 24.627zM716.8 768h51.2c28.314 0 51.2-2.458 51.2-30.72v-552.96c0-28.262-22.886-30.72-51.2-30.72h-51.2c-28.314 0-51.2 2.458-51.2 30.72v552.96c0 28.262 22.886 30.72 51.2 30.72z" />
<glyph unicode="&#xe918;" glyph-name="controller-paus" d="M768 819.2h-102.4c-28.314 0-51.2-2.458-51.2-30.72v-655.36c0-28.262 22.886-30.72 51.2-30.72h102.4c28.314 0 51.2 2.458 51.2 30.72v655.36c0 28.262-22.886 30.72-51.2 30.72zM358.4 819.2h-102.4c-28.314 0-51.2-2.458-51.2-30.72v-655.36c0-28.262 22.886-30.72 51.2-30.72h102.4c28.314 0 51.2 2.458 51.2 30.72v655.36c0 28.262-22.886 30.72-51.2 30.72z" />
<glyph unicode="&#xe919;" glyph-name="pen" d="M940.64 877.44c-52.64 52.576-121.952 82.56-190.272 82.56-57.632 0-110.688-21.376-149.44-60.064l-155.744-156.928c-0.48-0.448-1.024-0.736-1.504-1.216-0.256-0.256-0.416-0.608-0.672-0.832l0.064-0.064-330.528-333.088c-15.232-15.136-26.272-33.984-32.416-54.56l-75.168-272.256c-0.064-0.736-4.96-22.112-4.96-32.992 0-61.824 50.208-112 112.128-112 12.32 0 36.16 5.888 37.024 6.016l271.296 71.328c20.608 6.112 39.328 17.248 54.56 32.512l488.416 492.256c88.832 88.896 78.816 237.888-22.784 339.328zM512.448 198.56c-2.624 28.864-10.784 57.184-23.008 84.064l302.56 302.528c18.496-58.432 8.992-119.552-31.552-160.128-0.256-0.256-0.576-0.416-0.8-0.672l0.448-0.416-247.296-249.28c0 7.968 0.384 15.776-0.352 23.904zM473.376 311.808c-11.936 19.616-25.504 38.56-42.304 55.328-19.552 19.552-41.984 34.88-65.408 47.744l305.024 305.024c23.936-10.624 46.88-25.76 67.136-46.016 17.312-17.248 30.688-36.576 40.992-56.672l-305.44-305.408zM335.552 430.016c-29.632 11.936-60.672 18.752-91.776 19.168l246.496 248.384c37.728 36.8 92.672 47.392 146.784 33.984l-301.504-301.536zM133.344 4.064c-3.488-0.8-14.336-3.552-21.696-4.064-26.304 0.32-47.648 21.696-47.648 48 0.384 5.376 2.528 14.624 3.264 17.984l33.696 122.048c36.576 0.992 75.936-13.248 106.88-44.256 31.424-31.36 46.208-71.488 44.608-108.512l-119.104-31.2zM283.968 43.616c-0.768 42.944-18.24 87.616-53.504 122.816-33.344 33.376-76.992 52.64-120.512 54.368l31.872 115.424c2.304 7.68 6.88 15.264 12.512 21.888 64.192 45.952 162.912 32.384 231.488-36.256 72.544-72.512 83.744-178.752 27.872-242.176-3.712-1.952-7.456-3.808-11.488-4.992l-118.24-31.072zM918.112 583.296l-53.888-54.304c0 7.232 0.864 14.176 0.192 21.568-5.632 61.92-34.496 121.792-81.376 168.608-52.128 52.16-121.248 82.080-189.696 82.272l52.992 53.44c26.528 26.464 63.552 41.12 104.032 41.12 51.488 0 104.384-23.296 145.056-63.84 38.176-38.112 60.928-85.472 64.192-133.376 3.008-44.704-11.744-85.696-41.504-115.488z" />
<glyph unicode="&#xe91a;" glyph-name="news2" d="M928 960h-704c-53.024 0-96-42.944-96-96v-64h-32c-53.024 0-96-42.944-96-96v-640c0-70.688 57.312-128 128-128h768c70.688 0 128 57.312 128 128v800c0 53.056-43.008 96-96 96zM960 64c0-35.264-28.736-64-64-64h-768c-35.296 0-64 28.736-64 64v640c0 17.664 14.336 32 32 32h32v-640c0-17.696 14.304-32 32-32s32 14.304 32 32v768c0 17.664 14.336 32 32 32h704c17.632 0 32-14.336 32-32v-800zM623.936 543.84c-8.8 0-16 7.168-16 16s7.2 16 16 16h256c8.864 0 16-7.168 16-16s-7.136-16-16-16h-256zM623.936 639.84c-8.8 0-16 7.168-16 16s7.2 16 16 16h256c8.864 0 16-7.168 16-16s-7.136-16-16-16h-256zM623.936 735.84c-8.8 0-16 7.168-16 16s7.2 16 16 16h256c8.864 0 16-7.168 16-16s-7.136-16-16-16h-256zM528 95.872c8.832 0 16-7.2 16-16 0-8.864-7.2-16-16-16h-256c-8.832 0-16 7.136-16 16 0 8.8 7.168 16 16 16h256zM528 191.872c8.832 0 16-7.2 16-16 0-8.864-7.2-16-16-16h-256c-8.832 0-16 7.136-16 16 0 8.8 7.168 16 16 16h256zM528 287.872c8.832 0 16-7.2 16-16 0-8.864-7.2-16-16-16h-256c-8.832 0-16 7.136-16 16 0 8.8 7.168 16 16 16h256zM880 95.872c8.8 0 16-7.2 16-16 0-8.864-7.2-16-16-16h-256c-8.864 0-16 7.136-16 16 0 8.8 7.136 16 16 16h256zM880 191.872c8.8 0 16-7.2 16-16 0-8.864-7.2-16-16-16h-256c-8.864 0-16 7.136-16 16 0 8.8 7.136 16 16 16h256zM880 287.872c8.8 0 16-7.2 16-16 0-8.864-7.2-16-16-16h-256c-8.864 0-16 7.136-16 16 0 8.8 7.136 16 16 16h256zM880 479.872c8.8 0 16-7.168 16-16s-7.2-16-16-16h-608c-8.832 0-16 7.168-16 16s7.168 16 16 16h608zM880 383.872c8.8 0 16-7.2 16-16 0-8.864-7.2-16-16-16h-608c-8.832 0-16 7.136-16 16 0 8.8 7.168 16 16 16h608zM288 544h224c17.696 0 32 14.304 32 32v223.872c0 17.696-14.304 32-32 32h-224c-17.696 0-32-14.304-32-32v-223.872c0-17.664 14.304-32 32-32zM320 768h160v-160h-160v160z" />
<glyph unicode="&#xe91b;" glyph-name="note" d="M1005.248 717.28l-192 192c-12 12-28.32 18.72-45.248 18.72h-672c-52.928 0-96-43.040-96-96v-768c0-52.928 43.072-96 96-96h832c52.928 0 96 43.072 96 96v608c0 16.992-6.752 33.28-18.752 45.28zM960 64c0-17.696-14.304-32-32-32h-832c-17.696 0-32 14.304-32 32v768c0 17.696 14.304 32 32 32h640v-128h-0.064c0-53.024 43.008-96 96-96h128.064v-576zM863.936 672h-32c-35.264 0-64 28.704-64 64h0.064v128l192-192h-96.064zM496 704c-8.832 0-16 7.136-16 16s7.168 16 16 16h160c8.8 0 16-7.168 16-16s-7.2-16-16-16h-160zM496 608c-8.832 0-16 7.168-16 16s7.168 16 16 16h160c8.8 0 16-7.168 16-16s-7.2-16-16-16h-160zM480 528c0 8.864 7.168 16 16 16h384c8.8 0 16-7.168 16-16s-7.2-16-16-16h-384c-8.832 0-16 7.168-16 16zM880 352c8.8 0 16-7.136 16-16 0-8.8-7.2-16-16-16h-736c-8.832 0-16 7.2-16 16 0 8.864 7.168 16 16 16h736zM880 256c8.8 0 16-7.136 16-16 0-8.8-7.2-16-16-16h-736c-8.832 0-16 7.2-16 16 0 8.864 7.168 16 16 16h736zM880 160c8.8 0 16-7.136 16-16 0-8.8-7.2-16-16-16h-736c-8.832 0-16 7.2-16 16 0 8.864 7.168 16 16 16h736zM880 448c8.8 0 16-7.168 16-16s-7.2-16-16-16h-736c-8.832 0-16 7.136-16 16s7.168 16 16 16h736zM160 512h224c17.696 0 32 14.304 32 32v192c0 17.696-14.304 32-32 32h-224c-17.696 0-32-14.304-32-32v-192c0-17.664 14.304-32 32-32zM192 704h160v-128h-160v128z" />
<glyph unicode="&#xe91c;" glyph-name="paperplane" d="M1009.376 954.88c-5.312 3.424-11.36 5.12-17.376 5.12-6.176 0-12.384-1.76-17.76-5.376l-960-640c-9.888-6.56-15.328-18.112-14.048-29.952 1.216-11.808 8.896-22.016 19.936-26.368l250.368-100.192 117.728-206.016c5.632-9.888 16.096-16 27.424-16.128 0.128 0 0.224 0 0.352 0 11.232 0 21.664 5.952 27.424 15.552l66.464 110.816 310.24-124.064c3.808-1.536 7.808-2.272 11.872-2.272 5.44 0 10.816 1.376 15.68 4.128 8.448 4.736 14.24 13.056 15.872 22.624l160 960c2.080 12.576-3.488 25.184-14.176 32.128zM100.352 295.136l741.6 494.432-539.2-577.184c-2.848 1.696-5.376 3.936-8.512 5.184l-193.888 77.568zM326.048 189.888c-0.064 0.128-0.16 0.192-0.224 0.32l606.176 648.8-516.768-805.184-89.184 156.064zM806.944 12.512l-273.312 109.312c-6.496 2.56-13.248 3.424-19.936 3.808l420.864 652.416-127.616-765.536z" />
<glyph unicode="&#xe91d;" glyph-name="params" d="M256 767.328v96.672c0 52.928-43.072 96-96 96s-96-43.072-96-96v-96.672c-38.656-29.28-64-75.136-64-127.328s25.344-98.048 64-127.264v-480.736c0-52.928 43.072-96 96-96s96 43.072 96 96v480.736c38.656 29.184 64 75.072 64 127.264s-25.344 98.048-64 127.328zM128 864c0 17.696 14.304 32 32 32s32-14.304 32-32v-67.2c-10.336 2.080-21.024 3.2-32 3.2s-21.664-1.12-32-3.2v67.2zM192 32c0-17.696-14.304-32-32-32s-32 14.304-32 32v451.264c10.336-2.144 21.024-3.264 32-3.264s21.664 1.12 32 3.264v-451.264zM251.68 613.12c-0.512-1.696-0.96-3.36-1.568-5.056-3.040-8.448-6.944-16.448-12.096-23.552-0.128-0.192-0.32-0.32-0.448-0.512-5.568-7.616-12.192-14.368-19.712-20.064-0.128-0.128-0.224-0.192-0.32-0.256-7.712-5.824-16.32-10.496-25.568-13.76-10.016-3.616-20.672-5.92-31.968-5.92s-21.952 2.304-32 5.952c-9.248 3.264-17.856 7.936-25.568 13.76-0.096 0.064-0.192 0.128-0.32 0.256-7.52 5.696-14.144 12.448-19.712 20.064-0.128 0.192-0.32 0.32-0.448 0.512-5.152 7.136-9.056 15.136-12.096 23.552-0.608 1.696-1.056 3.36-1.568 5.056-2.528 8.544-4.288 17.472-4.288 26.848 0 9.44 1.76 18.368 4.32 26.944 0.512 1.696 0.96 3.36 1.568 4.992 3.008 8.448 6.912 16.448 12.096 23.616 0.128 0.192 0.32 0.32 0.448 0.512 5.568 7.552 12.192 14.368 19.712 20.064 0.128 0.064 0.224 0.192 0.32 0.256 7.68 5.728 16.288 10.432 25.536 13.728 10.048 3.584 20.704 5.888 32 5.888s21.952-2.304 32-5.888c9.248-3.328 17.856-8 25.568-13.76 0.096-0.064 0.192-0.192 0.32-0.256 7.52-5.696 14.144-12.512 19.712-20.064 0.128-0.192 0.32-0.32 0.448-0.512 5.152-7.136 9.056-15.136 12.064-23.584 0.608-1.632 1.088-3.296 1.568-4.992 2.56-8.576 4.32-17.504 4.32-26.944 0-9.376-1.76-18.304-4.32-26.88zM960 767.328v96.672c0 52.928-43.072 96-96 96s-96-43.072-96-96v-96.672c-38.688-29.28-64-75.136-64-127.328s25.312-98.048 64-127.264v-480.736c0-52.928 43.072-96 96-96s96 43.072 96 96v480.736c38.624 29.184 64 75.072 64 127.264s-25.376 98.048-64 127.328zM832 864c0 17.696 14.304 32 32 32s32-14.304 32-32v-67.2c-10.368 2.080-21.056 3.2-32 3.2-11.008 0-21.696-1.12-32-3.2v67.2zM896 32c0-17.696-14.304-32-32-32s-32 14.304-32 32v451.264c10.304-2.144 20.992-3.264 32-3.264 10.944 0 21.632 1.12 32 3.264v-451.264zM955.68 613.12c-0.512-1.696-0.992-3.36-1.568-5.056-3.072-8.448-6.944-16.448-12.128-23.552-0.128-0.192-0.32-0.32-0.448-0.512-5.568-7.616-12.192-14.368-19.68-20.064-0.128-0.128-0.256-0.192-0.32-0.256-7.744-5.824-16.32-10.496-25.568-13.76-10.016-3.616-20.704-5.92-31.968-5.92-11.328 0-21.952 2.304-32 5.952-9.248 3.264-17.888 7.936-25.568 13.76-0.128 0.064-0.192 0.128-0.32 0.256-7.552 5.696-14.176 12.448-19.744 20.064-0.128 0.192-0.32 0.32-0.448 0.512-5.12 7.136-9.056 15.136-12.064 23.552-0.64 1.696-1.056 3.36-1.568 5.056-2.528 8.544-4.288 17.472-4.288 26.848 0 9.44 1.76 18.368 4.32 26.944 0.512 1.696 0.928 3.36 1.568 4.992 3.008 8.448 6.944 16.448 12.064 23.616 0.128 0.192 0.32 0.32 0.448 0.512 5.568 7.552 12.192 14.368 19.744 20.064 0.128 0.064 0.192 0.192 0.32 0.256 7.68 5.76 16.32 10.432 25.568 13.76 10.016 3.552 20.64 5.856 31.968 5.856 11.264 0 21.952-2.304 32-5.888 9.248-3.328 17.824-8 25.568-13.76 0.064-0.064 0.192-0.192 0.32-0.256 7.488-5.696 14.112-12.512 19.68-20.064 0.128-0.192 0.32-0.32 0.448-0.512 5.184-7.2 9.056-15.2 12.128-23.616 0.576-1.632 1.056-3.328 1.568-4.992 2.528-8.544 4.288-17.472 4.288-26.912 0-9.376-1.76-18.304-4.32-26.88zM608 383.328v480.672c0 52.928-43.072 96-96 96s-96-43.072-96-96v-480.672c-38.656-29.248-64-75.136-64-127.328s25.344-98.048 64-127.264v-96.736c0-52.928 43.072-96 96-96s96 43.072 96 96v96.736c38.624 29.184 64 75.072 64 127.264s-25.376 98.048-64 127.328zM480 864c0 17.696 14.304 32 32 32s32-14.304 32-32v-451.2c-10.368 2.048-21.056 3.2-32 3.2-10.976 0-21.664-1.12-32-3.2v451.2zM544 32c0-17.696-14.304-32-32-32s-32 14.304-32 32v67.264c10.336-2.144 21.024-3.264 32-3.264 10.944 0 21.632 1.12 32 3.264v-67.264zM603.68 229.12c-0.512-1.696-0.992-3.36-1.568-5.056-3.072-8.448-6.944-16.448-12.128-23.552-0.128-0.192-0.32-0.32-0.448-0.512-5.568-7.616-12.192-14.368-19.68-20.064-0.128-0.128-0.256-0.192-0.32-0.256-7.744-5.824-16.32-10.496-25.568-13.76-10.016-3.616-20.704-5.92-31.968-5.92-11.296 0-21.952 2.304-32 5.952-9.248 3.264-17.856 7.936-25.568 13.76-0.096 0.064-0.192 0.128-0.32 0.256-7.52 5.696-14.144 12.448-19.712 20.064-0.128 0.192-0.32 0.32-0.448 0.512-5.152 7.136-9.056 15.136-12.096 23.552-0.608 1.696-1.056 3.36-1.568 5.056-2.528 8.544-4.288 17.472-4.288 26.848 0 9.44 1.76 18.368 4.32 26.944 0.512 1.696 0.96 3.36 1.568 4.992 3.040 8.448 6.944 16.448 12.096 23.616 0.128 0.192 0.32 0.32 0.448 0.512 5.568 7.552 12.192 14.368 19.712 20.064 0.128 0.064 0.224 0.192 0.32 0.256 7.712 5.76 16.32 10.432 25.568 13.76 10.016 3.552 20.672 5.856 31.968 5.856 11.264 0 21.952-2.304 32-5.888 9.248-3.328 17.824-8 25.568-13.76 0.064-0.064 0.192-0.192 0.32-0.256 7.488-5.696 14.112-12.512 19.68-20.064 0.128-0.192 0.32-0.32 0.448-0.512 5.184-7.2 9.056-15.2 12.128-23.616 0.576-1.632 1.056-3.328 1.568-4.992 2.528-8.544 4.288-17.472 4.288-26.912 0-9.376-1.76-18.304-4.32-26.88z" />
<glyph unicode="&#xe91e;" glyph-name="check-square" d="M1011.2 840.534c-17.067 17.067-42.667 17.067-59.733 0l-439.467-439.467-98.133 98.133c-17.067 17.067-42.667 17.067-59.733 0s-17.067-42.667 0-59.733l128-128c8.533-8.533 21.333-12.8 29.867-12.8s21.333 4.267 29.867 12.8l469.333 469.333c17.067 17.067 17.067 42.667 0 59.733zM896 469.334c-25.6 0-42.667-17.067-42.667-42.667v-298.667c0-25.6-17.067-42.667-42.667-42.667h-597.333c-25.6 0-42.667 17.067-42.667 42.667v597.333c0 25.6 17.067 42.667 42.667 42.667h469.333c25.6 0 42.667 17.067 42.667 42.667s-17.067 42.667-42.667 42.667h-469.333c-72.533 0-128-55.467-128-128v-597.333c0-72.533 55.467-128 128-128h597.333c72.533 0 128 55.467 128 128v298.667c0 25.6-17.067 42.667-42.667 42.667z" />
<glyph unicode="&#xe91f;" glyph-name="edit2" d="M853.333 354.134c-25.6 0-42.667-17.067-42.667-42.667v-226.133c0-25.6-17.067-42.667-42.667-42.667h-597.333c-25.6 0-42.667 17.067-42.667 42.667v597.333c0 25.6 17.067 42.667 42.667 42.667h226.133c25.6 0 42.667 17.067 42.667 42.667s-17.067 42.667-42.667 42.667h-226.133c-72.533 0-128-55.467-128-128v-597.333c0-72.533 55.467-128 128-128h597.333c72.533 0 128 55.467 128 128v226.133c0 25.6-17.067 42.667-42.667 42.667zM968.533 712.534l-170.667 170.667c-17.067 17.067-42.667 17.067-59.733 0l-426.667-426.667c-8.533-8.533-12.8-17.067-12.8-29.867v-170.667c0-25.6 17.067-42.667 42.667-42.667h170.667c12.8 0 21.333 4.267 29.867 12.8l426.667 426.667c17.067 17.067 17.067 42.667 0 59.733zM494.933 298.667h-110.933v110.933l384 384 110.933-110.933-384-384z" />
<glyph unicode="&#xe920;" glyph-name="books" horiz-adv-x="1152" d="M224 832h-192c-17.6 0-32-14.4-32-32v-704c0-17.6 14.4-32 32-32h192c17.6 0 32 14.4 32 32v704c0 17.6-14.4 32-32 32zM192 640h-128v64h128v-64zM544 832h-192c-17.6 0-32-14.4-32-32v-704c0-17.6 14.4-32 32-32h192c17.6 0 32 14.4 32 32v704c0 17.6-14.4 32-32 32zM512 640h-128v64h128v-64zM765.088 782.52l-171.464-86.394c-15.716-7.918-22.096-27.258-14.178-42.976l287.978-571.548c7.918-15.718 27.258-22.098 42.976-14.178l171.464 86.392c15.716 7.92 22.096 27.26 14.178 42.974l-287.978 571.55c-7.92 15.718-27.26 22.1-42.976 14.18z" />
<glyph unicode="&#xe921;" glyph-name="edit-3" d="M128 170.667h170.667c12.8 0 21.333 4.267 29.867 12.8l469.333 469.333c17.067 17.067 17.067 42.667 0 59.733l-170.667 170.667c-17.067 17.067-42.667 17.067-59.733 0l-469.333-469.333c-8.533-8.533-12.8-17.067-12.8-29.867v-170.667c0-25.6 17.067-42.667 42.667-42.667zM170.667 366.934l426.667 426.667 110.933-110.933-426.667-426.667h-110.933v110.933zM896 42.667h-768c-25.6 0-42.667-17.067-42.667-42.667s17.067-42.667 42.667-42.667h768c25.6 0 42.667 17.067 42.667 42.667s-17.067 42.667-42.667 42.667z" />
<glyph unicode="&#xe922;" glyph-name="file-text3" d="M891.733 614.4c-4.267 4.267-4.267 8.533-8.533 12.8l-256 256c-4.267 4.267-8.533 8.533-12.8 8.533-4.267 4.267-12.8 4.267-17.067 4.267h-341.333c-72.533 0-128-55.467-128-128v-682.667c0-72.533 55.467-128 128-128h512c72.533 0 128 55.467 128 128v512c0 4.267 0 12.8-4.267 17.067zM640 750.934l110.933-110.933h-110.933v110.933zM768 42.667h-512c-25.6 0-42.667 17.067-42.667 42.667v682.667c0 25.6 17.067 42.667 42.667 42.667h298.667v-213.333c0-25.6 17.067-42.667 42.667-42.667h213.333v-469.333c0-25.6-17.067-42.667-42.667-42.667zM682.667 426.667h-341.333c-25.6 0-42.667-17.067-42.667-42.667s17.067-42.667 42.667-42.667h341.333c25.6 0 42.667 17.067 42.667 42.667s-17.067 42.667-42.667 42.667zM682.667 256h-341.333c-25.6 0-42.667-17.067-42.667-42.667s17.067-42.667 42.667-42.667h341.333c25.6 0 42.667 17.067 42.667 42.667s-17.067 42.667-42.667 42.667zM341.333 512h85.333c25.6 0 42.667 17.067 42.667 42.667s-17.067 42.667-42.667 42.667h-85.333c-25.6 0-42.667-17.067-42.667-42.667s17.067-42.667 42.667-42.667z" />
<glyph unicode="&#xe923;" glyph-name="navigation" d="M968.533 883.2c-12.8 12.8-29.867 17.067-46.933 8.533l-810.667-384c-17.067-8.533-25.6-25.6-25.6-42.667s12.8-34.133 34.133-38.4l315.733-81.067 81.067-315.733c4.267-17.067 21.333-29.867 38.4-34.133 0 0 4.267 0 4.267 0 17.067 0 29.867 8.533 38.4 25.6l384 810.667c4.267 21.333 0 38.4-12.8 51.2zM567.467 170.667l-55.467 221.867c-4.267 17.067-17.067 25.6-29.867 29.867l-226.133 59.733 593.067 281.6-281.6-593.067z" />
<glyph unicode="&#xe924;" glyph-name="shopping-cart2" d="M341.333 170.667c-72.533 0-128-55.467-128-128s55.467-128 128-128 128 55.467 128 128-55.467 128-128 128zM341.333-0c-25.6 0-42.667 17.067-42.667 42.667s17.067 42.667 42.667 42.667 42.667-17.067 42.667-42.667-17.067-42.667-42.667-42.667zM853.333 170.667c-72.533 0-128-55.467-128-128s55.467-128 128-128 128 55.467 128 128-55.467 128-128 128zM853.333-0c-25.6 0-42.667 17.067-42.667 42.667s17.067 42.667 42.667 42.667 42.667-17.067 42.667-42.667-17.067-42.667-42.667-42.667zM375.467 213.334h452.267c0 0 0 0 4.267 0 59.733 0 115.2 42.667 123.733 102.4l68.267 358.4c4.267 12.8 0 25.6-8.533 34.133-8.533 12.8-21.333 17.067-34.133 17.067h-704l-12.8 102.4c-8.533 64-59.733 110.933-128 110.933h-93.867c-25.6 0-42.667-17.067-42.667-42.667s17.067-42.667 42.667-42.667h93.867c21.333 0 38.4-17.067 42.667-38.4l64-490.667c12.8-64 64-110.933 132.267-110.933zM930.133 640l-59.733-307.2c-4.267-21.333-21.333-34.133-42.667-34.133h-456.533c-21.333 0-38.4 17.067-42.667 38.4l-38.4 302.933h640z" />
<glyph unicode="&#xe925;" glyph-name="sliders" d="M170.667 469.334c25.6 0 42.667 17.067 42.667 42.667v298.667c0 25.6-17.067 42.667-42.667 42.667s-42.667-17.067-42.667-42.667v-298.667c0-25.6 17.067-42.667 42.667-42.667zM512 469.334c-25.6 0-42.667-17.067-42.667-42.667v-384c0-25.6 17.067-42.667 42.667-42.667s42.667 17.067 42.667 42.667v384c0 25.6-17.067 42.667-42.667 42.667zM853.333 384c25.6 0 42.667 17.067 42.667 42.667v384c0 25.6-17.067 42.667-42.667 42.667s-42.667-17.067-42.667-42.667v-384c0-25.6 17.067-42.667 42.667-42.667zM298.667 384h-256c-25.6 0-42.667-17.067-42.667-42.667s17.067-42.667 42.667-42.667h85.333v-256c0-25.6 17.067-42.667 42.667-42.667s42.667 17.067 42.667 42.667v256h85.333c25.6 0 42.667 17.067 42.667 42.667s-17.067 42.667-42.667 42.667zM640 640h-85.333v170.667c0 25.6-17.067 42.667-42.667 42.667s-42.667-17.067-42.667-42.667v-170.667h-85.333c-25.6 0-42.667-17.067-42.667-42.667s17.067-42.667 42.667-42.667h256c25.6 0 42.667 17.067 42.667 42.667s-17.067 42.667-42.667 42.667zM981.333 298.667h-256c-25.6 0-42.667-17.067-42.667-42.667s17.067-42.667 42.667-42.667h85.333v-170.667c0-25.6 17.067-42.667 42.667-42.667s42.667 17.067 42.667 42.667v170.667h85.333c25.6 0 42.667 17.067 42.667 42.667s-17.067 42.667-42.667 42.667z" />
<glyph unicode="&#xe926;" glyph-name="file-text2" d="M917.806 730.924c-22.212 30.292-53.174 65.7-87.178 99.704s-69.412 64.964-99.704 87.178c-51.574 37.82-76.592 42.194-90.924 42.194h-496c-44.112 0-80-35.888-80-80v-864c0-44.112 35.888-80 80-80h736c44.112 0 80 35.888 80 80v624c0 14.332-4.372 39.35-42.194 90.924zM785.374 785.374c30.7-30.7 54.8-58.398 72.58-81.374h-153.954v153.946c22.984-17.78 50.678-41.878 81.374-72.572zM896 16c0-8.672-7.328-16-16-16h-736c-8.672 0-16 7.328-16 16v864c0 8.672 7.328 16 16 16 0 0 495.956 0.002 496 0v-224c0-17.672 14.326-32 32-32h224v-624zM736 128h-448c-17.672 0-32 14.326-32 32s14.328 32 32 32h448c17.674 0 32-14.326 32-32s-14.326-32-32-32zM736 256h-448c-17.672 0-32 14.326-32 32s14.328 32 32 32h448c17.674 0 32-14.326 32-32s-14.326-32-32-32zM736 384h-448c-17.672 0-32 14.326-32 32s14.328 32 32 32h448c17.674 0 32-14.326 32-32s-14.326-32-32-32z" />
<glyph unicode="&#xe927;" glyph-name="file-picture" d="M832 64h-640v128l192 320 263-320 185 128v-256zM832 480c0-53.020-42.98-96-96-96-53.022 0-96 42.98-96 96s42.978 96 96 96c53.020 0 96-42.98 96-96zM917.806 730.924c-22.212 30.292-53.174 65.7-87.178 99.704s-69.412 64.964-99.704 87.178c-51.574 37.82-76.592 42.194-90.924 42.194h-496c-44.112 0-80-35.888-80-80v-864c0-44.112 35.888-80 80-80h736c44.112 0 80 35.888 80 80v624c0 14.332-4.372 39.35-42.194 90.924zM785.374 785.374c30.7-30.7 54.8-58.398 72.58-81.374h-153.954v153.946c22.984-17.78 50.678-41.878 81.374-72.572zM896 16c0-8.672-7.328-16-16-16h-736c-8.672 0-16 7.328-16 16v864c0 8.672 7.328 16 16 16 0 0 495.956 0.002 496 0v-224c0-17.672 14.326-32 32-32h224v-624z" />
<glyph unicode="&#xe928;" glyph-name="controller-play" d="M768 460.749c0-15.309-15.616-26.317-15.616-26.317l-438.323-271.514c-31.949-20.941-58.061-5.427-58.061 34.253v527.206c0 39.782 26.112 55.194 58.112 34.304l438.323-271.616c-0.051 0 15.565-11.008 15.565-26.317z" />
<glyph unicode="&#xe929;" glyph-name="error" d="M1010.806 144.926l-420.026 696.584c-16.55 27.442-46.736 44.49-78.78 44.49s-62.232-17.048-78.782-44.492l-420.026-696.582c-17.102-28.364-17.608-63.902-1.322-92.742 16.29-28.838 46.982-46.756 80.102-46.756h840.056c33.12 0 63.814 17.918 80.104 46.758 16.284 28.842 15.778 64.38-1.326 92.74zM954.078 84.972c-4.482-7.94-12.934-12.876-22.050-12.876h-840.058c-9.118 0-17.568 4.932-22.050 12.874-4.484 7.94-4.344 17.72 0.362 25.53l420.030 696.582c4.556 7.554 12.866 12.248 21.688 12.248 8.82 0 17.13-4.694 21.688-12.248l420.026-696.584c4.71-7.81 4.848-17.59 0.364-25.526zM512.308 611.704c-25.36 0-45.152-13.608-45.152-37.732 0-73.604 8.658-179.372 8.658-252.978 0.002-19.174 16.704-27.214 36.496-27.214 14.846 0 35.874 8.042 35.874 27.214 0 73.604 8.66 179.372 8.66 252.978 0 24.122-20.41 37.732-44.536 37.732zM512.93 251.102c-27.212 0-47.626-21.646-47.626-47.626 0-25.362 20.412-47.628 47.626-47.628 25.362 0 47.012 22.268 47.012 47.628 0 25.98-21.652 47.626-47.012 47.626z" />
<glyph unicode="&#xe92a;" glyph-name="rimp" d="M512.308 655.704c-25.36 0-45.152-13.608-45.152-37.732 0-73.604 8.658-179.372 8.658-252.976 0.002-19.174 16.704-27.214 36.496-27.214 14.846 0 35.874 8.042 35.874 27.214 0 73.604 8.66 179.372 8.66 252.976 0 24.122-20.41 37.732-44.536 37.732zM512.93 295.102c-27.212 0-47.626-21.646-47.626-47.626 0-25.362 20.412-47.626 47.626-47.626 25.364 0 47.012 22.268 47.012 47.626 0 25.98-21.652 47.626-47.012 47.626zM512.75 897.5c61.146 0 120.434-11.962 176.212-35.554 53.906-22.8 102.33-55.454 143.93-97.052s74.252-90.024 97.052-143.93c23.592-55.778 35.554-115.064 35.554-176.212 0-61.146-11.962-120.434-35.554-176.212-22.8-53.906-55.454-102.33-97.052-143.93s-90.024-74.252-143.93-97.052c-55.778-23.594-115.066-35.558-176.212-35.558-61.148 0-120.434 11.962-176.212 35.554-53.906 22.8-102.332 55.454-143.93 97.052s-74.252 90.024-97.052 143.93c-23.594 55.78-35.556 115.068-35.556 176.214 0 61.148 11.962 120.434 35.554 176.212 22.8 53.906 55.454 102.332 97.052 143.93s90.024 74.252 143.93 97.052c55.78 23.594 115.066 35.556 176.214 35.556zM512.75 957.5c-283.184 0-512.75-229.566-512.75-512.75s229.566-512.75 512.75-512.75 512.75 229.566 512.75 512.75-229.566 512.75-512.75 512.75v0z" />
<glyph unicode="&#xe92b;" glyph-name="chevron-with-circle-down" d="M640.256 527.462l-128.256-117.862-128.307 117.862c-10.138 10.035-26.522 10.035-36.762 0-10.086-10.035-10.086-26.368 0-36.352l146.637-143.718c10.189-10.035 26.624-10.035 36.71 0l146.637 143.718c10.189 9.984 10.138 26.317 0 36.352-10.086 10.035-26.47 10.035-36.659 0zM512 952.32c-271.462 0-491.52-220.058-491.52-491.52 0-271.514 220.058-491.52 491.52-491.52s491.52 220.006 491.52 491.52c0 271.462-220.058 491.52-491.52 491.52zM512 33.075c-236.288 0-427.725 191.488-427.725 427.725s191.437 427.725 427.725 427.725c236.186 0 427.725-191.488 427.725-427.725s-191.539-427.725-427.725-427.725z" />
<glyph unicode="&#xe92c;" glyph-name="copy" d="M640 704v256h-448l-192-192v-576h384v-256h640v768h-384zM192 869.49v-101.49h-101.49l101.49 101.49zM64 256v448h192v192h320v-192l-192-192v-256h-320zM576 613.49v-101.49h-101.49l101.49 101.49zM960 0h-512v448h192v192h320v-640z" />
<glyph unicode="&#xe92d;" glyph-name="paste" d="M704 832h-128v64c0 35.2-28.8 64-64 64h-128c-35.204 0-64-28.8-64-64v-64h-128v-128h512v128zM512 832h-128v63.886c0.034 0.038 0.072 0.078 0.114 0.114h127.768c0.042-0.036 0.082-0.076 0.118-0.114v-63.886zM832 640v160c0 17.6-14.4 32-32 32h-64v-64h32v-128h-192l-192-192v-256h-256v576h32v64h-64c-17.602 0-32-14.4-32-32v-640c0-17.6 14.398-32 32-32h288v-192h640v704h-192zM576 549.49v-101.49h-101.49l101.49 101.49zM960 0h-512v384h192v192h320v-576z" />
<glyph unicode="&#xe92e;" glyph-name="chevron-with-circle-left" d="M578.662 625.869c-10.035 10.086-26.368 10.086-36.352 0l-143.718-146.688c-10.035-10.189-10.035-26.624 0-36.71l143.718-146.637c9.984-10.189 26.317-10.138 36.352 0 10.035 10.086 10.035 26.522 0 36.71l-117.862 128.256 117.862 128.307c10.035 10.138 10.035 26.522 0 36.762zM512 952.32c-271.462 0-491.52-220.058-491.52-491.52 0-271.514 220.058-491.52 491.52-491.52s491.52 220.006 491.52 491.52c0 271.462-220.058 491.52-491.52 491.52zM512 33.075c-236.288 0-427.725 191.488-427.725 427.725s191.437 427.725 427.725 427.725c236.186 0 427.725-191.488 427.725-427.725s-191.539-427.725-427.725-427.725z" />
<glyph unicode="&#xe92f;" glyph-name="chevron-with-circle-right" d="M563.2 460.8l-117.862 128.307c-10.035 10.138-10.035 26.573 0 36.762 10.035 10.086 26.368 10.086 36.352 0l143.718-146.637c10.035-10.189 10.035-26.624 0-36.71l-143.718-146.637c-9.984-10.189-26.317-10.138-36.352 0-10.035 10.086-10.035 26.522 0 36.71l117.862 128.205zM512 952.32c271.462 0 491.52-220.058 491.52-491.52 0-271.514-220.058-491.52-491.52-491.52s-491.52 220.006-491.52 491.52c0 271.462 220.058 491.52 491.52 491.52zM512 33.075c236.186 0 427.725 191.488 427.725 427.725s-191.539 427.725-427.725 427.725c-236.288 0-427.725-191.488-427.725-427.725-0.051-236.237 191.437-427.725 427.725-427.725z" />
<glyph unicode="&#xe930;" glyph-name="chevron-with-circle-up" d="M530.381 574.208c-10.189 10.035-26.624 10.035-36.71 0l-146.637-143.718c-10.189-9.984-10.138-26.317 0-36.352 10.086-10.035 26.522-10.035 36.71 0l128.256 117.862 128.307-117.862c10.138-10.035 26.522-10.035 36.762 0 10.086 10.035 10.086 26.368 0 36.352l-146.688 143.718zM512 952.32c-271.462 0-491.52-220.058-491.52-491.52 0-271.514 220.058-491.52 491.52-491.52s491.52 220.006 491.52 491.52c0 271.462-220.058 491.52-491.52 491.52zM512 33.075c-236.288 0-427.725 191.488-427.725 427.725s191.437 427.725 427.725 427.725c236.186 0 427.725-191.488 427.725-427.725s-191.539-427.725-427.725-427.725z" />
<glyph unicode="&#xe931;" glyph-name="triangle-down" d="M256 665.6h512l-256-460.8-256 460.8z" />
<glyph unicode="&#xe932;" glyph-name="triangle-left" d="M716.8 716.8v-512l-460.8 256 460.8 256z" />
<glyph unicode="&#xe933;" glyph-name="triangle-right" d="M768 460.8l-460.8-256v512l460.8-256z" />
<glyph unicode="&#xe934;" glyph-name="triangle-up" d="M768 256h-512l256 460.8 256-460.8z" />
<glyph unicode="&#xe935;" glyph-name="info-with-circle" d="M512 952.32c-271.514 0-491.571-220.058-491.571-491.52 0-271.514 220.058-491.571 491.571-491.571 271.411 0 491.52 220.058 491.52 491.571 0 271.462-220.109 491.52-491.52 491.52zM557.875 774.861c47.923 0 62.003-27.802 62.003-59.597 0-39.68-31.744-76.39-85.965-76.39-45.363 0-66.97 22.784-65.638 60.518 0 31.795 26.573 75.469 89.6 75.469zM435.098 166.4c-32.768 0-56.678 19.917-33.792 107.213l37.53 154.88c6.502 24.781 7.578 34.714 0 34.714-9.779 0-52.326-17.101-77.414-33.997l-16.333 26.778c79.616 66.509 171.162 105.523 210.33 105.523 32.768 0 38.195-38.707 21.862-98.304l-43.008-162.816c-7.629-28.774-4.352-38.707 3.277-38.707 9.83 0 41.984 11.878 73.626 36.813l18.534-24.883c-77.466-77.414-161.894-107.213-194.611-107.213z" />
<glyph unicode="&#xe936;" glyph-name="info" d="M636.518 972.8c68.608 0 102.912-46.694 102.912-100.198 0-66.816-59.597-128.614-137.165-128.614-64.973 0-102.861 38.4-101.069 101.888 0 53.402 45.107 126.925 135.322 126.925zM425.421-51.2c-54.17 0-93.85 33.382-55.962 180.429l62.157 260.71c10.803 41.677 12.595 58.419 0 58.419-16.23 0-86.477-28.774-128.102-57.19l-27.034 45.056c131.686 111.923 283.187 177.51 348.211 177.51 54.118 0 63.13-65.178 36.096-165.376l-71.219-274.022c-12.595-48.384-7.219-65.075 5.427-65.075 16.23 0 69.478 20.070 121.805 61.798l30.72-41.677c-128.102-130.406-268.032-180.582-322.099-180.582z" />
<glyph unicode="&#xe937;" glyph-name="keyboard" d="M952.32 768h-880.64c-39.475 0-71.68-32.205-71.68-71.68v-471.040c0-39.373 32.205-71.68 71.629-71.68h880.64c39.424 0 71.68 32.307 71.68 71.68v471.040c0.051 39.475-32.256 71.68-71.629 71.68zM563.2 665.6h102.4v-102.4h-102.4v102.4zM716.8 512v-102.4h-102.4v102.4h102.4zM409.6 665.6h102.4v-102.4h-102.4v102.4zM563.2 512v-102.4h-102.4v102.4h102.4zM256 665.6h102.4v-102.4h-102.4v102.4zM409.6 512v-102.4h-102.4v102.4h102.4zM102.4 665.6h102.4v-102.4h-102.4v102.4zM256 512v-102.4h-102.4v102.4h102.4zM204.8 256h-102.4v102.4h102.4v-102.4zM768 256h-512v102.4h512v-102.4zM921.6 256h-102.4v102.4h102.4v-102.4zM768 409.6v102.4h102.4v-102.4h-102.4zM921.6 563.2h-204.8v102.4h204.8v-102.4z" />
<glyph unicode="&#xe938;" glyph-name="new-message" d="M930.509 879.309c-56.422 56.422-106.598 39.782-106.598 39.782l-442.317-441.958-74.394-221.133 221.030 74.445 442.061 442.266c0 0 16.589 50.176-39.782 106.598zM542.976 378.624l-24.115-24.064-75.418-25.6c-5.325 12.288-11.981 24.422-25.498 37.888-13.517 13.517-25.6 20.173-37.888 25.498l25.6 75.418 24.115 24.064c0 0 39.731 4.557 78.694-34.458 39.014-38.963 34.509-78.746 34.509-78.746zM819.2 102.4h-665.6v665.6h256l102.4 102.4h-358.4c-56.32 0-102.4-46.080-102.4-102.4v-665.6c0-56.32 46.080-102.4 102.4-102.4h665.6c56.32 0 102.4 46.080 102.4 102.4v358.4l-102.4-102.4v-256z" />
<glyph unicode="&#xe939;" glyph-name="facebook3" d="M870.4 921.6h-716.8c-56.32 0-102.4-46.080-102.4-102.4v-716.8c0-56.371 46.080-102.4 102.4-102.4h358.4v358.4h-102.4v126.72h102.4v104.96c0 110.797 62.054 188.621 192.819 188.621l92.314-0.102v-133.376h-61.286c-50.893 0-70.246-38.195-70.246-73.626v-86.528h131.482l-29.082-126.669h-102.4v-358.4h204.8c56.32 0 102.4 46.029 102.4 102.4v716.8c0 56.32-46.080 102.4-102.4 102.4z" />
<glyph unicode="&#xe93a;" glyph-name="google" d="M101.837 686.643c0-76.493 25.549-131.686 75.878-164.096 41.267-26.624 89.088-30.618 113.971-30.618 6.042 0 10.906 0.307 14.285 0.512 0 0-7.885-51.405 30.208-102.195h-1.741c-65.997 0-281.242-13.773-281.242-190.822 0-180.019 197.683-189.184 237.363-189.184 3.123 0 4.966 0.102 4.966 0.102 0.41 0 3.226-0.102 8.090-0.102 25.446 0 91.238 3.174 152.32 32.922 79.258 38.4 119.45 105.421 119.45 198.912 0 90.317-61.235 144.077-105.933 183.398-27.29 24.013-50.893 44.698-50.893 64.819 0 20.48 17.254 35.891 39.014 55.398 35.277 31.488 68.557 76.39 68.557 161.28 0 74.598-9.677 124.723-69.325 156.518 6.195 3.174 28.211 5.478 39.066 7.014 32.307 4.403 79.565 9.421 79.565 35.789v5.069h-235.469c-2.355-0.102-238.131-8.806-238.131-224.717zM481.946 225.178c4.506-71.987-57.088-125.082-149.606-131.789-93.952-6.912-171.264 35.379-175.77 107.315-2.202 34.611 13.005 68.403 42.752 95.386 30.157 27.29 71.578 44.186 116.634 47.514 5.325 0.307 10.598 0.614 15.872 0.614 86.989-0.051 145.869-51.149 150.118-119.040zM420.454 735.949c23.091-81.306-11.776-166.195-67.379-181.914-6.4-1.792-12.954-2.662-19.661-2.662-50.893 0-101.325 51.507-120.064 122.522-10.445 39.731-9.574 74.65 2.406 108.134 11.725 33.024 32.922 55.194 59.546 62.72 6.4 1.792 13.005 2.714 19.712 2.714 61.44 0 100.966-25.498 125.44-111.514zM819.2 563.2v153.6h-102.4v-153.6h-153.6v-102.4h153.6v-153.6h102.4v153.6h153.6v102.4h-153.6z" />
<glyph unicode="&#xe93b;" glyph-name="instagram2" d="M870.4 921.6h-716.8c-56.32 0-102.4-46.080-102.4-102.4v-716.8c0-56.371 46.080-102.4 102.4-102.4h716.8c56.32 0 102.4 46.029 102.4 102.4v716.8c0 56.32-46.080 102.4-102.4 102.4zM511.181 178.022c156.621 0 283.546 127.027 283.546 283.597 0 17.306-2.202 33.997-5.274 50.381h80.947v-369.459c0-19.558-15.872-35.328-35.482-35.328h-645.837c-19.61 0-35.482 15.77-35.482 35.328v369.459h79.309c-3.123-16.384-5.325-33.075-5.325-50.381 0-156.621 127.027-283.597 283.597-283.597zM333.978 461.619c0 97.894 79.36 177.203 177.254 177.203 97.843 0 177.254-79.309 177.254-177.203s-79.411-177.254-177.254-177.254c-97.946 0-177.254 79.36-177.254 177.254zM834.918 665.6h-82.688c-19.558 0-35.43 15.974-35.43 35.43v82.79c0 19.558 15.872 35.379 35.379 35.379h82.688c19.661 0 35.533-15.821 35.533-35.379v-82.739c0-19.507-15.872-35.482-35.482-35.482z" />
<glyph unicode="&#xe93c;" glyph-name="linkedin3" d="M256 819.2c0-54.374-36.352-101.171-102.451-101.171-62.208 0-102.349 44.134-102.349 98.509 0 55.808 38.912 105.062 102.4 105.062s101.171-46.592 102.4-102.4zM51.2 0v665.6h204.8v-665.6h-204.8zM358.4 438.067c0 79.104-2.611 145.203-5.222 202.291h184.013l9.114-88.218h3.891c25.907 41.523 89.395 102.4 195.686 102.4 129.638 0 226.918-86.784 226.918-273.51v-381.030h-204.8v351.283c0 81.613-31.078 143.872-102.4 143.872-54.374 0-81.613-44.032-95.898-80.333-5.222-13.005-6.502-31.13-6.502-49.306v-365.517h-204.8v438.067z" />
<glyph unicode="&#xe93d;" glyph-name="pinterest" d="M441.19 295.578c-26.931-141.005-59.75-276.173-157.082-346.778-30.003 213.094 44.083 373.094 78.541 542.976-58.726 98.816 7.066 297.574 130.816 248.576 152.32-60.211-131.891-367.206 58.88-405.606 199.219-39.987 280.525 345.6 156.979 470.989-178.432 181.146-519.475 4.25-477.491-255.078 10.189-63.386 75.674-82.586 26.163-170.086-114.227 25.293-148.326 115.405-143.923 235.52 7.066 196.608 176.589 334.182 346.675 353.28 215.091 24.115 416.973-79.002 444.877-281.293 31.386-228.403-97.075-475.802-327.117-457.984-62.362 4.864-88.474 35.789-137.318 65.485z" />
<glyph unicode="&#xe93e;" glyph-name="card" horiz-adv-x="1075" d="M963.197 802.883h-851.199c-61.734 0-111.999-50.267-111.999-112.001v-492.799c0-61.734 50.265-112.001 111.999-112.001h851.197c61.734 0 111.999 50.269 111.999 112.001v492.799c0.004 61.734-50.261 112.001-111.997 112.001zM1030.397 198.084c0-37.048-30.151-67.199-67.199-67.199h-851.199c-37.050 0-67.199 30.151-67.199 67.199v492.799c0 37.050 30.149 67.199 67.199 67.199h851.197c37.048 0 67.199-30.149 67.199-67.199l0.002-492.799zM1052.796 668.483h-1030.395c-12.366 0-22.402-10.036-22.402-22.4v-134.4c0-12.366 10.036-22.402 22.402-22.402h1030.399c12.364 0 22.4 10.036 22.4 22.402v134.4c-0.002 12.364-10.040 22.4-22.404 22.4zM1030.397 534.084h-985.597v89.601h985.597v-89.601zM425.599 354.882h-268.799c-12.364 0-22.4-10.034-22.4-22.398 0-12.366 10.036-22.4 22.4-22.4h268.799c12.364 0 22.4 10.034 22.4 22.4 0 12.364-10.034 22.398-22.4 22.398zM425.599 265.283h-268.799c-12.364 0-22.4-10.032-22.4-22.398s10.036-22.402 22.4-22.402h268.799c12.364 0 22.4 10.036 22.4 22.402-0.002 12.366-10.034 22.398-22.4 22.398zM873.598 399.682h-44.8c-37.048 0-67.199-30.146-67.199-67.199v-44.8c0-37.052 30.151-67.199 67.199-67.199h44.801c37.048 0 67.199 30.148 67.199 67.199v44.8c-0.002 37.050-30.153 67.199-67.201 67.199zM895.996 287.681c0-12.364-10.036-22.398-22.398-22.398h-44.8c-12.364 0-22.4 10.034-22.4 22.398v44.803c0 12.364 10.038 22.398 22.4 22.398h44.801c12.364 0 22.398-10.034 22.398-22.398v-44.803z" />
<glyph unicode="&#xe93f;" glyph-name="mailto" horiz-adv-x="1075" d="M19.783-64h-0.038c-5.046 0-9.788 1.958-13.358 5.521-3.574 3.569-5.547 8.316-5.557 13.368l-0.83 606.315c0.013 0.151 0.040 0.609 0.040 0.609l0.002 0.162c0.092 6.122 3.133 11.841 8.135 15.297l161.13 111.363v119.976c0 10.427 8.484 18.913 18.913 18.913h182.036l156.466 108.138c3.172 2.193 6.881 3.349 10.738 3.349 3.882 0 7.612-1.174 10.793-3.387l155.487-108.1h182.839c10.431 0 18.917-8.486 18.917-18.913v-121.334l160.348-111.463c3.616-2.517 6.255-6.246 7.431-10.501l0.183-0.662 0.279-0.624c0.057-0.202 0.223-1.265 0.223-1.87l0.832-605.792c0.008-5.049-1.954-9.803-5.523-13.381-3.567-3.576-8.311-5.553-13.362-5.557l-1036.125-1.426zM75.1-26.097l923.781 1.267-461.060 357.639-462.722-358.906zM38.609-6.541l362.421 281.119-363.156 250.975 0.735-532.095zM673.937 275.090l362.976-281.56-0.731 533.398-362.245-251.838zM207.132 454.589l225.265-155.684 93.826 72.779c3.343 2.591 7.334 3.96 11.54 3.96 4.086 0 8.129-1.342 11.377-3.78l0.448-0.317 93.024-72.161 225.049 156.459v333.85h-660.53v-335.105zM52.166 561.69l117.142-80.958v161.922l-117.142-80.964zM905.496 482.142l114.413 79.546-114.413 79.516v-159.062zM436.818 827.523h200.674l-100.051 69.552-100.623-69.552zM347.91 621.756c-10.427 0-18.913 8.486-18.913 18.913 0 10.431 8.484 18.913 18.913 18.913h378.979c10.427 0 18.911-8.482 18.911-18.913 0-10.427-8.484-18.913-18.911-18.913h-378.979zM347.91 476.212c-10.427 0-18.913 8.484-18.913 18.913s8.484 18.913 18.913 18.913h378.979c10.427 0 18.911-8.484 18.911-18.913 0-10.427-8.484-18.913-18.911-18.913h-378.979z" />
<glyph unicode="&#xe940;" glyph-name="package" horiz-adv-x="1075" d="M1021.605 764.087h-308.883v101.097c0 29.604-23.995 53.593-53.595 53.593h-240.554c-29.596 0-53.591-23.991-53.591-53.593v-101.349h-308.629c-29.6 0-53.597-23.999-53.597-53.597v-689.395c0-29.6 23.997-53.599 53.597-53.599h965.253c29.604 0 53.595 23.999 53.595 53.599v689.647c0 29.602-23.993 53.597-53.595 53.597zM415.783 767.135l0.51 98.557c0 1.542 1.246 2.794 2.792 2.794h241.058c1.544 0 2.796-1.252 2.796-2.794v-98.557c0-1.542-1.252-2.792-2.796-2.792h-241.569c-1.538 0-2.79 1.25-2.79 2.792zM56.352 713.284h965.253c-23.879-45.217-148.093-259.093-379.239-310.408v29.47c0.006 29.201-23.381 53.043-52.584 53.597h-101.608c-29.598 0-53.595-23.997-53.595-53.597v-29.98c-230.9 50.809-355.62 265.446-379.239 310.41l1.011 0.508zM591.813 432.348v-147.843c0-1.538-1.25-2.794-2.794-2.794h-100.845c-1.542 0-2.796 1.256-2.796 2.794v147.843c0 1.544 1.254 2.794 2.796 2.794h101.608c1.24-0.355 2.076-1.508 2.030-2.794zM1023.634 20.592c0-1.546-1.252-2.799-2.794-2.799h-964.487c-1.54 0-2.794 1.254-2.794 2.799v597.693c62.491-90.685 186.953-228.62 381.021-267.732v-65.793c0-29.596 23.997-53.597 53.595-53.597h101.608c29.602 0 53.597 24.001 53.597 53.597v65.793c194.064 38.607 318.533 177.805 381.017 267.732l-0.763-597.693z" />
<glyph unicode="&#xe941;" glyph-name="personal" d="M511.126 391.504c150.826 0 273.164 122.342 273.164 273.166 0 150.828-122.34 272.33-273.164 272.33-150.828 0-273.166-122.338-273.166-272.33-0.002-149.988 122.336-273.166 273.166-273.166zM511.126 865.776c110.606 0 201.104-90.496 201.104-201.106 0-110.608-90.498-201.102-201.104-201.102s-201.106 90.498-201.106 201.104c0 110.61 90.498 201.104 201.106 201.104zM38.53-35.002h948.54c20.11 0 36.026 15.92 36.026 36.032 0 188.538-153.334 342.712-342.708 342.712h-335.174c-188.536 0-342.714-153.336-342.714-342.712 0-20.112 15.92-36.032 36.030-36.032zM345.214 271.684h335.172c137.418 0 250.54-102.232 268.136-234.622h-871.446c17.596 131.556 130.716 234.622 268.138 234.622z" />
<glyph unicode="&#xe942;" glyph-name="print" horiz-adv-x="1075" d="M1033.828 243.408v377.628c0 47.439-38.662 86.099-86.097 86.099h-103.658v197.485c0 30.51-24.865 55.379-55.381 55.379h-499.669c-30.51 0-55.379-24.869-55.379-55.379v-197.485h-103.654c-47.439 0-86.099-38.662-86.099-86.099v-377.628c0-47.435 38.66-86.097 86.099-86.097h103.654v-165.93c0-30.51 24.869-55.381 55.379-55.381h499.669c30.514 0 55.381 24.869 55.381 55.381v166.14h103.658c47.645-0.002 86.097 38.451 86.097 85.887zM275.022 904.621c0 7.732 6.271 14.001 14.001 14.001h499.669c7.734 0 14.003-6.271 14.003-14.001v-197.485h-527.673v197.485zM802.905-8.621c0-7.732-6.269-14.001-14.001-14.001h-499.88c-7.732 0-14.001 6.269-14.001 14.001v420.050h527.673v-420.050h0.21zM992.446 243.408c0-24.657-20.060-44.719-44.717-44.719h-103.658v233.428c0 11.492-9.19 20.69-20.686 20.69h-569.053c-11.494 0-20.688-9.196-20.688-20.69v-233.428h-103.654c-24.659 0-44.721 20.062-44.721 44.719v377.628c0 24.659 20.062 44.723 44.721 44.723h817.74c24.657 0 44.717-20.062 44.717-44.723v-377.628zM191.012 580.492c-5.435 0-10.658-2.3-14.629-6.061-3.761-3.971-6.061-9.196-6.061-14.629s2.3-10.658 6.061-14.629c3.971-3.763 9.194-6.061 14.629-6.061 5.433 0 10.658 2.3 14.629 6.061 3.761 3.761 6.061 9.194 6.061 14.629 0 5.433-2.3 10.656-6.061 14.629-3.763 3.763-9.196 6.061-14.629 6.061zM392.469 173.82h293.201c11.492 0 20.688 9.192 20.688 20.686s-9.194 20.696-20.688 20.696h-293.201c-11.494 0-20.688-9.2-20.688-20.696 0-11.494 9.194-20.686 20.688-20.686zM392.469 56.579h293.201c11.492 0 20.688 9.194 20.688 20.69s-9.194 20.694-20.688 20.694h-293.201c-11.494 0-20.688-9.198-20.688-20.694s9.194-20.69 20.688-20.69zM392.469 291.057h293.201c11.492 0 20.688 9.194 20.688 20.69 0 11.492-9.194 20.69-20.688 20.69h-293.201c-11.494 0-20.688-9.196-20.688-20.69s9.194-20.69 20.688-20.69z" />
<glyph unicode="&#xe943;" glyph-name="dollar" d="M0 160v576h1024v-576h-1024zM64 673.984v-449.984h896v449.984h-896zM672 448c0 106.016-71.616 192-160 192h416v-384h-416c88.384 0 160 85.984 160 192zM800 384c26.496 0 48 28.672 48 64s-21.504 64-48 64-48-28.672-48-64 21.504-64 48-64zM579.776 528.704c-0.48-1.76-1.152-3.008-1.984-3.808-0.864-0.8-2.016-1.184-3.488-1.184s-3.776 0.896-7.008 2.752c-3.2 1.888-7.136 3.872-11.776 6.048-4.672 2.176-10.048 4.16-16.192 5.984-6.144 1.792-12.864 2.656-20.192 2.656-5.76 0-10.752-0.672-15.008-2.080-4.256-1.376-7.84-3.328-10.688-5.76-2.88-2.464-4.992-5.44-6.4-8.864-1.376-3.424-2.080-7.104-2.080-10.944 0-5.76 1.568-10.72 4.704-14.912s7.328-7.936 12.608-11.2c5.28-3.296 11.232-6.336 17.92-9.184 6.624-2.88 13.44-5.92 20.384-9.088 6.944-3.232 13.728-6.848 20.384-10.912 6.688-4.064 12.64-8.928 17.824-14.592s9.376-12.32 12.608-19.968c3.2-7.68 4.768-16.672 4.768-27.104 0-13.6-2.496-25.504-7.552-35.776-5.088-10.24-11.936-18.816-20.64-25.664-8.672-6.88-18.784-12.032-30.368-15.488-1.472-0.448-3.072-0.64-4.576-0.992v-34.944h-31.456v30.816c-0.416 0-0.768-0.064-1.152-0.064-8.928 0-17.248 0.704-24.896 2.144-7.68 1.472-14.432 3.232-20.288 5.248-5.888 2.048-10.752 4.192-14.688 6.432s-6.752 4.224-8.48 5.952c-1.728 1.728-2.976 4.224-3.712 7.488-0.736 3.296-1.12 7.968-1.12 14.112 0 4.128 0.128 7.584 0.416 10.4s0.704 5.056 1.312 6.816 1.376 2.976 2.4 3.712c0.992 0.704 2.144 1.088 3.488 1.088 1.856 0 4.48-1.088 7.904-3.296 3.392-2.208 7.776-4.64 13.088-7.296 5.344-2.688 11.68-5.088 19.104-7.328 7.392-2.176 15.968-3.296 25.696-3.296 6.4 0 12.128 0.768 17.184 2.304s9.376 3.68 12.896 6.496 6.208 6.272 8.096 10.4c1.888 4.16 2.816 8.736 2.816 13.856 0 5.856-1.632 10.88-4.8 15.104-3.2 4.192-7.36 7.904-12.512 11.2-5.12 3.264-10.944 6.304-17.472 9.184s-13.248 5.92-20.192 9.088c-6.912 3.2-13.664 6.816-20.192 10.912-6.528 4.064-12.352 8.896-17.472 14.56s-9.312 12.384-12.48 20.096c-3.2 7.712-4.8 16.992-4.8 27.776 0 12.416 2.304 23.296 6.88 32.672 4.608 9.376 10.784 17.184 18.592 23.36s16.992 10.816 27.584 13.888c5.44 1.6 11.072 2.72 16.832 3.488v33.088h31.456v-33.088c1.248-0.16 2.496-0.096 3.744-0.288 6.112-0.928 11.872-2.176 17.184-3.776 5.344-1.568 10.048-3.328 14.208-5.344 4.128-1.984 6.848-3.616 8.192-4.96 1.344-1.312 2.208-2.432 2.72-3.36 0.448-0.928 0.832-2.176 1.184-3.712 0.32-1.536 0.576-3.456 0.672-5.824 0.128-2.304 0.192-5.216 0.192-8.672 0-3.872-0.096-7.168-0.288-9.856-0.288-2.528-0.608-4.768-1.088-6.496zM352 448c0-106.016 71.616-192 160-192h-416v384h416c-88.384 0-160-85.984-160-192zM224 512c-26.528 0-48-28.672-48-64s21.472-64 48-64c26.496 0 48 28.672 48 64s-21.504 64-48 64z" />
<glyph unicode="&#xe944;" glyph-name="male" d="M540.864 767.872h292l-0.64-295.328-100.128 100.096-94.368-94.368c21.184-37.248 33.376-80.224 33.376-126.112 0-141.376-114.56-256-256-256-141.376 0-256 114.624-256 256s114.624 256 256 256c48.8 0 94.272-13.92 133.12-37.632l93.376 94.592-100.736 102.752zM287.136 352.128c0-70.688 57.312-128 128-128s128 57.312 128 128-57.312 128-128 128-128-57.312-128-128z" />
<glyph unicode="&#xe945;" glyph-name="female" d="M577.248 360.928v-105.376h127.872v-127.872h-127.872v-127.872h-129.824v127.872h-127.84v127.872h127.84v105.76c-109.92 28.64-191.136 128.288-191.136 247.136 0 141.216 114.496 255.712 255.712 255.712 141.248 0 255.68-114.496 255.68-255.712 0-119.328-79.872-219.264-190.432-247.52zM512 736.288c-70.624 0-127.872-57.216-127.872-127.84 0-70.592 57.248-127.84 127.872-127.84s127.872 57.248 127.872 127.84c0 70.624-57.248 127.84-127.872 127.84z" />
<glyph unicode="&#xe946;" glyph-name="pregnant_woman" d="M682 384.667v-172h-128v-212h-128v212h-84v300c0 70 58 128 128 128s128-58 128-128c50-20 84-70 84-128zM384 768.667c0 48 38 84 86 84s84-36 84-84-36-86-84-86-86 38-86 86z" />
<glyph unicode="&#xe947;" glyph-name="warning" d="M903.296 281.686l-252.245 420.437c-33.109 55.168-83.755 86.741-139.051 86.741s-105.941-31.573-139.051-86.656l-252.245-420.523c-33.536-55.851-37.205-115.413-10.027-163.413 27.136-48.043 80.128-75.605 145.323-75.605h512c65.195 0 118.187 27.563 145.323 75.563 27.179 48 23.509 107.563-10.027 163.456zM512 189.91c-36.437 0-66.133 29.653-66.133 66.091 0 36.48 29.653 66.176 66.133 66.176s66.133-29.696 66.133-66.176c0-36.437-29.696-66.091-66.133-66.091zM581.675 506.667c-0.469-1.323-59.776-147.968-59.776-147.968-1.621-4.011-5.547-6.656-9.856-6.656s-8.235 2.645-9.856 6.656l-59.349 146.688c-3.84 9.941-5.504 18.901-5.504 27.947 0 41.173 33.493 74.667 74.667 74.667s74.667-33.493 74.667-74.667c0-9.045-1.664-18.005-4.992-26.667z" />
<glyph unicode="&#xe948;" glyph-name="user2" d="M725.333 554.667c0 58.923-23.893 112.256-62.464 150.827-38.613 38.613-91.947 62.507-150.869 62.507s-112.256-23.893-150.869-62.507c-38.571-38.571-62.464-91.904-62.464-150.827s23.893-112.256 62.464-150.827c38.613-38.613 91.947-62.507 150.869-62.507s112.256 23.893 150.869 62.507c38.571 38.571 62.464 91.904 62.464 150.827zM256 128c0-42.667 96-85.333 256-85.333 150.101 0 256 42.667 256 85.333 0 85.333-100.437 170.667-256 170.667-160 0-256-85.333-256-170.667z" />
</font>
</defs>
</svg>
