<svg xmlns="http://www.w3.org/2000/svg" width="24" height="24"><g fill="none" fill-rule="evenodd"><rect width="22" height="22" x="1" y="1" stroke="#2E6DB7" stroke-width="2" rx="4"/><g fill="#2E6DB7" fill-rule="nonzero"><path d="M9.713 7.607a.834.834 0 01.87.727l.006.062.29 5.471a.833.833 0 01-1.658.151l-.006-.062-.29-5.472a.832.832 0 01.788-.876zm-.061-3.94a1.928 1.928 0 110 3.856 1.928 1.928 0 010-3.856z"/><path d="M14.961 13.078a.834.834 0 01.063 1.664l-.063.003h-4.914a.833.833 0 01-.062-1.665l.062-.002h4.914zm-1.154-2.305a.834.834 0 01.063 1.664l-.063.003h-3.502a.833.833 0 01-.062-1.664l.062-.003h3.502z"/><path d="M14.545 13.19a.833.833 0 011.104.25l.034.055 2.19 3.79a.835.835 0 01-1.41.89l-.034-.056-2.19-3.79a.835.835 0 01.306-1.14z"/><path d="M18.25 16.105a.834.834 0 01.888 1.409l-.055.035-1.516.875a.833.833 0 01-.888-1.409l.055-.034 1.516-.876zM7.616 9.768a.835.835 0 011.119.37.836.836 0 01-.371 1.12 3.98 3.98 0 001.784 7.542c1.68 0 3.162-1.05 3.736-2.599a.834.834 0 011.562.579 5.65 5.65 0 11-7.83-7.013z"/></g></g></svg>