<svg version="1.1" id="圖層_1" xmlns="http://www.w3.org/2000/svg" x="0" y="0" viewBox="0 0 24 24" xml:space="preserve"><style>.st0{fill:#b82b22}</style><path class="st0" d="M19 30H5c-2.8 0-5-2.2-5-5V11c0-2.8 2.2-5 5-5h14c2.8 0 5 2.2 5 5v14c0 2.8-2.2 5-5 5zM5 8c-1.7 0-3 1.3-3 3v14c0 1.7 1.3 3 3 3h14c1.7 0 3-1.3 3-3V11c0-1.7-1.3-3-3-3H5z" transform="translate(0 -6)"/><path class="st0" d="M8.8 13.5v2.8c0 .7-.1 1-.5 1.2-.4.2-.9.3-1.7.3 0-.3-.2-.9-.4-1.3h1c.1 0 .2 0 .2-.2v-2.4c-.4.1-.8.2-1.1.3L6 12.8c.4-.1.9-.2 1.4-.3v-2.1H6.2V9h1.3V6.7h1.3V9H10v1.3H8.8v1.8l1.1-.3.2 1.3-1.3.4zm5.5 3h3.2c-.2.3-.3.9-.4 1.2H15c-1.6 0-2.8-.3-3.6-1.7-.3.8-.7 1.4-1.3 1.9-.2-.2-.8-.7-1-.9 1-.8 1.5-2.1 1.7-3.8l1.3.2c-.1.4-.1.8-.2 1.2.3.7.6 1.1 1 1.4v-3.1h-2.8v-1.2h7.1v1.2h-2.9V14h2.3v1.1h-2.3v1.4zm2.3-5.3h-5.9V7.1h5.9v4.1zm-1.3-3.1H12v.6h3.2v-.6zm0 1.5H12v.6h3.2v-.6z"/></svg>