<svg xmlns="http://www.w3.org/2000/svg" width="24" height="24"><g fill="none" fill-rule="evenodd" transform="translate(0 -6)"><rect width="22" height="22" x="1" y="7" stroke="#CF9245" stroke-width="2" rx="4"/><path fill="#CF9245" fill-rule="nonzero" d="M12 24.032v-2.52h1.2v2.436h1.368v-2.436h1.284v1.104c0 .12-.036.156-.156.156-.12.012-.456.012-.768 0 .156.336.312.876.36 1.236.648 0 1.104-.024 1.452-.228.372-.228.468-.564.468-1.14v-6.168h-2.64v-.84h3.012v-1.296h-.636l.432-.42c-.36-.36-1.068-.828-1.668-1.116l-.792.756a7.4 7.4 0 011.176.78h-1.524v-1.5H13.2v1.5h-2.796v1.296H13.2v.84h-2.532v1.284l-.78-.564c-.132.3-.384.72-.588 1.056l-.24-.276v-.048a16.24 16.24 0 001.152-2.664l-.744-.444-.228.048h-.768l.96-.492c-.192-.408-.612-1.008-.984-1.464l-1.14.516c.312.432.684 1.02.876 1.44h-1.56V16.1h1.992c-.576 1.392-1.488 2.832-2.412 3.696.216.204.576.864.708 1.188.276-.288.576-.648.864-1.032v4.032H9.06v-4.38c.264.408.504.816.66 1.104l.756-.948c-.108-.132-.36-.48-.648-.828.252-.3.528-.672.84-1.02v6.12H12zm3.852-5.556h-1.284v-.804h1.284v.804zm-2.652 0H12v-.804h1.2v.804zm2.652 1.932h-1.284v-.828h1.284v.828zm-2.652 0H12v-.828h1.2v.828z"/></g></svg>