<svg xmlns="http://www.w3.org/2000/svg" width="24" height="24"><g fill="none" fill-rule="evenodd"><rect width="22" height="22" x="1" y="1" stroke="#4DAEB6" stroke-width="2" rx="4"/><path fill="#4DAEB6" fill-rule="nonzero" d="M11.923 6.064a5.485 5.485 0 00-5.136 3.932l-.024.082-.089.022a3.982 3.982 0 00.995 7.838h8.411l.048-.002.019-.001.046.002h.035a3.776 3.776 0 003.777-3.776l-.002-.102a3.778 3.778 0 00-2.504-3.454l-.054-.018-.012-.068a5.487 5.487 0 00-5.387-4.457l-.123.002zm.123 1.439c2.11 0 3.86 1.623 4.03 3.714a.72.72 0 00.585.65 2.335 2.335 0 011.903 2.294l-.001.083a2.339 2.339 0 01-2.251 2.252h-.083l-.076-.004h-.055l-.051.005H7.669a2.541 2.541 0 01-.243-5.071.717.717 0 00.64-.59 4.046 4.046 0 013.98-3.333z"/></g></svg>