<svg xmlns="http://www.w3.org/2000/svg" width="24" height="24"><g fill="none" fill-rule="evenodd" transform="translate(0 -6)"><rect width="22" height="22" x="1" y="7" stroke="#2E6DB7" stroke-width="2" rx="4"/><path fill="#2E6DB7" fill-rule="nonzero" d="M16.896 19.124c.156-.288.492-.744.756-.972a5.481 5.481 0 01-1.92-1.032c.48-.576.852-1.26 1.128-2.064h.6v-1.068h-2.94c.12-.288.24-.588.324-.888l-1.188-.252a4.957 4.957 0 01-1.392 2.364v-.504h-.72c.252-.336.576-.792.912-1.26l-1.152-.396c-.156.408-.444 1.02-.672 1.404l.612.252h-1.008v-1.86H9v1.86H7.944l.756-.348c-.12-.348-.432-.888-.732-1.284l-.984.42c.252.372.504.852.624 1.212h-.6v4.332h1.008v-1.272c.18.096.42.204.528.288.216-.504.408-1.296.504-2.028l-.696-.144c-.06.552-.156 1.14-.336 1.62v-1.956H9.18v3.384h.876v-3.384h1.188v3.204h1.02v-3.096c.228.228.468.504.6.66.18-.132.348-.3.504-.48.216.42.444.816.72 1.188-.504.384-1.116.66-1.812.888.216.252.552.804.66 1.068.744-.276 1.404-.624 1.956-1.068a6.056 6.056 0 002.004 1.212zm-2.016-2.856c-.3-.384-.528-.78-.72-1.212h1.392a4.253 4.253 0 01-.672 1.212zm-4.308 1.776l.624-.192c-.048-.54-.24-1.356-.456-1.992l-.612.18c.228.636.408 1.464.444 2.004zm2.1 6.012v-3.264h2.364v1.356c0 .144-.072.192-.264.204h-.195a36.89 36.89 0 01-1.257-.024c.18.324.384.816.468 1.176h.343c.718-.003 1.267-.026 1.673-.192.492-.192.636-.516.636-1.152v-2.556h-3.768v-.636h-1.416v.636H7.74v3.888h1.38v-2.7h2.136v3.264h1.416z"/></g></svg>