<svg xmlns="http://www.w3.org/2000/svg" width="24" height="24"><g fill="none" fill-rule="evenodd" transform="translate(0 -6)"><rect width="22" height="22" x="1" y="7" stroke="#4DAEB6" stroke-width="2" rx="4"/><path fill="#4DAEB6" fill-rule="nonzero" d="M9.492 24.02v-5.808a14.886 14.886 0 001.452-2.46h6.396v-1.368h-5.832c.144-.408.288-.792.408-1.2l-1.488-.36c-.132.516-.3 1.032-.492 1.56H6.684v1.368h2.64c-.732 1.44-1.776 2.748-3.072 3.6.216.36.528.996.672 1.368.408-.276.768-.564 1.128-.888v4.188h1.44zm4.548-.18c.516-.216.636-.588.636-1.308v-1.5h2.844V19.7h-2.844v-.456a14.945 14.945 0 002.208-1.908l-.9-.732-.3.084h-4.56v1.284h3.252c-.372.336-.768.66-1.14.888v.84h-3.048v1.332h3.048v1.464c0 .156-.06.204-.264.216h-.158a26 26 0 01-1.342-.036c.18.408.348.96.396 1.368.96.012 1.668-.012 2.172-.204z"/></g></svg>