<svg xmlns="http://www.w3.org/2000/svg" width="24" height="24"><g fill="none" fill-rule="evenodd" transform="translate(0 -6)"><rect width="22" height="22" x="1" y="7" stroke="#54AB00" stroke-width="2" rx="4"/><path fill="#54AB00" fill-rule="nonzero" d="M7.608 24.02c2.664-1.392 4.416-4.344 4.968-9.204l-1.02-.288-.276.048H9.504c.132-.492.252-.984.36-1.5l-1.44-.252c-.372 2.064-1.08 4.044-2.124 5.244.324.216.948.672 1.2.912.204-.264.408-.576.6-.912.564.576 1.152 1.2 1.548 1.704a6.918 6.918 0 01-3.24 3.048c.36.252.96.852 1.2 1.2zm6.96.024v-6.156c.732.78 1.536 1.656 1.932 2.244l1.212-.972c-.576-.732-1.788-1.908-2.616-2.724l-.528.384v-3.984h-1.512v11.208h1.512zm-4.296-5.7c-.468-.504-1.068-1.056-1.548-1.524.12-.288.228-.576.336-.888h1.812c-.144.888-.336 1.692-.6 2.412z"/></g></svg>