<svg xmlns="http://www.w3.org/2000/svg" width="36" height="36"><defs><linearGradient id="b" x1="50%" x2="50%" y1="0%" y2="100%"><stop offset="0%" stop-color="#FFF"/><stop offset="100%" stop-color="#F9E6E5"/></linearGradient><filter id="a" width="188.9%" height="188.9%" x="-44.4%" y="-44.4%" filterUnits="objectBoundingBox"><feOffset dy="2" in="SourceAlpha" result="shadowOffsetOuter1"/><feGaussianBlur in="shadowOffsetOuter1" result="shadowBlurOuter1" stdDeviation="2"/><feColorMatrix in="shadowBlurOuter1" result="shadowMatrixOuter1" values="0 0 0 0 0 0 0 0 0 0 0 0 0 0 0 0 0 0 0.3 0"/><feMerge><feMergeNode in="shadowMatrixOuter1"/><feMergeNode in="SourceGraphic"/></feMerge></filter></defs><g fill="none" fill-rule="evenodd" filter="url(#a)" transform="translate(4.5 4.5)"><path fill="url(#b)" d="M26.96 26.45l-3.89-9.42a.396.396 0 00-.364-.244H4.286a.395.395 0 00-.365.245L.03 26.45a.396.396 0 00.363.55h26.203a.395.395 0 00.328-.177.402.402 0 00.036-.373"/><path fill="#B82B22" d="M13.47 5.315c1.79 0 3.24 1.461 3.24 3.263 0 1.803-1.45 3.264-3.24 3.264-1.789 0-3.238-1.461-3.238-3.264 0-1.802 1.45-3.263 3.238-3.263m0-5.315C8.775 0 4.955 3.848 4.955 8.579c0 1.63.44 3.36 1.31 5.142.688 1.41 1.644 2.856 2.843 4.299 2.034 2.448 4.037 4.019 4.121 4.085a.393.393 0 00.483 0c.084-.066 2.086-1.637 4.121-4.085 1.2-1.443 2.155-2.89 2.842-4.299.87-1.782 1.31-3.512 1.31-5.143C21.986 3.848 18.167 0 13.47 0"/><circle cx="13.5" cy="8.25" r="3.75" fill="#FFF"/></g></svg>