<svg xmlns="http://www.w3.org/2000/svg" width="36" height="36"><defs><linearGradient id="a" x1="50%" x2="50%" y1="0%" y2="100%"><stop offset="0%" stop-color="#FFF"/><stop offset="100%" stop-color="#F9E6E5"/></linearGradient><linearGradient id="b" x1="20.544%" x2="79.456%" y1="0%" y2="100%"><stop offset="0%" stop-color="#E7373C"/><stop offset="51.452%" stop-color="#E95504"/><stop offset="100%" stop-color="#F9BE00"/></linearGradient></defs><g fill="none" fill-rule="evenodd"><path fill="url(#a)" d="M31.46 30.95l-3.89-9.419a.395.395 0 00-.364-.244H8.786a.394.394 0 00-.365.244l-3.89 9.42a.394.394 0 00.036.372.389.389 0 00.327.177h26.203a.395.395 0 00.328-.177.402.402 0 00.036-.373"/><path fill="url(#b)" d="M17.97 9.816c1.79 0 3.24 1.46 3.24 3.263 0 1.802-1.45 3.263-3.24 3.263-1.788 0-3.238-1.46-3.238-3.263 0-1.802 1.45-3.263 3.238-3.263m0-5.316c-4.695 0-8.514 3.849-8.514 8.579 0 1.63.44 3.36 1.31 5.143.687 1.409 1.643 2.856 2.842 4.298 2.034 2.448 4.037 4.02 4.122 4.085a.39.39 0 00.482 0c.085-.066 2.086-1.637 4.121-4.085 1.2-1.442 2.156-2.89 2.843-4.298.869-1.782 1.31-3.513 1.31-5.143 0-4.73-3.82-8.579-8.516-8.579"/><circle cx="18" cy="12.75" r="3.75" fill="#FFF"/></g></svg>