<svg xmlns="http://www.w3.org/2000/svg" xmlns:xlink="http://www.w3.org/1999/xlink" width="890" height="1108"><defs><rect id="a" width="40" height="166" x="0" y="0" rx="20"/><rect id="c" width="40" height="166" x="0" y="0" rx="20"/><rect id="e" width="40" height="166" x="0" y="0" rx="20"/><rect id="g" width="40" height="166" x="0" y="0" rx="20"/><rect id="i" width="40" height="166" x="0" y="0" rx="20"/><rect id="k" width="40" height="166" x="0" y="0" rx="20"/><rect id="m" width="40" height="166" x="0" y="0" rx="20"/><rect id="o" width="40" height="166" x="0" y="0" rx="20"/><rect id="q" width="40" height="166" x="0" y="0" rx="20"/><rect id="s" width="40" height="166" x="0" y="0" rx="20"/><rect id="u" width="40" height="166" x="0" y="0" rx="20"/><rect id="w" width="40" height="166" x="0" y="0" rx="20"/><rect id="y" width="40" height="166" x="0" y="0" rx="20"/><rect id="A" width="40" height="166" x="0" y="0" rx="20"/><rect id="C" width="40" height="166" x="0" y="0" rx="20"/><rect id="E" width="40" height="166" x="0" y="0" rx="20"/><rect id="G" width="40" height="166" x="0" y="0" rx="20"/><rect id="I" width="40" height="166" x="0" y="0" rx="20"/><rect id="K" width="180" height="48" x="0" y="0" rx="24"/><rect id="M" width="180" height="48" x="0" y="0" rx="24"/><rect id="O" width="180" height="48" x="0" y="0" rx="24"/><rect id="Q" width="180" height="48" x="0" y="0" rx="24"/><rect id="S" width="180" height="48" x="0" y="0" rx="24"/><rect id="U" width="180" height="48" x="0" y="0" rx="24"/><rect id="W" width="180" height="48" x="0" y="0" rx="24"/><rect id="Y" width="180" height="48" x="0" y="0" rx="24"/><rect id="aa" width="180" height="48" x="0" y="0" rx="24"/><rect id="ac" width="180" height="48" x="0" y="0" rx="24"/><rect id="ae" width="180" height="48" x="0" y="0" rx="24"/><rect id="ag" width="180" height="48" x="0" y="0" rx="24"/><rect id="ai" width="180" height="48" x="0" y="0" rx="24"/><rect id="ak" width="180" height="48" x="0" y="0" rx="24"/><rect id="am" width="40" height="184" x="0" y="0" rx="20"/><rect id="ao" width="40" height="184" x="0" y="0" rx="20"/><rect id="aq" width="40" height="184" x="0" y="0" rx="20"/><rect id="as" width="40" height="184" x="0" y="0" rx="20"/><rect id="au" width="40" height="184" x="0" y="0" rx="20"/><rect id="aw" width="40" height="184" x="0" y="0" rx="20"/><rect id="ay" width="40" height="184" x="0" y="0" rx="20"/><rect id="aA" width="40" height="184" x="0" y="0" rx="20"/><rect id="aC" width="40" height="184" x="0" y="0" rx="20"/><rect id="aE" width="40" height="184" x="0" y="0" rx="20"/><rect id="aG" width="40" height="184" x="0" y="0" rx="20"/></defs><g fill="none" fill-rule="evenodd"><path fill="#999" d="M445 0h1v474h-1zm110 82h1v291h-1zM20 474h1v20h-1zm850 0h1v20h-1zm-350 0h1v20h-1zm250 0h1v20h-1zm-350 0h1v20h-1zm200 0h1v20h-1zm-350 0h1v20h-1zm-150 0h1v20h-1zm700 0h1v20h-1zm1 186h1v40h-1zm-251 0h1v40h-1zm0 224h1v40h-1zm200-224h1v40h-1zm-150 20h1v20h-1zm50 0h1v20h-1zm-300 0h1v244h-1zm100 224h1v20h-1zm250-224h1v20h-1zm-300 0h1v244h-1zm100 224h1v20h-1zm-50-430h1v20h-1zm200 0h1v20h-1zm-350 0h1v20h-1zm-150 0h1v20h-1zm550 0h1v20h-1zm-350 0h1v20h-1zm200 0h1v20h-1zm-350 0h1v20h-1zm-150 0h1v20h-1z"/><path fill="#999" d="M20 474h851v1H20z"/><path stroke="#999" stroke-dasharray="2 4" stroke-linecap="round" stroke-linejoin="round" d="M405 373.5h40"/><path fill="#999" d="M555 140h20v1h-20zm-20-58h40v1h-40zm20 116h20v1h-20zm0 58h20v1h-20zm0 58h20v1h-20zm0 58h20v1h-20zm65 308h151v1H620zm-250 0h201v1H370zm100 224h101v1H470z"/><g transform="translate(850 494)"><mask id="b" fill="#fff"><use xlink:href="#a"/></mask><use fill="#FBECEA" xlink:href="#a"/><g fill="#FBECEA" mask="url(#b)"><path d="M0 0h40v166H0z"/></g><text fill="#B82B22" font-family="NotoSansCJKtc-Regular, Noto Sans CJK TC" font-size="16"><tspan x="12" y="39">企</tspan> <tspan x="12" y="57">業</tspan> <tspan x="12" y="75">金</tspan> <tspan x="12" y="93">融</tspan> <tspan x="12" y="111">事</tspan> <tspan x="12" y="129">業</tspan> <tspan x="12" y="147">部</tspan></text></g><g transform="translate(800 494)"><mask id="d" fill="#fff"><use xlink:href="#c"/></mask><use fill="#FBECEA" xlink:href="#c"/><g fill="#FBECEA" mask="url(#d)"><path d="M0 0h40v166H0z"/></g><text fill="#B82B22" font-family="NotoSansCJKtc-Regular, Noto Sans CJK TC" font-size="16"><tspan x="12" y="39">個</tspan> <tspan x="12" y="57">人</tspan> <tspan x="12" y="75">金</tspan> <tspan x="12" y="93">融</tspan> <tspan x="12" y="111">事</tspan> <tspan x="12" y="129">業</tspan> <tspan x="12" y="147">部</tspan></text></g><g transform="translate(750 494)"><mask id="f" fill="#fff"><use xlink:href="#e"/></mask><use fill="#FBECEA" xlink:href="#e"/><g fill="#FBECEA" mask="url(#f)"><path d="M0 0h40v166H0z"/></g><text fill="#B82B22" font-family="NotoSansCJKtc-Regular, Noto Sans CJK TC" font-size="16"><tspan x="12" y="39">客</tspan> <tspan x="12" y="57">戶</tspan> <tspan x="12" y="75">金</tspan> <tspan x="12" y="93">融</tspan> <tspan x="12" y="111">事</tspan> <tspan x="12" y="129">業</tspan> <tspan x="12" y="147">部</tspan></text></g><g transform="translate(700 494)"><mask id="h" fill="#fff"><use xlink:href="#g"/></mask><use fill="#FBECEA" xlink:href="#g"/><g fill="#FBECEA" mask="url(#h)"><path d="M0 0h40v166H0z"/></g><text fill="#B82B22" font-family="NotoSansCJKtc-Regular, Noto Sans CJK TC" font-size="16"><tspan x="12" y="39">存</tspan> <tspan x="12" y="57">匯</tspan> <tspan x="12" y="75">事</tspan> <tspan x="12" y="93">業</tspan> <tspan x="12" y="111">部</tspan></text></g><g transform="translate(650 494)"><mask id="j" fill="#fff"><use xlink:href="#i"/></mask><use fill="#FBECEA" xlink:href="#i"/><g fill="#FBECEA" mask="url(#j)"><path d="M0 0h40v166H0z"/></g><text fill="#B82B22" font-family="NotoSansCJKtc-Regular, Noto Sans CJK TC" font-size="16"><tspan x="12" y="39">財</tspan> <tspan x="12" y="57">務</tspan> <tspan x="12" y="75">金</tspan> <tspan x="12" y="93">融</tspan> <tspan x="12" y="111">事</tspan> <tspan x="12" y="129">業</tspan> <tspan x="12" y="147">部</tspan></text></g><g transform="translate(600 494)"><mask id="l" fill="#fff"><use xlink:href="#k"/></mask><use fill="#FBECEA" xlink:href="#k"/><g fill="#FBECEA" mask="url(#l)"><path d="M0 0h40v166H0z"/></g><text fill="#B82B22" font-family="NotoSansCJKtc-Regular, Noto Sans CJK TC" font-size="16"><tspan x="12" y="39">債</tspan> <tspan x="12" y="57">權</tspan> <tspan x="12" y="75">資</tspan> <tspan x="12" y="93">產</tspan> <tspan x="12" y="111">管</tspan> <tspan x="12" y="129">理</tspan> <tspan x="12" y="147">處</tspan></text></g><g transform="translate(550 494)"><mask id="n" fill="#fff"><use xlink:href="#m"/></mask><use fill="#FBECEA" xlink:href="#m"/><g fill="#FBECEA" mask="url(#n)"><path d="M0 0h40v166H0z"/></g><text fill="#B82B22" font-family="NotoSansCJKtc-Regular, Noto Sans CJK TC" font-size="16"><tspan x="12" y="39">通</tspan> <tspan x="12" y="57">路</tspan> <tspan x="12" y="75">管</tspan> <tspan x="12" y="93">理</tspan> <tspan x="12" y="111">部</tspan></text></g><g transform="translate(500 494)"><mask id="p" fill="#fff"><use xlink:href="#o"/></mask><use fill="#FBECEA" xlink:href="#o"/><g fill="#FBECEA" mask="url(#p)"><path d="M0 0h40v166H0z"/></g><text fill="#B82B22" font-family="NotoSansCJKtc-Regular, Noto Sans CJK TC" font-size="16"><tspan x="12" y="39">數</tspan> <tspan x="12" y="57">位</tspan> <tspan x="12" y="75">金</tspan> <tspan x="12" y="93">融</tspan> <tspan x="12" y="111">處</tspan></text></g><g transform="translate(450 494)"><mask id="r" fill="#fff"><use xlink:href="#q"/></mask><use fill="#FBECEA" xlink:href="#q"/><g fill="#FBECEA" mask="url(#r)"><path d="M0 0h40v166H0z"/></g><text fill="#B82B22" font-family="NotoSansCJKtc-Regular, Noto Sans CJK TC" font-size="16"><tspan x="12" y="39">資</tspan> <tspan x="12" y="57">訊</tspan> <tspan x="12" y="75">總</tspan> <tspan x="12" y="93">處</tspan></text></g><g transform="translate(400 494)"><mask id="t" fill="#fff"><use xlink:href="#s"/></mask><use fill="#FBECEA" xlink:href="#s"/><g fill="#FBECEA" mask="url(#t)"><path d="M0 0h40v166H0z"/></g><text fill="#B82B22" font-family="NotoSansCJKtc-Regular, Noto Sans CJK TC" font-size="16"><tspan x="12" y="39">法</tspan> <tspan x="12" y="57">令</tspan> <tspan x="12" y="75">遵</tspan> <tspan x="12" y="93">循</tspan> <tspan x="12" y="111">處</tspan></text></g><g transform="translate(350 494)"><mask id="v" fill="#fff"><use xlink:href="#u"/></mask><use fill="#FBECEA" xlink:href="#u"/><g fill="#FBECEA" mask="url(#v)"><path d="M0 0h40v166H0z"/></g><text fill="#B82B22" font-family="NotoSansCJKtc-Regular, Noto Sans CJK TC" font-size="16"><tspan x="12" y="39">法</tspan> <tspan x="12" y="57">務</tspan> <tspan x="12" y="75">處</tspan></text></g><g transform="translate(300 494)"><mask id="x" fill="#fff"><use xlink:href="#w"/></mask><use fill="#FBECEA" xlink:href="#w"/><g fill="#FBECEA" mask="url(#x)"><path d="M0 0h40v166H0z"/></g><text fill="#B82B22" font-family="NotoSansCJKtc-Regular, Noto Sans CJK TC" font-size="16"><tspan x="12" y="39">風</tspan> <tspan x="12" y="57">險</tspan> <tspan x="12" y="75">管</tspan> <tspan x="12" y="93">理</tspan> <tspan x="12" y="111">處</tspan></text></g><g transform="translate(250 494)"><mask id="z" fill="#fff"><use xlink:href="#y"/></mask><use fill="#FBECEA" xlink:href="#y"/><g fill="#FBECEA" mask="url(#z)"><path d="M0 0h40v166H0z"/></g><text fill="#B82B22" font-family="NotoSansCJKtc-Regular, Noto Sans CJK TC" font-size="16"><tspan x="12" y="39">作</tspan> <tspan x="12" y="57">業</tspan> <tspan x="12" y="75">中</tspan> <tspan x="12" y="93">心</tspan></text></g><g transform="translate(200 494)"><mask id="B" fill="#fff"><use xlink:href="#A"/></mask><use fill="#FBECEA" xlink:href="#A"/><g fill="#FBECEA" mask="url(#B)"><path d="M0 0h40v166H0z"/></g><text fill="#B82B22" font-family="NotoSansCJKtc-Regular, Noto Sans CJK TC" font-size="16"><tspan x="12" y="39">資</tspan> <tspan x="12" y="57">訊</tspan> <tspan x="12" y="75">安</tspan> <tspan x="12" y="93">全</tspan> <tspan x="12" y="111">處</tspan></text></g><g transform="translate(150 494)"><mask id="D" fill="#fff"><use xlink:href="#C"/></mask><use fill="#FBECEA" xlink:href="#C"/><g fill="#FBECEA" mask="url(#D)"><path d="M0 0h40v166H0z"/></g><text fill="#B82B22" font-family="NotoSansCJKtc-Regular, Noto Sans CJK TC" font-size="16"><tspan x="12" y="39">會</tspan> <tspan x="12" y="57">計</tspan> <tspan x="12" y="75">處</tspan></text></g><g transform="translate(100 494)"><mask id="F" fill="#fff"><use xlink:href="#E"/></mask><use fill="#FBECEA" xlink:href="#E"/><g fill="#FBECEA" mask="url(#F)"><path d="M0 0h40v166H0z"/></g><text fill="#B82B22" font-family="NotoSansCJKtc-Regular, Noto Sans CJK TC" font-size="16"><tspan x="12" y="39">行</tspan> <tspan x="12" y="57">政</tspan> <tspan x="12" y="75">管</tspan> <tspan x="12" y="93">理</tspan> <tspan x="12" y="111">處</tspan></text></g><g transform="translate(50 494)"><mask id="H" fill="#fff"><use xlink:href="#G"/></mask><use fill="#FBECEA" xlink:href="#G"/><g fill="#FBECEA" mask="url(#H)"><path d="M0 0h40v166H0z"/></g><text fill="#B82B22" font-family="NotoSansCJKtc-Regular, Noto Sans CJK TC" font-size="16"><tspan x="12" y="39">總</tspan> <tspan x="12" y="57">管</tspan> <tspan x="12" y="75">理</tspan> <tspan x="12" y="93">處</tspan></text></g><g transform="translate(0 494)"><mask id="J" fill="#fff"><use xlink:href="#I"/></mask><use fill="#FBECEA" xlink:href="#I"/><g fill="#FBECEA" mask="url(#J)"><path d="M0 0h40v166H0z"/></g><text fill="#B82B22" font-family="NotoSansCJKtc-Regular, Noto Sans CJK TC" font-size="16"><tspan x="12" y="39">人</tspan> <tspan x="12" y="57">力</tspan> <tspan x="12" y="75">資</tspan> <tspan x="12" y="93">源</tspan> <tspan x="12" y="111">處</tspan></text></g><g transform="translate(355)"><mask id="L" fill="#fff"><use xlink:href="#K"/></mask><use fill="#FFF" xlink:href="#K"/><g fill="#B82B22" mask="url(#L)"><path d="M0 0h180v48H0z"/></g><text fill="#FFF" font-family="NotoSansCJKtc-Regular, Noto Sans CJK TC" font-size="16"><tspan x="58" y="31">股東大會</tspan></text></g><g transform="translate(575 58)"><mask id="N" fill="#fff"><use xlink:href="#M"/></mask><use fill="#FFF" xlink:href="#M"/><g fill="#DF5C53" mask="url(#N)"><path d="M0 0h180v48H0z"/></g><text fill="#FFF" font-family="NotoSansCJKtc-Regular, Noto Sans CJK TC" font-size="16"><tspan x="34" y="31">薪資報酬委員會</tspan></text></g><g transform="translate(575 116)"><mask id="P" fill="#fff"><use xlink:href="#O"/></mask><use fill="#FFF" xlink:href="#O"/><g fill="#DF5C53" mask="url(#P)"><path d="M0 0h180v48H0z"/></g><text fill="#FFF" font-family="NotoSansCJKtc-Regular, Noto Sans CJK TC" font-size="16"><tspan x="50" y="31">審計委員會</tspan></text></g><g transform="translate(575 174)"><mask id="R" fill="#fff"><use xlink:href="#Q"/></mask><use fill="#FFF" xlink:href="#Q"/><g fill="#DF5C53" mask="url(#R)"><path d="M0 0h180v48H0z"/></g><text fill="#FFF" font-family="NotoSansCJKtc-Regular, Noto Sans CJK TC" font-size="16"><tspan x="34" y="31">風險管理委員會</tspan></text></g><g transform="translate(575 232)"><mask id="T" fill="#fff"><use xlink:href="#S"/></mask><use fill="#FFF" xlink:href="#S"/><g fill="#DF5C53" mask="url(#T)"><path d="M0 0h180v48H0z"/></g><text fill="#FFF" font-family="NotoSansCJKtc-Regular, Noto Sans CJK TC" font-size="16"><tspan x="50" y="31">提名委員會</tspan></text></g><g transform="translate(575 290)"><mask id="V" fill="#fff"><use xlink:href="#U"/></mask><use fill="#FFF" xlink:href="#U"/><g fill="#DF5C53" mask="url(#V)"><path d="M0 0h180v48H0z"/></g><text fill="#FFF" font-family="NotoSansCJKtc-Regular, Noto Sans CJK TC" font-size="16"><tspan x="66" y="31">稽核處</tspan></text></g><g transform="translate(575 348)"><mask id="X" fill="#fff"><use xlink:href="#W"/></mask><use fill="#FFF" xlink:href="#W"/><g fill="#DF5C53" mask="url(#X)"><path d="M0 0h180v48H0z"/></g><text fill="#FFF" font-family="NotoSansCJKtc-Regular, Noto Sans CJK TC" font-size="16"><tspan x="42" y="31">董事會秘書室</tspan></text></g><g transform="translate(355 58)"><mask id="Z" fill="#fff"><use xlink:href="#Y"/></mask><use fill="#FFF" xlink:href="#Y"/><g fill="#B82B22" mask="url(#Z)"><path d="M0 0h180v48H0z"/></g><text fill="#FFF" font-family="NotoSansCJKtc-Regular, Noto Sans CJK TC" font-size="16"><tspan x="66" y="31">董事會</tspan></text></g><g transform="translate(355 116)"><mask id="ab" fill="#fff"><use xlink:href="#aa"/></mask><use fill="#FFF" xlink:href="#aa"/><g fill="#B82B22" mask="url(#ab)"><path d="M0 0h180v48H0z"/></g><text fill="#FFF" font-family="NotoSansCJKtc-Regular, Noto Sans CJK TC" font-size="16"><tspan x="50" y="31">常務董事會</tspan></text></g><g transform="translate(355 174)"><mask id="ad" fill="#fff"><use xlink:href="#ac"/></mask><use fill="#FFF" xlink:href="#ac"/><g fill="#B82B22" mask="url(#ad)"><path d="M0 0h180v48H0z"/></g><text fill="#FFF" font-family="NotoSansCJKtc-Regular, Noto Sans CJK TC" font-size="16"><tspan x="66" y="31">董事長</tspan></text></g><g transform="translate(355 232)"><mask id="af" fill="#fff"><use xlink:href="#ae"/></mask><use fill="#FFF" xlink:href="#ae"/><g fill="#B82B22" mask="url(#af)"><path d="M0 0h180v48H0z"/></g><text fill="#FFF" font-family="NotoSansCJKtc-Regular, Noto Sans CJK TC" font-size="16"><tspan x="58" y="31">副董事長</tspan></text></g><g transform="translate(355 290)"><mask id="ah" fill="#fff"><use xlink:href="#ag"/></mask><use fill="#FFF" xlink:href="#ag"/><g fill="#B82B22" mask="url(#ah)"><path d="M0 0h180v48H0z"/></g><text fill="#FFF" font-family="NotoSansCJKtc-Regular, Noto Sans CJK TC" font-size="16"><tspan x="66" y="31">總經理</tspan></text></g><g transform="translate(225 348)"><mask id="aj" fill="#fff"><use xlink:href="#ai"/></mask><use fill="#FFF" xlink:href="#ai"/><g fill="#B82B22" mask="url(#aj)"><path d="M0 0h180v48H0z"/></g><text fill="#FFF" font-family="NotoSansCJKtc-Regular, Noto Sans CJK TC" font-size="16"><tspan x="42" y="31">跨部門委員會</tspan></text></g><g transform="translate(355 406)"><mask id="al" fill="#fff"><use xlink:href="#ak"/></mask><use fill="#FFF" xlink:href="#ak"/><g fill="#B82B22" mask="url(#al)"><path d="M0 0h180v48H0z"/></g><text fill="#FFF" font-family="NotoSansCJKtc-Regular, Noto Sans CJK TC" font-size="16"><tspan x="17.456" y="31">(執行/資深)副總經理</tspan></text></g><g transform="translate(800 700)"><mask id="an" fill="#fff"><use xlink:href="#am"/></mask><use fill="#FBECEA" xlink:href="#am"/><g fill="#F2F2F2" mask="url(#an)"><path d="M0 0h40v184H0z"/></g><text fill="#222" font-family="NotoSansCJKtc-Regular, Noto Sans CJK TC" font-size="16"><tspan x="12" y="39">信</tspan> <tspan x="12" y="57">用</tspan> <tspan x="12" y="75">卡</tspan> <tspan x="12" y="93">中</tspan> <tspan x="12" y="111">心</tspan></text></g><g transform="translate(750 700)"><mask id="ap" fill="#fff"><use xlink:href="#ao"/></mask><use fill="#FBECEA" xlink:href="#ao"/><g fill="#F2F2F2" mask="url(#ap)"><path d="M0 0h40v184H0z"/></g><text fill="#222" font-family="NotoSansCJKtc-Regular, Noto Sans CJK TC" font-size="16"><tspan x="12" y="39">信</tspan> <tspan x="12" y="57">託</tspan> <tspan x="12" y="75">部</tspan></text></g><g transform="translate(700 700)"><mask id="ar" fill="#fff"><use xlink:href="#aq"/></mask><use fill="#FBECEA" xlink:href="#aq"/><g fill="#F2F2F2" mask="url(#ar)"><path d="M0 0h40v184H0z"/></g><text fill="#222" font-family="NotoSansCJKtc-Regular, Noto Sans CJK TC" font-size="16"><tspan x="12" y="39">財</tspan> <tspan x="12" y="57">富</tspan> <tspan x="12" y="75">管</tspan> <tspan x="12" y="93">理</tspan> <tspan x="12" y="111">部</tspan></text></g><g transform="translate(650 700)"><mask id="at" fill="#fff"><use xlink:href="#as"/></mask><use fill="#FBECEA" xlink:href="#as"/><g fill="#F2F2F2" mask="url(#at)"><path d="M0 0h40v184H0z"/></g><text fill="#222" font-family="NotoSansCJKtc-Regular, Noto Sans CJK TC" font-size="16"><tspan x="12" y="39">保</tspan> <tspan x="12" y="57">險</tspan> <tspan x="12" y="75">代</tspan> <tspan x="12" y="93">理</tspan> <tspan x="12" y="111">部</tspan></text></g><g transform="translate(600 700)"><mask id="av" fill="#fff"><use xlink:href="#au"/></mask><use fill="#FBECEA" xlink:href="#au"/><g fill="#F2F2F2" mask="url(#av)"><path d="M0 0h40v184H0z"/></g><text fill="#222" font-family="NotoSansCJKtc-Regular, Noto Sans CJK TC" font-size="16"><tspan x="12" y="39">電</tspan> <tspan x="12" y="57">話</tspan> <tspan x="12" y="75">客</tspan> <tspan x="12" y="93">服</tspan> <tspan x="12" y="111">中</tspan> <tspan x="12" y="129">心</tspan></text></g><g transform="translate(550 700)"><mask id="ax" fill="#fff"><use xlink:href="#aw"/></mask><use fill="#FBECEA" xlink:href="#aw"/><g fill="#F2F2F2" mask="url(#ax)"><path d="M0 0h40v184H0z"/></g><text fill="#222" font-family="NotoSansCJKtc-Regular, Noto Sans CJK TC" font-size="16"><tspan x="12" y="39">區</tspan> <tspan x="12" y="57">域</tspan> <tspan x="12" y="75">中</tspan> <tspan x="12" y="93">心</tspan></text></g><g transform="translate(550 924)"><mask id="az" fill="#fff"><use xlink:href="#ay"/></mask><use fill="#FBECEA" xlink:href="#ay"/><g fill="#F2F2F2" mask="url(#az)"><path d="M0 0h40v184H0z"/></g><text fill="#222" font-family="NotoSansCJKtc-Regular, Noto Sans CJK TC" font-size="16"><tspan x="12" y="39">國</tspan> <tspan x="12" y="57">內</tspan> <tspan x="12" y="75">分</tspan> <tspan x="12" y="93">行</tspan></text></g><g transform="translate(500 924)"><mask id="aB" fill="#fff"><use xlink:href="#aA"/></mask><use fill="#FBECEA" xlink:href="#aA"/><g fill="#F2F2F2" mask="url(#aB)"><path d="M0 0h40v184H0z"/></g><text fill="#222" font-family="NotoSansCJKtc-Regular, Noto Sans CJK TC" font-size="16"><tspan x="12" y="39">國</tspan> <tspan x="12" y="57">外</tspan> <tspan x="12" y="75">分</tspan> <tspan x="12" y="93">行</tspan></text></g><g transform="translate(450 924)"><mask id="aD" fill="#fff"><use xlink:href="#aC"/></mask><use fill="#FBECEA" xlink:href="#aC"/><g fill="#F2F2F2" mask="url(#aD)"><path d="M0 0h40v184H0z"/></g><text fill="#222" font-family="NotoSansCJKtc-Regular, Noto Sans CJK TC" font-size="16"><tspan x="12" y="39">國</tspan> <tspan x="12" y="57">外</tspan> <tspan x="12" y="75">代</tspan> <tspan x="12" y="93">表</tspan> <tspan x="12" y="111">人</tspan> <tspan x="12" y="129">辦</tspan> <tspan x="12" y="147">事</tspan> <tspan x="12" y="165">處</tspan></text></g><g transform="translate(400 924)"><mask id="aF" fill="#fff"><use xlink:href="#aE"/></mask><use fill="#FBECEA" xlink:href="#aE"/><g fill="#F2F2F2" mask="url(#aF)"><path d="M0 0h40v184H0z"/></g><text fill="#222" font-family="NotoSansCJKtc-Regular, Noto Sans CJK TC" font-size="16"><tspan x="12" y="39">營</tspan> <tspan x="12" y="57">業</tspan> <tspan x="12" y="75">部</tspan> <tspan x="12" y="93">＆</tspan> <tspan x="12" y="111">國</tspan> <tspan x="12" y="129">外</tspan> <tspan x="12" y="147">部</tspan></text></g><g transform="translate(350 924)"><mask id="aH" fill="#fff"><use xlink:href="#aG"/></mask><use fill="#FBECEA" xlink:href="#aG"/><g fill="#F2F2F2" mask="url(#aH)"><path d="M0 0h40v184H0z"/></g><text fill="#222" font-family="NotoSansCJKtc-Regular, Noto Sans CJK TC" font-size="16"><tspan x="12" y="39">國</tspan> <tspan x="12" y="57">際</tspan> <tspan x="12" y="75">金</tspan> <tspan x="12" y="93">融</tspan> <tspan x="12" y="111">業</tspan> <tspan x="12" y="129">務</tspan> <tspan x="12" y="147">分</tspan> <tspan x="12" y="165">行</tspan></text></g></g></svg>