<svg xmlns="http://www.w3.org/2000/svg" xmlns:xlink="http://www.w3.org/1999/xlink" width="890" height="1034"><defs><rect id="S" width="183" height="48" x="0" y="0" rx="24"/><rect id="a" width="183" height="48" x="0" y="0" rx="24"/><rect id="e" width="183" height="48" x="0" y="0" rx="24"/><rect id="g" width="183" height="48" x="0" y="0" rx="24"/><rect id="i" width="183" height="48" x="0" y="0" rx="24"/><rect id="k" width="183" height="48" x="0" y="0" rx="24"/><rect id="m" width="183" height="48" x="0" y="0" rx="24"/><rect id="o" width="183" height="48" x="0" y="0" rx="24"/><rect id="q" width="183" height="45.99" x="0" y="0" rx="22.995"/><rect id="s" width="183" height="48" x="0" y="0" rx="24"/><rect id="u" width="183" height="48" x="0" y="0" rx="24"/><rect id="w" width="183" height="48" x="0" y="0" rx="24"/><rect id="y" width="183" height="48" x="0" y="0" rx="24"/><rect id="A" width="183" height="48" x="0" y="0" rx="24"/><rect id="C" width="183" height="48" x="0" y="0" rx="24"/><rect id="E" width="183" height="48" x="0" y="0" rx="24"/><rect id="G" width="183" height="48" x="0" y="0" rx="24"/><rect id="I" width="183" height="48" x="0" y="0" rx="24"/><rect id="K" width="183" height="48" x="0" y="0" rx="24"/><rect id="M" width="183" height="48" x="0" y="0" rx="24"/><rect id="O" width="183" height="48" x="0" y="0" rx="24"/><rect id="Q" width="183" height="48" x="0" y="0" rx="24"/><rect id="c" width="183" height="48" x="0" y="0" rx="24"/><rect id="U" width="183" height="48" x="0" y="0" rx="24"/><rect id="W" width="183" height="48" x="0" y="0" rx="24"/><rect id="Y" width="183" height="48" x="0" y="0" rx="24"/><rect id="aa" width="183" height="48" x="0" y="0" rx="24"/><rect id="ac" width="183" height="48" x="0" y="0" rx="24"/><rect id="ae" width="183" height="48" x="0" y="0" rx="24"/><rect id="ag" width="198" height="48" x="0" y="0" rx="24"/><rect id="ai" width="183" height="48" x="0" y="0" rx="24"/><rect id="ak" width="183" height="48" x="0" y="0" rx="24"/><rect id="am" width="183" height="48" x="0" y="0" rx="24"/><rect id="ao" width="183" height="48" x="0" y="0" rx="24"/><rect id="aq" width="183" height="48" x="0" y="0" rx="24"/><rect id="as" width="183" height="48" x="0" y="0" rx="24"/><rect id="au" width="183" height="48" x="0" y="0" rx="24"/><rect id="aw" width="183" height="48" x="0" y="0" rx="24"/><rect id="ay" width="183" height="48" x="0" y="0" rx="24"/><rect id="aA" width="183" height="48" x="0" y="0" rx="24"/><rect id="aC" width="183" height="48" x="0" y="0" rx="24"/><rect id="aE" width="183" height="48" x="0" y="0" rx="24"/><rect id="aG" width="183" height="48" x="0" y="0" rx="24"/><rect id="aI" width="183" height="48" x="0" y="0" rx="24"/></defs><g fill="none" fill-rule="evenodd"><path d="M304 78h1v474h-1z" fill="#999"/><g transform="translate(213 78)"><mask id="b" fill="#fff"><use xlink:href="#a"/></mask><use fill="#FFF" xlink:href="#a"/><g fill="#B82B22" mask="url(#b)"><path d="M0 0h183v48H0z"/></g></g><text fill="#FFF" font-family="NotoSansCJKtc-Regular, Noto Sans CJK TC" font-size="14" transform="translate(213 78)"><tspan x="16" y="31">Shareholders Assembly</tspan></text><g transform="translate(213 136)"><mask id="d" fill="#fff"><use xlink:href="#c"/></mask><use fill="#FFF" xlink:href="#c"/><g fill="#B82B22" mask="url(#d)"><path d="M0 0h183v48H0z"/></g></g><text fill="#FFF" font-family="NotoSansCJKtc-Regular, Noto Sans CJK TC" font-size="14" transform="translate(213 136)"><tspan x="16" y="31">Board of Directors</tspan></text><g transform="translate(213 194)"><mask id="f" fill="#fff"><use xlink:href="#e"/></mask><use fill="#FFF" xlink:href="#e"/><g fill="#B82B22" mask="url(#f)"><path d="M0 0h183v48H0z"/></g></g><text fill="#FFF" font-family="NotoSansCJKtc-Regular, Noto Sans CJK TC" font-size="14" transform="translate(213 194)"><tspan x="16" y="22">Board of Managing</tspan> <tspan x="16" y="40">Directors</tspan></text><g transform="translate(213 252)"><mask id="h" fill="#fff"><use xlink:href="#g"/></mask><use fill="#FFF" xlink:href="#g"/><g fill="#B82B22" mask="url(#h)"><path d="M0 0h183v48H0z"/></g></g><text fill="#FFF" font-family="NotoSansCJKtc-Regular, Noto Sans CJK TC" font-size="14" transform="translate(213 252)"><tspan x="16" y="31">Chairman</tspan></text><g transform="translate(213 310)"><mask id="j" fill="#fff"><use xlink:href="#i"/></mask><use fill="#FFF" xlink:href="#i"/><g fill="#B82B22" mask="url(#j)"><path d="M0 0h183v48H0z"/></g></g><text fill="#FFF" font-family="NotoSansCJKtc-Regular, Noto Sans CJK TC" font-size="14" transform="translate(213 310)"><tspan x="16" y="31">Vice Chairman</tspan></text><g transform="translate(213 368)"><mask id="l" fill="#fff"><use xlink:href="#k"/></mask><use fill="#FFF" xlink:href="#k"/><g fill="#B82B22" mask="url(#l)"><path d="M0 0h183v48H0z"/></g></g><text fill="#FFF" font-family="NotoSansCJKtc-Regular, Noto Sans CJK TC" font-size="14" transform="translate(213 368)"><tspan x="16" y="31">President</tspan></text><g transform="translate(213 542)"><mask id="n" fill="#fff"><use xlink:href="#m"/></mask><use fill="#FFF" xlink:href="#m"/><g fill="#B82B22" mask="url(#n)"><path d="M0 0h183v48H0z"/></g></g><text fill="#FFF" font-family="NotoSansCJKtc-Regular, Noto Sans CJK TC" font-size="14" transform="translate(213 542)"><tspan x="16" y="22">(Senior/First) Executive</tspan> <tspan x="16" y="40"> Vice Presidents</tspan></text><g fill="#999"><path d="M198 160h1v291h-1zm-15 58h15v1h-15z"/><path d="M183 160h30v1h-30zm0 116h15v1h-15zm0 58h15v1h-15zm0 58h15v1h-15zm0 58h15v1h-15z"/></g><path d="M275 508.5h30" stroke="#999" stroke-dasharray="2 4" stroke-linecap="round" stroke-linejoin="round"/><g transform="translate(92 484)"><mask id="p" fill="#fff"><use xlink:href="#o"/></mask><use fill="#FFF" xlink:href="#o"/><g fill="#B82B22" mask="url(#p)"><path d="M0 0h183v48H0z"/></g></g><text fill="#FFF" font-family="NotoSansCJKtc-Regular, Noto Sans CJK TC" font-size="14" transform="translate(92 484)"><tspan x="16" y="31">Committees</tspan></text><g transform="translate(0 136)"><mask id="r" fill="#fff"><use xlink:href="#q"/></mask><use fill="#FFF" xlink:href="#q"/><g fill="#DF5C53" mask="url(#r)"><path d="M0 0h183v45.99H0z"/></g></g><text fill="#FFF" font-family="NotoSansCJKtc-Regular, Noto Sans CJK TC" font-size="14" transform="translate(0 136)"><tspan x="16" y="20.995">Remuneration</tspan> <tspan x="16" y="38.995">Committee</tspan></text><g transform="translate(0 194)"><mask id="t" fill="#fff"><use xlink:href="#s"/></mask><use fill="#FFF" xlink:href="#s"/><g fill="#DF5C53" mask="url(#t)"><path d="M0 0h183v48H0z"/></g></g><text fill="#FFF" font-family="NotoSansCJKtc-Regular, Noto Sans CJK TC" font-size="14" transform="translate(0 194)"><tspan x="16" y="31">Audit Committee</tspan></text><g transform="translate(0 252)"><mask id="v" fill="#fff"><use xlink:href="#u"/></mask><use fill="#FFF" xlink:href="#u"/><g fill="#DF5C53" mask="url(#v)"><path d="M0 0h183v48H0z"/></g></g><text fill="#FFF" font-family="NotoSansCJKtc-Regular, Noto Sans CJK TC" font-size="14" transform="translate(0 252)"><tspan x="16" y="22">Risk Management </tspan> <tspan x="16" y="40">Committee</tspan></text><g transform="translate(0 310)"><mask id="x" fill="#fff"><use xlink:href="#w"/></mask><use fill="#FFF" xlink:href="#w"/><g fill="#DF5C53" mask="url(#x)"><path d="M0 0h183v48H0z"/></g></g><text fill="#FFF" font-family="NotoSansCJKtc-Regular, Noto Sans CJK TC" font-size="14" transform="translate(0 310)"><tspan x="16" y="31">Nominating Committee</tspan></text><g transform="translate(0 368)"><mask id="z" fill="#fff"><use xlink:href="#y"/></mask><use fill="#FFF" xlink:href="#y"/><g fill="#DF5C53" mask="url(#z)"><path d="M0 0h183v48H0z"/></g></g><text fill="#FFF" font-family="NotoSansCJKtc-Regular, Noto Sans CJK TC" font-size="14" transform="translate(0 368)"><tspan x="16" y="31">Auditing Committee</tspan></text><g transform="translate(0 426)"><mask id="B" fill="#fff"><use xlink:href="#A"/></mask><use fill="#FFF" xlink:href="#A"/><g fill="#DF5C53" mask="url(#B)"><path d="M0 0h183v48H0z"/></g></g><text fill="#FFF" font-family="NotoSansCJKtc-Regular, Noto Sans CJK TC" font-size="14" transform="translate(0 426)"><tspan x="16" y="22">Secretarial Office</tspan> <tspan x="16" y="40">of Board</tspan></text><g fill="#999"><path d="M411 1011v-1h15v1zm0-986v-1h15v1zm0 406v-1h15v1zm0-290v-1h15v1zm0 406v-1h15v1zm-15 20v-1h15v1zm15-252v-1h15v1zm0 406v-1h15v1zm0 174v-1h15v1zm0-812v-1h15v1zm0 406v-1h15v1zm0-232v-1h15v1zm0 406v-1h15v1zm0 174v-1h15v1zm0-638v-1h15v1zm0 406v-1h15v1zm0-232v-1h15v1zm0 406v-1h15v1zm0 174v-1h15v1z"/><path d="M411 1011V24h1v987z"/></g><path d="M624 315V140h1v175zm0 348V372h1v291zm67-117V396h1v150z" fill="#999"/><g transform="translate(426)"><mask id="D" fill="#fff"><use xlink:href="#C"/></mask><use fill="#FFF" xlink:href="#C"/><g fill="#FBECEA" mask="url(#D)"><path d="M0 0h183v48H0z"/></g></g><text fill="#B82B22" font-family="NotoSansCJKtc-Regular, Noto Sans CJK TC" font-size="14" transform="translate(426)"><tspan x="16" y="22">Corporate Banking</tspan> <tspan x="16" y="40">Department</tspan></text><g transform="translate(426 58)"><mask id="F" fill="#fff"><use xlink:href="#E"/></mask><use fill="#FFF" xlink:href="#E"/><g fill="#FBECEA" mask="url(#F)"><path d="M0 0h183v48H0z"/></g></g><text fill="#B82B22" font-family="NotoSansCJKtc-Regular, Noto Sans CJK TC" font-size="14" transform="translate(426 58)"><tspan x="16" y="22">Personal Banking</tspan> <tspan x="16" y="40">Department</tspan></text><g transform="translate(426 116)"><mask id="H" fill="#fff"><use xlink:href="#G"/></mask><use fill="#FFF" xlink:href="#G"/><g fill="#FBECEA" mask="url(#H)"><path d="M0 0h183v48H0z"/></g></g><text fill="#B82B22" font-family="NotoSansCJKtc-Regular, Noto Sans CJK TC" font-size="14" transform="translate(426 116)"><tspan x="16" y="22">Customer Finance</tspan> <tspan x="16" y="40">General Department</tspan></text><g transform="translate(426 290)"><mask id="J" fill="#fff"><use xlink:href="#I"/></mask><use fill="#FFF" xlink:href="#I"/><g fill="#FBECEA" mask="url(#J)"><path d="M0 0h183v48H0z"/></g></g><text fill="#B82B22" font-family="NotoSansCJKtc-Regular, Noto Sans CJK TC" font-size="14" transform="translate(426 290)"><tspan x="16" y="22">Non-Performing</tspan> <tspan x="16" y="40">Assets Management</tspan></text><g transform="translate(426 348)"><mask id="L" fill="#fff"><use xlink:href="#K"/></mask><use fill="#FFF" xlink:href="#K"/><g fill="#FBECEA" mask="url(#L)"><path d="M0 0h183v48H0z"/></g></g><text fill="#B82B22" font-family="NotoSansCJKtc-Regular, Noto Sans CJK TC" font-size="14" transform="translate(426 348)"><tspan x="16" y="22">Channel Management</tspan> <tspan x="16" y="40">Department</tspan></text><g transform="translate(426 406)"><mask id="N" fill="#fff"><use xlink:href="#M"/></mask><use fill="#FFF" xlink:href="#M"/><g fill="#FBECEA" mask="url(#N)"><path d="M0 0h183v48H0z"/></g></g><text fill="#B82B22" font-family="NotoSansCJKtc-Regular, Noto Sans CJK TC" font-size="14" transform="translate(426 406)"><tspan x="16" y="22">Digital Banking</tspan> <tspan x="16" y="40">Department</tspan></text><g transform="translate(426 464)"><mask id="P" fill="#fff"><use xlink:href="#O"/></mask><use fill="#FFF" xlink:href="#O"/><g fill="#FBECEA" mask="url(#P)"><path d="M0 0h183v48H0z"/></g></g><text fill="#B82B22" font-family="NotoSansCJKtc-Regular, Noto Sans CJK TC" font-size="14" transform="translate(426 464)"><tspan x="16" y="22">Information Technology</tspan> <tspan x="16" y="40">General Department</tspan></text><g transform="translate(426 522)"><mask id="R" fill="#fff"><use xlink:href="#Q"/></mask><use fill="#FFF" xlink:href="#Q"/><g fill="#FBECEA" mask="url(#R)"><path d="M0 0h183v48H0z"/></g></g><text fill="#B82B22" font-family="NotoSansCJKtc-Regular, Noto Sans CJK TC" font-size="14" transform="translate(426 522)"><tspan x="16" y="22">Compliance </tspan> <tspan x="16" y="40">Department</tspan></text><g transform="translate(426 580)"><mask id="T" fill="#fff"><use xlink:href="#S"/></mask><use fill="#FFF" xlink:href="#S"/><g fill="#FBECEA" mask="url(#T)"><path d="M0 0h183v48H0z"/></g></g><text fill="#B82B22" font-family="NotoSansCJKtc-Regular, Noto Sans CJK TC" font-size="14" transform="translate(426 580)"><tspan x="16" y="22">Legal Affairs</tspan> <tspan x="16" y="40">Department</tspan></text><g transform="translate(426 638)"><mask id="V" fill="#fff"><use xlink:href="#U"/></mask><use fill="#FFF" xlink:href="#U"/><g fill="#FBECEA" mask="url(#V)"><path d="M0 0h183v48H0z"/></g></g><text fill="#B82B22" font-family="NotoSansCJKtc-Regular, Noto Sans CJK TC" font-size="14" transform="translate(426 638)"><tspan x="16" y="22">Risk Management</tspan> <tspan x="16" y="40">Department</tspan></text><g transform="translate(426 696)"><mask id="X" fill="#fff"><use xlink:href="#W"/></mask><use fill="#FFF" xlink:href="#W"/><g fill="#FBECEA" mask="url(#X)"><path d="M0 0h183v48H0z"/></g></g><text fill="#B82B22" font-family="NotoSansCJKtc-Regular, Noto Sans CJK TC" font-size="14" transform="translate(426 696)"><tspan x="16" y="31">Operation Centers</tspan></text><g transform="translate(426 754)"><mask id="Z" fill="#fff"><use xlink:href="#Y"/></mask><use fill="#FFF" xlink:href="#Y"/><g fill="#FBECEA" mask="url(#Z)"><path d="M0 0h183v48H0z"/></g></g><text fill="#B82B22" font-family="NotoSansCJKtc-Regular, Noto Sans CJK TC" font-size="14" transform="translate(426 754)"><tspan x="16" y="22">Information Security</tspan> <tspan x="16" y="40">Department</tspan></text><g transform="translate(426 986)"><mask id="ab" fill="#fff"><use xlink:href="#aa"/></mask><use fill="#FFF" xlink:href="#aa"/><g fill="#FBECEA" mask="url(#ab)"><path d="M0 0h183v48H0z"/></g></g><text fill="#B82B22" font-family="NotoSansCJKtc-Regular, Noto Sans CJK TC" font-size="14" transform="translate(426 986)"><tspan x="16" y="22">Human Resources</tspan> <tspan x="16" y="40">Department</tspan></text><g transform="translate(426 928)"><mask id="ad" fill="#fff"><use xlink:href="#ac"/></mask><use fill="#FFF" xlink:href="#ac"/><g fill="#FBECEA" mask="url(#ad)"><path d="M0 0h183v48H0z"/></g></g><text fill="#B82B22" font-family="NotoSansCJKtc-Regular, Noto Sans CJK TC" font-size="14" transform="translate(426 928)"><tspan x="16" y="31">Head Office</tspan></text><g transform="translate(426 812)"><mask id="af" fill="#fff"><use xlink:href="#ae"/></mask><use fill="#FFF" xlink:href="#ae"/><g fill="#FBECEA" mask="url(#af)"><path d="M0 0h183v48H0z"/></g></g><text fill="#B82B22" font-family="NotoSansCJKtc-Regular, Noto Sans CJK TC" font-size="14" transform="translate(426 812)"><tspan x="16" y="31">Accounting Department</tspan></text><g transform="translate(426 870)"><mask id="ah" fill="#fff"><use xlink:href="#ag"/></mask><use fill="#FFF" xlink:href="#ag"/><g fill="#FBECEA" mask="url(#ah)"><path d="M0 0h198v48H0z"/></g></g><text fill="#B82B22" font-family="NotoSansCJKtc-Regular, Noto Sans CJK TC" font-size="14" transform="translate(426 870)"><tspan x="17.311" y="22">Administration </tspan> <tspan x="17.311" y="40">Management Department</tspan></text><g transform="translate(426 174)"><mask id="aj" fill="#fff"><use xlink:href="#ai"/></mask><use fill="#FFF" xlink:href="#ai"/><g fill="#FBECEA" mask="url(#aj)"><path d="M0 0h183v48H0z"/></g></g><text fill="#B82B22" font-family="NotoSansCJKtc-Regular, Noto Sans CJK TC" font-size="14" transform="translate(426 174)"><tspan x="16" y="31">Deposits Department</tspan></text><g transform="translate(426 232)"><mask id="al" fill="#fff"><use xlink:href="#ak"/></mask><use fill="#FFF" xlink:href="#ak"/><g fill="#FBECEA" mask="url(#al)"><path d="M0 0h183v48H0z"/></g></g><text fill="#B82B22" font-family="NotoSansCJKtc-Regular, Noto Sans CJK TC" font-size="14" transform="translate(426 232)"><tspan x="16" y="31">Treasury Department</tspan></text><g transform="translate(639 58)"><mask id="an" fill="#fff"><use xlink:href="#am"/></mask><use fill="#FFF" xlink:href="#am"/><g fill="#F2F2F2" mask="url(#an)"><path d="M0 0h183v48H0z"/></g></g><text fill="#222" font-family="NotoSansCJKtc-Regular, Noto Sans CJK TC" font-size="14" transform="translate(639 58)"><tspan x="16" y="31">Credit Card Center</tspan></text><g transform="translate(639 116)"><mask id="ap" fill="#fff"><use xlink:href="#ao"/></mask><use fill="#FFF" xlink:href="#ao"/><g fill="#F2F2F2" mask="url(#ap)"><path d="M0 0h183v48H0z"/></g></g><text fill="#222" font-family="NotoSansCJKtc-Regular, Noto Sans CJK TC" font-size="14" transform="translate(639 116)"><tspan x="16" y="31">Trust Department</tspan></text><g transform="translate(639 290)"><mask id="ar" fill="#fff"><use xlink:href="#aq"/></mask><use fill="#FFF" xlink:href="#aq"/><g fill="#F2F2F2" mask="url(#ar)"><path d="M0 0h183v48H0z"/></g></g><text fill="#222" font-family="NotoSansCJKtc-Regular, Noto Sans CJK TC" font-size="14" transform="translate(639 290)"><tspan x="16" y="31">Call Center</tspan></text><g transform="translate(639 348)"><mask id="at" fill="#fff"><use xlink:href="#as"/></mask><use fill="#FFF" xlink:href="#as"/><g fill="#F2F2F2" mask="url(#at)"><path d="M0 0h183v48H0z"/></g></g><text fill="#222" font-family="NotoSansCJKtc-Regular, Noto Sans CJK TC" font-size="14" transform="translate(639 348)"><tspan x="16" y="31">Regional Centers</tspan></text><g transform="translate(707 406)"><mask id="av" fill="#fff"><use xlink:href="#au"/></mask><use fill="#FFF" xlink:href="#au"/><g fill="#F2F2F2" mask="url(#av)"><path d="M0 0h183v48H0z"/></g></g><text fill="#222" font-family="NotoSansCJKtc-Regular, Noto Sans CJK TC" font-size="14" transform="translate(707 406)"><tspan x="16" y="31">Domestic Branches</tspan></text><g transform="translate(707 406)"><mask id="ax" fill="#fff"><use xlink:href="#aw"/></mask><use fill="#FFF" xlink:href="#aw"/><g fill="#F2F2F2" mask="url(#ax)"><path d="M0 0h183v48H0z"/></g></g><text fill="#222" font-family="NotoSansCJKtc-Regular, Noto Sans CJK TC" font-size="14" transform="translate(707 406)"><tspan x="16" y="31">Domestic Branches</tspan></text><g transform="translate(707 464)"><mask id="az" fill="#fff"><use xlink:href="#ay"/></mask><use fill="#FFF" xlink:href="#ay"/><g fill="#F2F2F2" mask="url(#az)"><path d="M0 0h183v48H0z"/></g></g><text fill="#222" font-family="NotoSansCJKtc-Regular, Noto Sans CJK TC" font-size="14" transform="translate(707 464)"><tspan x="16" y="31">Overseas Branches</tspan></text><g transform="translate(707 522)"><mask id="aB" fill="#fff"><use xlink:href="#aA"/></mask><use fill="#FFF" xlink:href="#aA"/><g fill="#F2F2F2" mask="url(#aB)"><path d="M0 0h183v48H0z"/></g></g><text fill="#222" font-family="NotoSansCJKtc-Regular, Noto Sans CJK TC" font-size="14" transform="translate(707 522)"><tspan x="16" y="22">Overseas </tspan> <tspan x="16" y="40">Representative Offices</tspan></text><g transform="translate(707 580)"><mask id="aD" fill="#fff"><use xlink:href="#aC"/></mask><use fill="#FFF" xlink:href="#aC"/><g fill="#F2F2F2" mask="url(#aD)"><path d="M0 0h183v48H0z"/></g></g><text fill="#222" font-family="NotoSansCJKtc-Regular, Noto Sans CJK TC" font-size="14" transform="translate(707 580)"><tspan x="16" y="22">Business &amp; International</tspan> <tspan x="16" y="40">Departments</tspan></text><g transform="translate(707 638)"><mask id="aF" fill="#fff"><use xlink:href="#aE"/></mask><use fill="#FFF" xlink:href="#aE"/><g fill="#F2F2F2" mask="url(#aF)"><path d="M0 0h183v48H0z"/></g></g><text fill="#222" font-family="NotoSansCJKtc-Regular, Noto Sans CJK TC" font-size="14" transform="translate(707 638)"><tspan x="16" y="31">Off-Shore Banking Unit</tspan></text><g transform="translate(639 174)"><mask id="aH" fill="#fff"><use xlink:href="#aG"/></mask><use fill="#FFF" xlink:href="#aG"/><g fill="#F2F2F2" mask="url(#aH)"><path d="M0 0h183v48H0z"/></g></g><text fill="#222" font-family="NotoSansCJKtc-Regular, Noto Sans CJK TC" font-size="14" transform="translate(639 174)"><tspan x="16" y="22">Wealth Management</tspan> <tspan x="16" y="40">Department</tspan></text><g transform="translate(639 232)"><mask id="aJ" fill="#fff"><use xlink:href="#aI"/></mask><use fill="#FFF" xlink:href="#aI"/><g fill="#F2F2F2" mask="url(#aJ)"><path d="M0 0h183v48H0z"/></g></g><text fill="#222" font-family="NotoSansCJKtc-Regular, Noto Sans CJK TC" font-size="14" transform="translate(639 232)"><tspan x="16" y="22">Insurance Agency</tspan> <tspan x="16" y="40">Department</tspan></text><path d="M609 82v-1h30v1zm0 58v-1h30v1zm0 233v-1h30v1zm15 231v1h83v-1zm0 58v1h83v-1zm68-232v-1h15v1zm0 59v-1h15v1zm0 57v-1h15v1zm-68-347v-1h15v1zm0 57v-1h15v1zm0 59v-1h15v1z" fill="#999"/></g></svg>