<svg xmlns="http://www.w3.org/2000/svg" width="24" height="24"><g fill="none" fill-rule="evenodd" transform="translate(0 -6)"><rect width="22" height="22" x="1" y="7" stroke="#B82B22" stroke-width="2" rx="4"/><g fill="#B82B22" fill-rule="nonzero"><path d="M17.834 9.875H6.167a2.297 2.297 0 00-2.292 2.292v11.666a2.297 2.297 0 002.292 2.292h11.667a2.297 2.297 0 002.291-2.292V12.167a2.297 2.297 0 00-2.291-2.292zm-11.667 1.25h11.667c.57 0 1.041.47 1.041 1.042v11.666c0 .572-.47 1.042-1.041 1.042H6.167c-.572 0-1.042-.47-1.042-1.042V12.167c0-.572.47-1.042 1.042-1.042z"/><path d="M12 12.375a5.626 5.626 0 10.002 11.252A5.626 5.626 0 0012 12.375zm0 1.25a4.375 4.375 0 110 8.75 4.375 4.375 0 010-8.75z"/><path d="M12 15.813a2.188 2.188 0 100 4.377 2.188 2.188 0 000-4.378zm0 1.25a.938.938 0 110 1.878.938.938 0 010-1.879zm0-4.688c.325 0 .592.248.622.565l.003.06v1.25a.625.625 0 01-1.247.06l-.003-.06V13c0-.345.28-.625.625-.625zm0 8.75c.325 0 .592.248.622.565l.003.06V23a.625.625 0 01-1.247.06l-.003-.06v-1.25c0-.345.28-.625.625-.625zm-3.978-7.103a.626.626 0 01.837-.042l.047.042.885.885a.625.625 0 01-.837.926l-.047-.042-.885-.885a.625.625 0 010-.884zm6.188 6.188a.623.623 0 01.836-.043l.048.043.884.884a.625.625 0 01-.837.927l-.047-.043-.884-.884a.625.625 0 010-.884zm-5.303 0a.623.623 0 01.926.836l-.042.047-.885.885a.625.625 0 01-.926-.837l.042-.047.885-.885zm6.187-6.188a.625.625 0 01.927.837l-.043.047-.884.884a.625.625 0 01-.927-.836l.043-.048.884-.884zM8.25 17.375a.625.625 0 01.06 1.247l-.06.003H7a.625.625 0 01-.06-1.247l.06-.003h1.25zm8.75 0a.625.625 0 01.06 1.247l-.06.003h-1.25a.625.625 0 01-.06-1.247l.06-.003H17z"/></g></g></svg>