<svg xmlns="http://www.w3.org/2000/svg" width="24" height="24"><g fill="none" fill-rule="evenodd" transform="translate(-6 -1)"><rect width="22" height="22" x="7" y="2" stroke="#CF9245" stroke-width="2" rx="4"/><path fill="#CF9245" fill-rule="nonzero" d="M13.641 17l2.82-7.874h-1.686l-1.929 5.828-1.992-5.828H9.13L11.944 17h1.697zm5.173 0V9.126h-1.59V17h1.59zm3.104 0v-2.97h1.037c.72 0 1.27-.038 1.649-.113.28-.06.554-.185.824-.373.27-.188.493-.447.669-.776.175-.33.263-.736.263-1.22 0-.626-.152-1.137-.456-1.533a2.06 2.06 0 00-1.134-.77c-.293-.08-.924-.119-1.89-.119h-2.552V17h1.59zm.87-4.308h-.87v-2.234h.897c.502.003.84.02 1.015.054.258.046.471.163.64.349.168.186.252.422.252.709 0 .233-.06.437-.18.612-.12.176-.286.304-.497.387-.211.082-.63.123-1.257.123z"/></g></svg>