<svg xmlns="http://www.w3.org/2000/svg" width="92" height="92"><g fill="none" fill-rule="evenodd" stroke="#B82B22"><path stroke-linecap="round" stroke-linejoin="round" stroke-width="2" d="M63.25 28.79C53.722 28.79 46 36.934 46 45.964c0 18.037 17.25 28.81 17.25 28.81S80.5 64.003 80.5 45.966c0-9.03-7.723-17.176-17.25-17.176z"/><path stroke-linecap="round" stroke-linejoin="round" stroke-width="2" d="M69 44.123a5.75 5.75 0 11-11.5 0 5.75 5.75 0 0111.5 0z"/><path stroke-width="2" d="M65.145 73.416c-.301 3.949-3.625 7.084-7.646 7.084H19.166c-4.215 0-7.667-3.45-7.667-7.666V19.167c0-4.217 3.452-7.667 7.667-7.667h38.333c4.217 0 7.667 3.45 7.667 7.667v9.622"/><path stroke-linecap="round" stroke-linejoin="round" stroke-width="2" d="M46.273 49.833H22.999A3.846 3.846 0 0119.166 46V23a3.846 3.846 0 013.833-3.833h30.667A3.843 3.843 0 0157.499 23v6.816"/><path stroke-linecap="round" stroke-linejoin="round" stroke-width="1.75" d="M43.132 28.524s-1.219-.417-4.197-.408c-3.06.01-4.175 1.486-4.175 2.975 0 1.491 1.79 2.783 3.579 3.23 1.79.446 4.776 1.728 4.778 3.743 0 2.052-1.535 3.628-4.784 3.626-3.205 0-4.8-1.242-4.8-1.242m5.551-15.531V34.5m-.745 0v9.583"/><path stroke-linecap="round" stroke-linejoin="round" stroke-width="2" d="M38.333 65.167H23a3.845 3.845 0 01-3.834-3.834A3.845 3.845 0 0123 57.5h15.333a3.845 3.845 0 013.833 3.833 3.845 3.845 0 01-3.833 3.834z"/></g></svg>