<svg xmlns="http://www.w3.org/2000/svg" width="92" height="92"><g fill="none" fill-rule="evenodd" stroke="#B82B22" stroke-linejoin="round" stroke-width="2"><path d="M63.25 53.667c0 14.82-12.014 26.833-26.833 26.833-14.82 0-26.834-12.014-26.834-26.833 0-14.82 12.014-26.834 26.834-26.834S63.25 38.847 63.25 53.667z"/><path stroke-linecap="round" d="M44.095 44.106s-1.949-.67-6.718-.654c-4.893.016-6.68 2.377-6.68 4.761 0 2.385 2.866 4.45 5.73 5.168 2.861.714 7.64 2.765 7.642 5.987.001 3.285-2.454 5.806-7.652 5.804-5.129-.002-7.68-1.988-7.68-1.988m8.879-24.851v15.334m-1.19 0V69"/><path d="M42.428 27.498c1.51-9.077 9.399-15.999 18.906-15.999C71.919 11.5 80.5 20.08 80.5 30.666c0 10.036-7.71 18.268-17.53 19.098"/><path stroke-linecap="round" d="M66.818 23.838s-1.393-.48-4.797-.468c-3.498.011-4.772 1.698-4.772 3.402 0 1.702 2.047 3.178 4.092 3.69 2.043.511 5.456 1.976 5.458 4.276.002 2.348-1.752 4.15-5.466 4.147a12.415 12.415 0 01-2.948-.343m3.805-18.828v10.952m-.85.001v10.952M12.27 22.316l4.98 2.875m4.98-2.875l-4.98 2.875m0-.001l.107-6.002c0-4.217 3.45-7.667 7.667-7.667H36.52m33.25 46.942l4.98-2.875m4.98 2.875l-4.98-2.875M61.08 74.857l6.004-.108c4.216 0 7.666-3.448 7.666-7.666V55.589"/></g></svg>