<svg xmlns="http://www.w3.org/2000/svg" width="92" height="92"><g fill="none" fill-rule="evenodd" stroke="#B82B22"><path stroke-width="1.897" d="M66.985 65.186v9.465c0 4.218-3.45 7.666-7.667 7.666H20.985c-4.217 0-7.667-3.448-7.667-7.666V20.984c0-4.217 3.45-7.667 7.667-7.667h38.333c4.217 0 7.667 3.45 7.667 7.667v28.75"/><path stroke-linecap="round" stroke-linejoin="round" stroke-width="2" d="M24.818 70.832h30.667"/><path stroke-width="2" d="M32.487 36.318H24.82a1.922 1.922 0 01-1.916-1.916v-7.667c0-1.054.862-1.917 1.916-1.917h7.667c1.054 0 1.917.863 1.917 1.917v7.667a1.922 1.922 0 01-1.917 1.916zm22.996-3.833H51.65a1.922 1.922 0 01-1.917-1.917v-3.833c0-1.054.863-1.917 1.917-1.917h3.833c1.054 0 1.917.863 1.917 1.917v3.833a1.922 1.922 0 01-1.917 1.917zM28.695 59.318H24.86a1.922 1.922 0 01-1.916-1.916v-3.834c0-1.054.862-1.916 1.916-1.916h3.834c1.054 0 1.916.862 1.916 1.916v3.834a1.922 1.922 0 01-1.916 1.916z"/><path stroke-linecap="round" stroke-linejoin="round" stroke-width="2" d="M55.483 59.318h-11.5m-1.916-32.583v15.333m-17.25 0h17.25m7.666-1.916H57.4m-7.667-1.917v15.333m5.75-3.833h-17.25m0 7.667v-7.667m18.428 25.014c-1.826-1.054 2.793-12.502 2.793-12.502l14.971-25.931a3.844 3.844 0 015.236-1.403 3.844 3.844 0 011.403 5.236L66.094 66.08s-7.606 9.723-9.433 8.669z"/></g></svg>