<svg xmlns="http://www.w3.org/2000/svg" width="92" height="92"><g fill="none" fill-rule="evenodd" stroke="#B82B22"><path stroke-linecap="round" stroke-linejoin="round" stroke-width="2" d="M53.914 61.387h16.71m-22.377 7.666h22.377M59.155 24.94s-1.95-.67-6.716-.654c-4.895.015-6.681 2.374-6.681 4.76 0 2.385 2.865 4.451 5.728 5.168 2.862.715 7.64 2.766 7.642 5.988.002 2.57-1.5 4.67-4.644 5.464m-1.808-26.5V34.5m-1.19 0v4.573"/><path stroke-width="2" d="M24.643 30.102V19.166c0-4.217 3.45-7.667 7.666-7.667h38.334c4.216 0 7.666 3.45 7.666 7.667v53.667c0 4.218-3.45 7.666-7.666 7.666H32.309c-4 0-7.31-3.103-7.64-7.022"/><path stroke-width="1.714" d="M55.31 51.79c0 12.701-10.299 23-23 23-12.702 0-23-10.299-23-23 0-12.702 10.298-23 23-23 12.701 0 23 10.298 23 23z"/><path stroke-linecap="round" stroke-linejoin="round" stroke-width="2" d="M41.86 42.238l-19.133 19.13m19.134-1.961a3.834 3.834 0 11-7.666 0 3.834 3.834 0 017.666 0zM30.393 44.112a3.835 3.835 0 01-3.834 3.833 3.834 3.834 0 113.833-3.833z"/></g></svg>