<svg xmlns="http://www.w3.org/2000/svg" width="92" height="92"><g fill="none" fill-rule="evenodd" stroke="#B82B22" stroke-width="2"><path stroke-linejoin="round" d="M29.94 57.472a24.93 24.93 0 01-1.189-7.624c0-13.762 11.157-24.917 24.917-24.917 13.761 0 24.916 11.155 24.916 24.917a24.81 24.81 0 01-5.378 15.465"/><path stroke-linecap="round" stroke-linejoin="round" d="M60.799 40.97s-1.812-.621-6.237-.608c-4.545.014-6.203 2.206-6.203 4.422 0 2.214 2.659 4.132 5.317 4.797 2.657.665 7.096 2.569 7.098 5.56.002 2.642-1.708 4.752-5.302 5.268m-.689-24.8v14.239m-1.106 0v8.155"/><path d="M61.335 15.28c0 4.234-3.433 9.65-7.667 9.65s-7.666-5.416-7.666-9.65 3.432.073 7.666.073 7.667-4.307 7.667-.073z"/><path stroke-linecap="round" stroke-linejoin="round" d="M24.916 61.304a3.845 3.845 0 013.834-3.833h23a3.845 3.845 0 013.833 3.833 3.845 3.845 0 01-3.833 3.834h-11.5 30.668c4.219 0 7.667 1.537 7.667 5.754 0 8.425-18.785 9.58-23.002 9.58h-23c-4.217 0-7.667-3.45-7.667-7.668"/><path d="M19.166 80.471c-3.162 0-5.75-.67-5.75-3.833V61.304c0-3.162 2.588-3.833 5.75-3.833 3.163 0 5.75.67 5.75 3.833v15.334c0 3.162-2.587 3.833-5.75 3.833z"/></g></svg>