<svg xmlns="http://www.w3.org/2000/svg" width="92" height="92"><g fill="none" fill-rule="evenodd" stroke="#B82B22" stroke-width="2"><path stroke-linecap="round" stroke-linejoin="round" d="M23 80.5h46m-23-9.583V80.5m26.833-57.426c4.217 0 7.667 3.45 7.667 7.667v32.583c0 4.217-3.45 7.667-7.667 7.667H19.167c-4.217 0-7.667-3.45-7.667-7.667V30.741c0-4.217 3.45-7.667 7.667-7.667"/><path d="M11.5 61.333h69m-61.33 0V19.167c0-4.217 3.45-7.667 7.666-7.667H65.17c4.216 0 7.666 3.45 7.666 7.667v42.166"/><path stroke-linecap="round" stroke-linejoin="round" d="M61.336 32.583L42.465 51.455M30.67 39.66l11.795 11.796"/><path d="M19.167 23h53.666"/><path stroke-linecap="round" stroke-linejoin="round" d="M24.917 17.25h3.833m5.75 0h3.833m5.75 0h3.834"/></g></svg>