<svg xmlns="http://www.w3.org/2000/svg" width="40" height="40"><g fill="none" fill-rule="evenodd"><path fill="#E73322" d="M40 20c0 11.046-8.954 20-20 20S0 31.046 0 20 8.954 0 20 0s20 8.954 20 20"/><path fill="#FFF" d="M17.534 23.098l-.001-6.711 6.454 3.367-6.453 3.344zm14.17-7.874s-.233-1.646-.95-2.37c-.908-.952-1.926-.957-2.392-1.012-3.343-.242-8.357-.242-8.357-.242h-.01s-5.014 0-8.357.242c-.466.055-1.484.06-2.393 1.011-.716.725-.949 2.371-.949 2.371s-.239 1.933-.239 3.866v1.812c0 1.933.239 3.866.239 3.866s.233 1.646.95 2.371c.908.951 2.101.922 2.633 1.021 1.911.183 8.121.24 8.121.24s5.02-.008 8.362-.25c.466-.055 1.484-.06 2.393-1.011.716-.725.95-2.371.95-2.371s.238-1.933.238-3.866V19.09c0-1.933-.239-3.866-.239-3.866z"/></g></svg>