<svg xmlns="http://www.w3.org/2000/svg" width="376" height="426" viewBox="0 0 376 426"><defs><style>.a{fill:#eceef8;}.b{fill:#b82b22;}.c{fill:#d83e2a;}.d{fill:#ff5f45;}.e{fill:#c9caca;}.f{fill:#f04722;}.g{fill:#e23214;}.h{fill:#ba0d00;}.i{fill:#898989;}.j{fill:#f9be00;}</style></defs><g transform="translate(-415.628 -230)"><g transform="translate(451.497 270.609)"><circle class="a" cx="137.857" cy="137.857" r="137.857" transform="translate(0)"/></g><g transform="translate(415.628 471.314)"><path class="b" d="M1104.623,2308.319v82.752a25.942,25.942,0,0,1-25.942,25.942H953.407a19.284,19.284,0,0,0-19.285,19.285v53.378a3.328,3.328,0,0,1-3.328,3.328h0a3.328,3.328,0,0,1-3.328-3.328V2436.3a25.94,25.94,0,0,1,25.94-25.94h125.276a19.284,19.284,0,0,0,19.283-19.284v-82.755Z" transform="translate(-927.467 -2308.319)"/></g><g transform="translate(578.598 489.219)"><path class="c" d="M1747.269,2395.774v13.262a5.733,5.733,0,0,1-5.733,5.733H1731.37a5.717,5.717,0,0,1-4.362-2.013v0a5.707,5.707,0,0,1-1.37-3.718v-13.262Z" transform="translate(-1725.638 -2395.774)"/></g><g transform="translate(563.692 452.481)"><g transform="translate(3.606 5.832)"><path class="d" d="M1714.541,2244.411v26.49a7.408,7.408,0,0,1-7.409,7.407h-29.414a7.408,7.408,0,0,1-7.407-7.407v-26.49Z" transform="translate(-1670.311 -2244.411)"/></g><g transform="translate(0 0)"><rect class="d" width="51.442" height="5.832" rx="2.916" transform="translate(51.442 5.832) rotate(180)"/></g></g><g transform="translate(575.24 430.694)"><path class="e" d="M1716.721,2130.926h-7.538V2112.9a3.769,3.769,0,0,1,3.769-3.769h0a3.769,3.769,0,0,1,3.769,3.769Z" transform="translate(-1709.183 -2109.129)"/></g><g transform="translate(596.048 430.694)"><path class="e" d="M3.769,0h0A3.769,3.769,0,0,1,7.538,3.769V21.8a0,0,0,0,1,0,0H0a0,0,0,0,1,0,0V3.769A3.769,3.769,0,0,1,3.769,0Z" transform="translate(0 0)"/></g><g transform="translate(567.299 458.313)"><path class="f" d="M1714.541,2244.411v26.49a7.408,7.408,0,0,1-7.409,7.407h-29.414a7.408,7.408,0,0,1-7.407-7.407c31.76-2.207,34.677-26.49,34.677-26.49Z" transform="translate(-1670.311 -2244.411)"/></g><g transform="translate(567.299 458.318)"><rect class="g" width="44.23" height="2.136" transform="translate(0)"/></g><g transform="translate(583.469 469.508)"><path class="c" d="M1777.554,2299.233v15.293a7.408,7.408,0,0,1-7.409,7.407H1749.5C1770.348,2321.934,1777.554,2299.233,1777.554,2299.233Z" transform="translate(-1749.496 -2299.233)"/></g><g transform="translate(578.598 492.205)"><rect class="h" width="21.63" height="1.384" transform="translate(0)"/></g><g transform="translate(575.24 449.849)"><rect class="i" width="7.538" height="2.639" transform="translate(0 0)"/></g><g transform="translate(596.048 449.849)"><rect class="i" width="7.538" height="2.639" transform="translate(0 0)"/></g><g transform="translate(579.968 492.203)"><path class="h" d="M1752.605,2410.384v10.278a5.733,5.733,0,0,1-5.733,5.733h-10.166a5.717,5.717,0,0,1-4.362-2.014h0c15.846,1.944,18.266-14,18.266-14Z" transform="translate(-1732.344 -2410.384)"/></g><g transform="translate(586.035 230)"><path class="b" d="M1967.893,1129.488h0a3.328,3.328,0,0,1-3.328,3.328H1788.242a19.286,19.286,0,0,0-19.286,19.286v87.451H1762.3V1152.1a25.94,25.94,0,0,1,25.942-25.942h176.323A3.328,3.328,0,0,1,1967.893,1129.488Z" transform="translate(-1762.3 -1126.16)"/></g><g transform="translate(578.598 316.883)"><path class="c" d="M1747.269,1570.695v-13.262a5.733,5.733,0,0,0-5.733-5.733H1731.37a5.718,5.718,0,0,0-4.362,2.014v0a5.707,5.707,0,0,0-1.37,3.718v13.262Z" transform="translate(-1725.638 -1551.7)"/></g><g transform="translate(563.692 332.888)"><g transform="translate(0 0)"><g transform="translate(3.606)"><path class="d" d="M1714.541,1663.992V1637.5a7.408,7.408,0,0,0-7.409-7.407h-29.414a7.408,7.408,0,0,0-7.407,7.407v26.49Z" transform="translate(-1670.311 -1630.095)"/></g><g transform="translate(0 33.897)"><rect class="d" width="51.442" height="5.832" rx="2.916" transform="translate(51.442 5.832) rotate(180)"/></g></g></g><g transform="translate(567.299 332.888)"><path class="f" d="M1714.541,1663.992V1637.5a7.408,7.408,0,0,0-7.409-7.407h-29.414a7.408,7.408,0,0,0-7.407,7.407c31.76,2.207,34.677,26.49,34.677,26.49Z" transform="translate(-1670.311 -1630.095)"/></g><g transform="translate(567.299 364.642)"><rect class="g" width="44.23" height="2.136" transform="translate(0 0)"/></g><g transform="translate(583.469 332.889)"><path class="c" d="M1777.554,1652.8V1637.5a7.408,7.408,0,0,0-7.409-7.407H1749.5C1770.348,1630.095,1777.554,1652.8,1777.554,1652.8Z" transform="translate(-1749.496 -1630.095)"/></g><g transform="translate(578.598 331.506)"><rect class="h" width="21.63" height="1.384" transform="translate(0)"/></g><g transform="translate(579.968 316.883)"><path class="h" d="M1752.605,1567.711v-10.278a5.733,5.733,0,0,0-5.733-5.733h-10.166a5.717,5.717,0,0,0-4.362,2.014v0c15.846-1.944,18.266,14,18.266,14Z" transform="translate(-1732.344 -1551.7)"/></g><g transform="translate(515.82 360.881)"><g transform="translate(0 0)"><g transform="translate(0 31.077)"><path class="j" d="M1433.824,1923.186h-13.7a1.885,1.885,0,0,1,0-3.77h13.7a1.885,1.885,0,1,1,0,3.77Z" transform="translate(-1418.244 -1919.416)"/></g><g transform="translate(31.077)"><path class="j" d="M1572.3,1784.716a1.885,1.885,0,0,1-1.885-1.885v-13.7a1.885,1.885,0,1,1,3.77,0v13.7A1.885,1.885,0,0,1,1572.3,1784.716Z" transform="translate(-1570.41 -1767.25)"/></g><g transform="translate(9.102 9.102)"><path class="j" d="M1474.106,1825a1.877,1.877,0,0,1-1.333-.552l-9.408-9.407a1.885,1.885,0,1,1,2.666-2.667l9.408,9.408a1.885,1.885,0,0,1-1.333,3.218Z" transform="translate(-1462.812 -1811.818)"/></g></g><g transform="translate(112.342 77.262)"><g transform="translate(17.382)"><path class="j" d="M2055.306,2145.555H2069a1.885,1.885,0,1,1,0,3.771h-13.7a1.885,1.885,0,1,1,0-3.771Z" transform="translate(-2053.421 -2145.555)"/></g><g transform="translate(0 17.382)"><path class="j" d="M1970.2,2230.664a1.885,1.885,0,0,1,1.885,1.885v13.7a1.885,1.885,0,1,1-3.771,0v-13.7A1.885,1.885,0,0,1,1970.2,2230.664Z" transform="translate(-1968.312 -2230.664)"/></g><g transform="translate(12.567 12.567)"><path class="j" d="M2031.731,2207.088a1.878,1.878,0,0,1,1.333.552l9.408,9.408a1.885,1.885,0,0,1-2.666,2.666l-9.408-9.408a1.885,1.885,0,0,1,1.333-3.219Z" transform="translate(-2029.845 -2207.088)"/></g></g></g></g></svg>