<svg xmlns="http://www.w3.org/2000/svg" width="92" height="92"><g stroke="#B82B22" stroke-width="2" fill="none" fill-rule="evenodd"><path stroke-linecap="round" stroke-linejoin="round" d="M67.839 52.357L57.514 62.682m-.019-21.885v21.906M47.17 52.357l10.325 10.325"/><path d="M57.504 74.75c-12.701 0-23-10.298-23-23s10.299-23 23-23c12.702 0 23 10.298 23 23s-10.298 23-23 23z"/><path d="M65.142 73.451c-.318 3.931-3.634 7.05-7.642 7.05H19.167C14.95 80.5 11.5 77.05 11.5 72.834V19.167c0-4.216 3.45-7.666 7.667-7.666H57.5c4.217 0 7.667 3.45 7.667 7.666v10.898"/><path stroke-linecap="round" stroke-linejoin="round" d="M23 51.75h11.503M23 63.25h14.584M23 40.25h14.584"/></g></svg>