<svg xmlns="http://www.w3.org/2000/svg" width="92" height="92"><g stroke="#B82B22" stroke-width="2" fill="none" fill-rule="evenodd"><path d="M26.833 53.666h-7.667c-4.216 0-7.666-3.45-7.666-7.666V23c0-4.217 3.45-7.667 7.666-7.667H57.5c4.216 0 7.666 3.45 7.666 7.667v15.333M11.5 23h53.666M11.5 30.666h53.666"/><path stroke-linecap="round" stroke-linejoin="round" d="M19.166 46h7.667"/><path d="M72.836 76.666H34.502c-4.216 0-7.666-3.45-7.666-7.666V46c0-4.217 3.45-7.667 7.666-7.667h38.334c4.216 0 7.666 3.45 7.666 7.667v23c0 4.216-3.45 7.666-7.666 7.666z"/><path stroke-linecap="round" stroke-linejoin="round" d="M34.502 69h15.334"/></g></svg>