<svg xmlns="http://www.w3.org/2000/svg" width="92" height="92"><g stroke="#B82B22" stroke-width="2" fill="none" fill-rule="evenodd"><path d="M43.564 55.583H19.167c-4.216 0-7.666-3.45-7.666-7.666v-28.75C11.5 14.95 14.95 11.5 19.167 11.5h46c4.217 0 7.667 3.45 7.667 7.667v26.461M11.5 20.262h61.333M11.5 29.024h61.333"/><path stroke-linecap="round" stroke-linejoin="round" d="M20.777 46.547h17.524m14.42 14.28l8.604-8.604m.015 18.237V52.208m8.606 8.619l-8.606-8.604"/><path d="M61.333 42.167c10.586 0 19.167 8.58 19.167 19.166S71.919 80.5 61.333 80.5c-10.584 0-19.167-8.58-19.167-19.167 0-10.585 8.583-19.166 19.167-19.166z"/></g></svg>