<svg xmlns="http://www.w3.org/2000/svg" width="92" height="92"><g stroke="#B82B22" stroke-width="2" fill="none" fill-rule="evenodd"><g stroke-linejoin="round"><path stroke-linecap="round" d="M49.317 63.222H70.92c4.217 0 7.667 1.535 7.667 5.752 0 8.425-18.788 9.581-23.004 9.581H32.585c-4.219 0-7.667-3.45-7.667-7.667m-.001-11.5h0a3.844 3.844 0 013.833-3.833h23a3.845 3.845 0 013.834 3.833 3.845 3.845 0 01-3.834 3.834h-11.5"/><path d="M40.468 40.962a15.276 15.276 0 01-5.968 1.204c-8.468 0-15.333-6.864-15.333-15.334 0-8.467 6.865-15.332 15.333-15.332 8.47 0 15.333 6.866 15.333 15.333 0 .405-.015.805-.046 1.202"/><path stroke-linecap="round" d="M38.889 21.37s-1.116-.383-3.84-.373c-2.796.01-3.815 1.357-3.815 2.72 0 1.362 1.636 2.543 3.271 2.953 1.635.408 4.366 1.58 4.368 3.421.002 1.879-1.4 3.318-4.373 3.316-2.93 0-4.388-1.136-4.388-1.136m5.074-14.2v8.762m-.68 0v8.761"/><path d="M44.043 55.557a19.075 19.075 0 01-3.793-11.448c0-10.586 8.581-19.167 19.167-19.167 10.584 0 19.167 8.581 19.167 19.167 0 10.586-8.583 19.166-19.167 19.166"/><path stroke-linecap="round" d="M64.901 37.28s-1.393-.48-4.797-.468c-3.498.011-4.773 1.698-4.773 3.402 0 1.702 2.047 3.178 4.092 3.69 2.043.511 5.457 1.975 5.459 4.275.002 2.348-1.752 4.15-5.466 4.148-3.663-.002-5.486-1.42-5.486-1.42m6.343-17.751v10.952m-.85 0V55.06"/></g><path d="M19.167 78.583h0c-3.163 0-5.75-.67-5.75-3.833V59.417c0-3.163 2.587-3.834 5.75-3.834 3.16 0 5.75.671 5.75 3.834V74.75c0 3.162-2.59 3.833-5.75 3.833z"/></g></svg>