<svg xmlns="http://www.w3.org/2000/svg" width="48" height="48"><g stroke="#B82B22" stroke-width="2" fill="none" fill-rule="evenodd" stroke-linecap="round" stroke-linejoin="round"><path d="M40.3 24c0 8.837-7.164 16-16 16s-16-7.163-16-16 7.164-16 16-16 16 7.163 16 16z"/><path d="M13.082 12.734s1.452.771 1.452 2.56c0 1.786-.765 4.856 1.766 5.53 2.53.675 2.699 3.371 3.795 3.961 1.095.59 4.205 1.301 4.205 2.757 0 1.456-1.582 3.627.646 4.395 2.227.77 2.48 1.611 2.143 2.96-.337 1.348-1.658 3.082-.984 4.94"/><path d="M14.821 11.377s1.482 1.313 3.251 1.223c1.77-.091 7.07-.791 9.14.388 2.068 1.18 5.088 1.77 3.946 2.95-.599.62-.647 1.789-1.203 2.344-.555.556-1.602-.322-2.192.689-.59 1.011-1.1 4.453-2.282 3.785-1.18-.667-2.946-1.928-3.028-.666-.083 1.263-.869 1.852.49 2.864 1.357 1.011 2.795 1.183 3.26.886.465-.296 1.641-1.224 3.835-1.055 2.194.169 2.865 1.854 3.54 3.118.674 1.264 2.151.376 2.151 1.368 0 .992-.053 1.496-1.567 2.255-1.513.76-.922 1.216-1.51 2.529-.59 1.311-3.605 4.57-5.122 5.619m6.887-28.071s.162.607-.254 2.472c-.505 2.257-.14 4.23 2.512 4.737 2.652.505 2.944.495 2.944.495"/><path d="M39.132 17.993c3.217-.316 5.258-.153 5.452.571.43 1.601-8.305 5.332-19.508 8.333-11.202 3.003-20.632 4.138-21.06 2.538-.194-.722 1.48-1.879 4.403-3.206"/></g></svg>