<svg xmlns="http://www.w3.org/2000/svg" width="48" height="48"><g stroke="#B82B22" stroke-width="2" fill="none" fill-rule="evenodd"><path stroke-linecap="round" stroke-linejoin="round" d="M20.41 30c-2.945-2.509-5.483-4.707-7.28-6.874-2.133-2.569-3.126-5.006-3.126-7.668 0-2.586.888-4.972 2.5-6.718C14.133 6.974 16.37 6 18.803 6c4.353 0 6.95 4.624 6.95 6.795C25.754 10.624 28.352 6 32.705 6c2.433 0 4.67.974 6.301 2.74 1.611 1.746 2.498 4.132 2.498 6.718 0 2.662-.992 5.099-3.124 7.668-1.907 2.299-4.646 4.632-7.82 7.334-.837.713-1.76 1.499-2.726 2.334M24.73 34h11.271c2.2 0 4 .802 4 3.002C40.002 41.397 30.2 42 28 42H16c-2.2 0-4-1.8-4-4"/><path stroke-linecap="round" stroke-linejoin="round" d="M12 32h0c0-1.1.9-2 2-2h12c1.1 0 2 .9 2 2s-.9 2-2 2h-6"/><path d="M9 42h0c-1.65 0-3-.35-3-2v-8c0-1.65 1.35-2 3-2s3 .35 3 2v8c0 1.65-1.35 2-3 2z"/></g></svg>