<svg xmlns="http://www.w3.org/2000/svg" width="72" height="72"><g fill="none" fill-rule="evenodd"><path stroke="#B82B22" stroke-linecap="round" stroke-linejoin="round" stroke-width="2" d="M42 57a6 6 0 01-6 6H16a6 6 0 01-6-6V15c0-3.3 2.7-6 6-6h20c3.3 0 6 2.7 6 6v42zM10 19h32M10 53h32"/><path fill="#FFF" d="M61.207 36c0 8.157-6.612 14.77-14.769 14.77S31.669 44.157 31.669 36s6.612-14.77 14.769-14.77S61.207 27.843 61.207 36"/><path fill="#B82B22" d="M57.495 36c0 6.106-4.95 11.057-11.057 11.057-6.106 0-11.056-4.951-11.056-11.057 0-6.106 4.95-11.057 11.056-11.057 6.107 0 11.057 4.951 11.057 11.057" opacity=".2"/><path stroke="#B82B22" stroke-linejoin="round" stroke-width="2" d="M61.207 36c0 8.157-6.612 14.77-14.769 14.77S31.669 44.157 31.669 36s6.612-14.77 14.769-14.77S61.207 27.843 61.207 36z"/><path stroke="#B82B22" stroke-linecap="round" stroke-linejoin="round" stroke-width="2" d="M50.665 30.737s-1.073-.368-3.697-.359c-2.694.008-3.677 1.307-3.677 2.62 0 1.312 1.577 2.45 3.152 2.844 1.576.394 4.206 1.523 4.207 3.295.002 1.81-1.35 3.197-4.212 3.195-2.822 0-4.226-1.094-4.226-1.094m4.887-13.677V36m-.656 0v8.439M24 58h4m-3-44h2"/><path d="M62.025 14.18l-2 3.464m5.029 1.947l-3.864 1.035m-5.365-6.363l1.035 3.863" stroke="#B82B22" stroke-linecap="round" stroke-linejoin="round" stroke-width="2" opacity=".5"/></g></svg>