<svg xmlns="http://www.w3.org/2000/svg" width="48" height="48"><g stroke="#B82B22" stroke-width="2" fill="none" fill-rule="evenodd"><path d="M22.73 29H10c-2.2 0-4-1.8-4-4V10c0-2.2 1.8-4 4-4h24c2.2 0 4 1.8 4 4v13.807M6 10.571h32M6 15.143h32"/><path stroke-linecap="round" stroke-linejoin="round" d="M10.84 24.286h9.143m14.989 4.359s-.716-.244-2.465-.24c-1.796.006-2.451.872-2.451 1.747 0 .875 1.05 1.634 2.102 1.896 1.05.264 2.803 1.016 2.804 2.199 0 1.204-.9 2.128-2.808 2.128-1.882 0-2.817-.729-2.817-.729m3.257-9.119v5.627m-.437 0v5.626"/><path stroke-linejoin="round" d="M42 32c0 5.522-4.477 10-10 10s-10-4.478-10-10 4.477-10 10-10 10 4.478 10 10z"/></g></svg>