<svg xmlns="http://www.w3.org/2000/svg" width="72" height="72"><g fill="none" fill-rule="evenodd"><path fill="#FFF" d="M54.932 57.819a6 6 0 01-6 6h-26.44a6 6 0 01-6-6V20.395c0-3.3 2.7-6 6-6h26.44c3.3 0 6 2.7 6 6v37.424z"/><path fill="#B82B22" d="M54.932 57.819a6 6 0 01-6 6h-26.44a6 6 0 01-6-6V20.395c0-3.3 2.7-6 6-6h26.44c3.3 0 6 2.7 6 6v37.424z" opacity=".2"/><path stroke="#B82B22" stroke-linecap="round" stroke-linejoin="round" stroke-width="2" d="M54.932 57.819a6 6 0 01-6 6h-26.44a6 6 0 01-6-6V20.395c0-3.3 2.7-6 6-6h26.44c3.3 0 6 2.7 6 6v37.424z"/><path fill="#FFF" d="M48.441 52.243a6 6 0 01-6 6H16a6 6 0 01-6-6V14.819c0-3.3 2.7-6 6-6h26.441c3.3 0 6 2.7 6 6v37.424z"/><path stroke="#B82B22" stroke-linecap="round" stroke-linejoin="round" stroke-width="2" d="M48.441 52.243a6 6 0 01-6 6H16a6 6 0 01-6-6V14.819c0-3.3 2.7-6 6-6h26.441c3.3 0 6 2.7 6 6v37.424zM25.48 21.175h14.724m-21.967 0h1.536m5.707 8.237h14.724m-21.967 0h1.536m5.707 8.237h14.724m-21.967 0h1.536m5.707 8.238h14.724m-21.967 0h1.536"/><path d="M59.398 7l-2 3.464m-4.2-3.381l1.035 3.863m8.194 1.465l-3.863 1.035" stroke="#B82B22" stroke-linecap="round" stroke-linejoin="round" stroke-width="2" opacity=".5"/></g></svg>