<svg xmlns="http://www.w3.org/2000/svg" width="72" height="72"><g fill="none" fill-rule="evenodd"><path fill="#FFF" d="M64.003 43.822c0 8.157-6.612 14.77-14.769 14.77s-14.77-6.613-14.77-14.77c0-8.156 6.613-14.77 14.77-14.77s14.77 6.614 14.77 14.77"/><path fill="#B82B22" d="M59.234 43.822c0 5.523-4.477 10-10 10s-10-4.477-10-10c0-5.522 4.477-10 10-10s10 4.478 10 10" opacity=".2"/><path stroke="#B82B22" stroke-linejoin="round" stroke-width="2" d="M64.003 43.822c0 8.157-6.612 14.77-14.769 14.77s-14.77-6.613-14.77-14.77c0-8.156 6.613-14.77 14.77-14.77s14.77 6.614 14.77 14.77z"/><path stroke="#B82B22" stroke-linecap="round" stroke-linejoin="round" stroke-width="2" d="M53.46 38.56s-1.072-.368-3.696-.36c-2.695.009-3.677 1.308-3.677 2.62 0 1.313 1.577 2.45 3.152 2.844 1.576.395 4.206 1.523 4.207 3.295.002 1.81-1.35 3.197-4.212 3.196-2.822-.002-4.226-1.095-4.226-1.095m4.887-13.677v8.439m-.656 0v8.439"/><path stroke="#B82B22" stroke-width="2" d="M55.234 23.627c0 2.354-2.687 5.363-6 5.363-3.314 0-6-3.009-6-5.363 0-2.353 2.686.04 6 .04 3.313 0 6-2.393 6-.04z"/><path stroke="#B82B22" stroke-width="2" d="M48.877 58.205C48.315 60.933 45.887 63 43 63H13c-3.3 0-6-2.7-6-6V15c0-3.3 2.7-6 6-6h30c3.3 0 6 2.7 6 6v8.21"/><path stroke="#B82B22" stroke-linecap="round" stroke-linejoin="round" stroke-width="2" d="M16 40.5h18.84M16 49.5h19.597M16 31.5h24.5m-24.5-9h24"/><path d="M63.086 14.18l-2 3.464m-4.201-3.381l1.036 3.863m8.193 1.465l-3.864 1.035" stroke="#B82B22" stroke-linecap="round" stroke-linejoin="round" stroke-width="2" opacity=".5"/></g></svg>