<svg xmlns="http://www.w3.org/2000/svg" width="72" height="72"><g fill="none" fill-rule="evenodd"><path stroke="#B82B22" stroke-width="2" d="M48 23.21V15c0-3.3-2.7-6-6-6H12c-3.3 0-6 2.7-6 6v42c0 3.3 2.7 6 6 6h30c2.888 0 5.315-2.067 5.877-4.795v-.936"/><path stroke="#B82B22" stroke-linecap="round" stroke-linejoin="round" stroke-width="2" d="M15 40.5h11.998M15 49.5h14.407M15 31.5h14.408M15 22.5h24"/><path fill="#FFF" d="M62.998 40.5c0 9.941-8.059 18-18 18s-18-8.059-18-18 8.059-18 18-18 18 8.059 18 18"/><path fill="#B82B22" d="M58.998 40.5c0 7.732-6.268 14-14 14s-14-6.268-14-14 6.268-14 14-14 14 6.268 14 14" opacity=".2"/><path stroke="#B82B22" stroke-linejoin="round" stroke-width="2" d="M62.998 40.5c0 9.941-8.059 18-18 18s-18-8.059-18-18 8.059-18 18-18 18 8.059 18 18z"/><path fill="#B82B22" d="M46.498 49.5a1.5 1.5 0 11-3 0 1.5 1.5 0 013 0"/><path stroke="#B82B22" stroke-linecap="round" stroke-linejoin="round" stroke-width="2" d="M44.998 31.364v12.511"/><path d="M62.186 15.18l-2 3.464m5.028 1.947l-3.863 1.035m-5.366-6.363l1.035 3.863" stroke="#B82B22" stroke-linecap="round" stroke-linejoin="round" stroke-width="2" opacity=".5"/></g></svg>