<svg xmlns="http://www.w3.org/2000/svg" width="48" height="48"><g stroke="#B82B22" stroke-width="2" fill="none" fill-rule="evenodd" stroke-linecap="round" stroke-linejoin="round"><path d="M22.906 22.421l-4.119-3.867-.005.008c1.88-3.289-.594-6.264-2.649-8.319-2.469-2.468-7.557-3.758-9.9-1.415-2.343 2.344-1.054 7.432 1.414 9.9 2.054 2.054 5.026 4.526 8.313 2.654v.001l3.758 4.003m3.177 3.394l11.02 11.77a2.857 2.857 0 004.137.099l.001-.001a2.86 2.86 0 00-.098-4.138L26.073 25.386"/><path d="M39.573 11.672l-4.95 4.949m2.135-7.764l-4.95 4.949m10.578.679l-5.656 5.658a6.005 6.005 0 01-6.833 1.171l-.004.008L11.877 40.55a2.858 2.858 0 01-4.138.099l-.001-.001a2.86 2.86 0 01.098-4.138l19.236-18.024-.001-.002a6.003 6.003 0 011.173-6.827L33.9 6"/></g></svg>