<svg xmlns="http://www.w3.org/2000/svg" width="48" height="48"><g stroke="#B82B22" stroke-width="2" fill="none" fill-rule="evenodd"><path stroke-linejoin="round" d="M40 28c0 8.837-7.164 16-16 16S8 36.837 8 28s7.164-16 16-16 16 7.163 16 16z"/><path stroke-linecap="round" stroke-linejoin="round" d="M28.882 32.73c-1.088 2.026-2.87 3.348-4.882 3.348-4.173 0-6-3.582-6-8s1.827-8 6-8c2.012 0 3.794 1.32 4.882 3.347m-13.055 2.921h8m-8 4h8"/><path d="M29.231 6.122c0 2.549-2.066 5.81-4.616 5.81-2.549 0-4.615-3.262-4.615-5.81 0-2.55 2.066.043 4.615.043 2.55 0 4.616-2.592 4.616-.043z"/></g></svg>