<svg xmlns="http://www.w3.org/2000/svg" width="48" height="48"><g stroke="#B82B22" stroke-width="2" fill="none" fill-rule="evenodd"><path d="M41 40.214H7c-2.2 0-4-1.8-4-4v-20c0-2.2 1.8-4 4-4h34c2.2 0 4 1.8 4 4v20c0 2.2-1.8 4-4 4z"/><path d="M18 12.214V10c0-1.1.9-2 2-2h8c1.1 0 2 .9 2 2v2.214m15 8v-4c0-2.2-1.8-4-4-4h-4a8 8 0 008 8zm-34-8H7c-2.2 0-4 1.8-4 4v4a8 8 0 008-8zm-8 20v4c0 2.2 1.8 4 4 4h4a8 8 0 00-8-8zm42 4v-4a8 8 0 00-8 8h4c2.2 0 4-1.8 4-4zm-31-24v28m20-28v28m-10.878-5.56l-1.414 1.414a2 2 0 01-2.829-2.828l1.414-1.414a2.001 2.001 0 012.83 2.828z"/><path stroke-linecap="round" stroke-linejoin="round" d="M26.787 17.214l-1.787 6 6-3z"/></g></svg>