<svg xmlns="http://www.w3.org/2000/svg" width="48" height="48"><g stroke="#B82B22" stroke-width="2" fill="none" fill-rule="evenodd"><path stroke-linejoin="round" d="M40 28c0 8.837-7.164 16-16 16S8 36.837 8 28s7.164-16 16-16 16 7.163 16 16z"/><path stroke-linecap="round" stroke-linejoin="round" d="M28.579 22.299s-1.163-.398-4.005-.39c-2.92.009-3.983 1.417-3.983 2.839s1.708 2.655 3.415 3.08c1.706.428 4.556 1.65 4.557 3.572.002 1.959-1.463 3.462-4.563 3.46-3.057-.001-4.578-1.185-4.578-1.185m5.294-14.818V28m-.711 0v9.143"/><path d="M29.231 6.122c0 2.549-2.066 5.81-4.616 5.81-2.549 0-4.615-3.262-4.615-5.81 0-2.55 2.066.043 4.615.043 2.55 0 4.616-2.592 4.616-.043z"/></g></svg>