<svg xmlns="http://www.w3.org/2000/svg" width="72" height="72"><g fill="none" fill-rule="evenodd"><path fill="#FFF" d="M31.977 43.492h6.035a3.01 3.01 0 013.002 3.001 3.01 3.01 0 01-3.002 3.001l6.002.043c8.287 0 15.006-6.719 15.006-15.007 0-8.287-6.719-15.006-15.006-15.006-8.288 0-15.007 6.719-15.007 15.006 0 3.36 1.105 6.463 2.97 8.964"/><path fill="#B82B22" d="M55.077 34.524c0 6.106-4.95 11.057-11.057 11.057-6.106 0-11.056-4.95-11.056-11.057 0-6.106 4.95-11.057 11.056-11.057 6.107 0 11.057 4.951 11.057 11.057" opacity=".2"/><path stroke="#B82B22" stroke-width="2" d="M12.502 62.007h0c-2.476 0-4.502-.524-4.502-3.001V47.001C8 44.526 10.026 44 12.502 44s4.502.526 4.502 3.001v12.005c0 2.477-2.026 3.001-4.502 3.001z"/><path stroke="#B82B22" stroke-linecap="round" stroke-linejoin="round" stroke-width="2" d="M36.107 49.494h16.914c3.301 0 6.002 1.203 6.002 4.505 0 6.597-14.708 7.5-18.01 7.5H23.006c-3.3 0-6.003-2.7-6.003-6.002m.001-9.004h0a3.01 3.01 0 013-3.001h18.009c1.65 0 3 1.351 3 3.001a3.009 3.009 0 01-3 3.001h-9.004"/><path stroke="#B82B22" stroke-linejoin="round" stroke-width="2" d="M29.18 32.066a11.974 11.974 0 01-4.673.943c-6.63 0-12.005-5.374-12.005-12.005C12.502 14.375 17.877 9 24.507 9c6.63 0 12.005 5.375 12.005 12.004 0 .317-.012.631-.036.942"/><path stroke="#B82B22" stroke-linecap="round" stroke-linejoin="round" stroke-width="2" d="M27.942 16.727s-.873-.299-3.005-.292c-2.19.007-2.989 1.063-2.989 2.13 0 1.066 1.282 1.991 2.562 2.311 1.281.321 3.42 1.238 3.42 2.68.001 1.47-1.097 2.597-3.424 2.596-2.293 0-3.435-.889-3.435-.889m3.973-11.118v6.859m-.533.001v6.86"/><path stroke="#B82B22" stroke-linejoin="round" stroke-width="2" d="M31.978 43.494a14.939 14.939 0 01-2.97-8.964c0-8.287 6.719-15.006 15.006-15.006 8.288 0 15.006 6.719 15.006 15.006 0 8.288-6.718 15.007-15.006 15.007"/><path stroke="#B82B22" stroke-linecap="round" stroke-linejoin="round" stroke-width="2" d="M48.309 29.183s-1.09-.374-3.756-.365c-2.738.008-3.736 1.328-3.736 2.662 0 1.334 1.602 2.49 3.203 2.89 1.6.4 4.272 1.546 4.273 3.348.002 1.838-1.371 3.247-4.279 3.246-2.867-.002-4.294-1.112-4.294-1.112m4.965-13.897v8.575m-.665 0v8.575"/><path d="M59.086 11l-2 3.464m-4.2-3.381l1.035 3.863m8.194 1.465l-3.864 1.035" stroke="#B82B22" stroke-linecap="round" stroke-linejoin="round" stroke-width="2" opacity=".5"/></g></svg>