<svg xmlns="http://www.w3.org/2000/svg" width="48" height="48"><g stroke="#B82B22" stroke-width="2" fill="none" fill-rule="evenodd"><path d="M34 39h0c0 1.65-1.35 3-3 3H17c-1.65 0-3-1.35-3-3s1.35-3 3-3h14c1.65 0 3 1.35 3 3z"/><path stroke-linecap="round" stroke-linejoin="round" d="M35 26v6a4 4 0 01-4 4H17a4 4 0 01-4-4V20c0-2.2.601-4 2.251-4 2.66 0 3.468 6.379 3.681 10h.074a5 5 0 015 5"/><path stroke-linecap="round" stroke-linejoin="round" d="M26.818 12.492s-.716-.246-2.465-.24c-1.796.006-2.451.872-2.451 1.747 0 .875 1.05 1.634 2.102 1.895 1.049.263 2.803 1.016 2.804 2.198 0 1.206-.9 2.13-2.808 2.13-1.882 0-2.817-.73-2.817-.73m3.257-9.118V16m-.437 0v5.626"/><path stroke-linejoin="round" d="M13 26H8a2 2 0 01-2-2V8a2 2 0 012-2h32a2 2 0 012 2v16a2 2 0 01-2 2H18.769"/></g></svg>