<svg xmlns="http://www.w3.org/2000/svg" width="72" height="72"><g fill="none" fill-rule="evenodd"><path fill="#FFF" d="M21.937 44.492a19.504 19.504 0 01-.931-5.97c0-10.773 8.735-19.508 19.508-19.508 10.774 0 19.508 8.735 19.508 19.508 0 4.574-1.575 8.782-4.212 12.11h.014a11.015 11.015 0 00-1.803-.138h-15.01a3.01 3.01 0 003.002-3 3.01 3.01 0 00-3.002-3.003H22.005l-.067.001z"/><path fill="#B82B22" d="M56.142 38.389c0-8.63-6.998-15.627-15.628-15.627-8.631 0-15.627 6.997-15.627 15.628 0 2.165.44 4.227 1.236 6.102h12.89c1.65 0 3 1.35 3 3.002 0 1.65-1.35 3-3 3h11.381c3.507-2.866 5.748-7.222 5.748-12.104" opacity=".2"/><path stroke="#B82B22" stroke-linecap="round" stroke-linejoin="round" stroke-width="2" d="M37.107 50.494H54.02c3.3 0 6.002 1.202 6.002 4.504 0 6.597-14.708 7.501-18.01 7.501H24.006c-3.301 0-6.002-2.7-6.002-6.003m0-9.003h0a3.01 3.01 0 013-3.002h18.008a3.012 3.012 0 013.002 3.002 3.01 3.01 0 01-3.002 3.001h-9.003"/><path stroke="#B82B22" stroke-width="2" d="M13.502 62.499h0c-2.476 0-4.502-.525-4.502-3V47.491c0-2.475 2.026-3 4.502-3s4.502.525 4.502 3v12.008c0 2.475-2.026 3-4.502 3z"/><path stroke="#B82B22" stroke-linejoin="round" stroke-width="2" d="M21.937 44.492a19.504 19.504 0 01-.931-5.97c0-10.773 8.735-19.508 19.508-19.508 10.774 0 19.508 8.735 19.508 19.508 0 4.574-1.575 8.782-4.212 12.11"/><path stroke="#B82B22" stroke-linecap="round" stroke-linejoin="round" stroke-width="2" d="M46.097 31.572s-1.417-.486-4.884-.476c-3.558.011-4.856 1.729-4.856 3.461 0 1.735 2.083 3.238 4.164 3.758 2.08.52 5.555 2.01 5.557 4.353 0 2.069-1.337 3.719-4.151 4.123m-.541-19.416v11.147m-.866.001v6.386"/><path stroke="#B82B22" stroke-width="2" d="M46.517 11.459c0 3.314-2.689 7.556-6.003 7.556-3.316 0-6.002-4.242-6.002-7.556 0-3.315 2.686.056 6.003.056 3.313 0 6.002-3.37 6.002-.056z"/><path d="M60.863 13.173l-2 3.465m-4.2-3.382l1.035 3.863m8.194 1.465l-3.864 1.035" stroke="#B82B22" stroke-linecap="round" stroke-linejoin="round" stroke-width="2" opacity=".5"/></g></svg>