<svg xmlns="http://www.w3.org/2000/svg" width="48" height="48"><g stroke="#B82B22" stroke-width="2" fill="none" fill-rule="evenodd"><path stroke-linejoin="round" d="M42.002 29.154c0 5.438-4.408 9.846-9.846 9.846s-9.846-4.408-9.846-9.846 4.408-9.846 9.846-9.846 9.846 4.408 9.846 9.846z"/><path stroke-linecap="round" stroke-linejoin="round" d="M34.974 25.645s-.715-.245-2.465-.24c-1.796.006-2.451.872-2.451 1.747 0 .875 1.052 1.634 2.102 1.896 1.05.264 2.804 1.016 2.804 2.199 0 1.204-.9 2.13-2.808 2.129-1.881-.002-2.817-.73-2.817-.73m3.257-9.119v5.626m-.437.001v5.626"/><path d="M36.156 15.69c0 1.568-1.791 3.575-4 3.575-2.21 0-4-2.007-4-3.575 0-1.569 1.79.026 4 .026 2.209 0 4-1.595 4-.026z"/><path d="M34 38a4.015 4.015 0 01-4 4H10c-2.2 0-4-1.8-4-4V10c0-2.2 1.8-4 4-4h20c2.2 0 4 1.8 4 4v5.347"/><path stroke-linecap="round" stroke-linejoin="round" d="M28.214 16.01c-.07.006-.142.01-.214.01H12c-1.1 0-2-.9-2-2v-2c0-1.1.9-2 2-2h16c1.1 0 2 .9 2 2v2c0 .44-.144.848-.388 1.18M27.828 38H12c-1.1 0-2-.9-2-2V22c0-1.1.9-2 2-2h16m-18 6h12.826M10 32h12.729m-5.734-12v18"/></g></svg>