<svg xmlns="http://www.w3.org/2000/svg" width="92" height="92"><g fill="none" fill-rule="evenodd" stroke="#B82B22" stroke-width="2"><path d="M65.142 73.45c-.316 3.93-3.634 7.05-7.641 7.05H19.167c-4.216 0-7.666-3.45-7.666-7.665V19.167c-.001-4.216 3.449-7.666 7.666-7.666h38.334c4.216 0 7.666 3.45 7.666 7.666v10.904"/><path stroke-linecap="round" stroke-linejoin="round" d="M48.207 30.706H23a3.845 3.845 0 01-3.834-3.833v-3.834A3.845 3.845 0 0123 19.206h30.666a3.846 3.846 0 013.834 3.833v3.834m-9.207 45.96H23A3.845 3.845 0 0119.166 69V42.167A3.845 3.845 0 0123 38.333h15.816m-19.649 11.5h15.331m-15.331 11.5h15.331m-5.757-23v34.5"/><path d="M80.504 51.75c0 12.702-10.297 23-23 23-12.702 0-23-10.298-23-23s10.298-23 23-23c12.704 0 23 10.298 23 23z"/><path stroke-linecap="round" stroke-linejoin="round" d="M67.055 42.198L47.921 61.329m19.134-1.961a3.834 3.834 0 01-7.666 0 3.834 3.834 0 017.666 0zM55.587 44.072a3.834 3.834 0 11-7.668-.002 3.834 3.834 0 017.668.002z"/></g></svg>