<svg version="1.1" id="圖層_1" xmlns="http://www.w3.org/2000/svg" x="0" y="0" width="92" height="92" xml:space="preserve"><style>.st1{stroke-linecap:round;stroke-linejoin:round}.st1,.st2{fill:none;stroke:#b82b22;stroke-width:2}</style><path d="M79.7 56.9c0 10.1-8.2 18.2-18.2 18.2S43.2 67 43.2 56.9s8.2-18.2 18.2-18.2 18.3 8.2 18.3 18.2z" fill="none" stroke="#b82b22" stroke-width="2" stroke-linejoin="round"/><path class="st1" d="M66.7 50.4s-1.3-.5-4.6-.4c-3.3 0-4.5 1.6-4.5 3.2s1.9 3 3.9 3.5c1.9.5 5.2 1.9 5.2 4.1 0 2.2-1.7 3.9-5.2 3.9s-5.2-1.4-5.2-1.4m6-16.8v10.4m-.8 0v10.4"/><path class="st2" d="M68.9 32c0 2.9-3.3 6.6-7.4 6.6s-7.4-3.7-7.4-6.6 3.3 0 7.4 0c4.1.1 7.4-2.9 7.4 0z"/><path class="st2" d="M64.9 73.3c0 .5-.1 1-.2 1.5-.7 3.4-3.7 5.9-7.3 5.9h-37c-4.1 0-7.4-3.3-7.4-7.4V21.5c0-4.1 3.3-7.4 7.4-7.4h37c4.1 0 7.4 3.3 7.4 7.4v9.9"/><path class="st1" d="M54.2 32.6H24.1c-2 0-3.7-1.7-3.7-3.7v-3.7c0-2 1.7-3.7 3.7-3.7h29.6c2 0 3.7 1.7 3.7 3.7v3.7c0 .8-.3 1.6-.7 2.2m-3.2 42.2H24.1c-2 0-3.7-1.7-3.7-3.7V43.7c0-2 1.7-3.7 3.7-3.7h29.6M20.4 51.1h23.7M20.4 62.2H44M33.4 40v33.3"/></svg>