<svg version="1.1" id="圖層_1" xmlns="http://www.w3.org/2000/svg" x="0" y="0" width="92" height="92" xml:space="preserve"><style>.st1{fill:none;stroke:#b82b22;stroke-width:2;stroke-linecap:round;stroke-linejoin:round}</style><path d="M76.2 61c0 8.1-6.6 14.7-14.7 14.7S46.7 69.1 46.7 61s6.6-14.7 14.7-14.7S76.2 52.8 76.2 61z" fill="none" stroke="#b82b22" stroke-width="2" stroke-linejoin="round"/><path class="st1" d="M71.6 73l7.7 7.7m-32.6-21c-1.1.5-2.5.8-4.2.8-4.9 0-7.4-1.9-7.4-1.9m14.8-18.4s-1.9-.6-6.5-.6c-4.7 0-6.4 2.3-6.4 4.6s2.8 4.3 5.5 5c1.2.3 2.7.8 4.1 1.6 1 .6 2 1.3 2.6 2.1m-5.5-18.2v14.7m-1.2 0v14.7"/><path class="st1" d="M72 40.5L47.4 16.4c-2.7-2.6-7-2.6-9.7 0L13 40.6m52.4 6.2V34.1"/><path class="st1" d="M19.6 34.1v32.7c0 3.6 2.9 6.6 6.5 6.6h27.4"/></svg>