<svg xmlns="http://www.w3.org/2000/svg" width="92" height="92"><g fill="none" fill-rule="evenodd" stroke="#B82B22" stroke-width="2"><path stroke-linecap="round" stroke-linejoin="round" d="M47.4 64.194h21.603c4.217 0 7.667 1.535 7.667 5.752 0 8.426-18.787 9.581-23.002 9.581h-23c-4.219 0-7.667-3.45-7.667-7.666M23 60.36h0a3.843 3.843 0 013.834-3.833h23a3.845 3.845 0 013.833 3.834 3.844 3.844 0 01-3.833 3.833h-11.5"/><path d="M17.25 79.527h0c-3.162 0-5.75-.67-5.75-3.833V60.361c0-3.163 2.588-3.834 5.75-3.834 3.161 0 5.75.671 5.75 3.834v15.333c0 3.163-2.589 3.833-5.75 3.833z"/><path stroke-linecap="round" stroke-linejoin="round" d="M80.5 35.282L58.096 13.281c-2.416-2.375-6.37-2.375-8.786 0l-22.476 22.07"/><path stroke-linecap="round" stroke-linejoin="round" d="M71.823 64.198a5.971 5.971 0 002.716-4.995V29.428M47.705 56.527v-9.25c0-3.279 2.682-5.962 5.963-5.962 3.28 0 5.963 2.683 5.963 5.963v16.916M32.797 29.428v27.099"/></g></svg>