<svg xmlns="http://www.w3.org/2000/svg" width="92" height="92"><g fill="none" fill-rule="evenodd" stroke="#B82B22" stroke-width="2"><path d="M65.141 73.45c-.316 3.93-3.632 7.05-7.64 7.05H19.168c-4.219 0-7.667-3.45-7.667-7.665V19.167c0-4.216 3.449-7.666 7.667-7.666h38.333c4.215 0 7.667 3.45 7.667 7.666v10.904"/><path stroke-linecap="round" stroke-linejoin="round" d="M48.206 30.706H23.002a3.844 3.844 0 01-3.834-3.833v-3.834a3.843 3.843 0 013.834-3.833h30.666a3.846 3.846 0 013.834 3.833v3.834m-9.21 45.96h-25.29A3.844 3.844 0 0119.168 69V42.167a3.843 3.843 0 013.833-3.834h15.817m-19.651 11.5h15.33m-15.33 11.5h15.33m-5.756-23v34.5"/><path stroke-linejoin="round" d="M80.497 51.75c0 12.702-10.296 23-23 23-12.702 0-23-10.298-23-23s10.298-23 23-23c12.704 0 23 10.298 23 23z"/><path stroke-linecap="round" stroke-linejoin="round" d="M64.08 43.555s-1.671-.573-5.758-.561c-4.195.013-5.725 2.037-5.725 4.08 0 2.046 2.455 3.817 4.909 4.43 2.453.613 6.549 2.37 6.55 5.133.003 2.815-2.102 4.975-6.56 4.973-4.395-.001-6.58-1.702-6.58-1.702m7.61-21.3V51.75m-1.02 0v13.143"/></g></svg>