<svg xmlns="http://www.w3.org/2000/svg" width="92" height="92"><g fill="none" fill-rule="evenodd" stroke="#B82B22" stroke-linecap="round" stroke-linejoin="round" stroke-width="2"><path d="M80.5 59.155L64.496 43.438c-1.725-1.694-4.55-1.694-6.275 0L42.167 59.203"/><path d="M46.427 54.972v21.27a4.271 4.271 0 004.26 4.258h6.389V67.722a4.272 4.272 0 014.257-4.259 4.272 4.272 0 014.26 4.259V80.5h6.389a4.27 4.27 0 004.26-4.258v-21.27"/><path d="M48.405 79.827c-6.068.818-11.989.661-11.989.661S11.5 81.151 11.5 72.686c0-8.464 11.155-22.853 24.916-22.853 4.24 0 8.23 1.365 11.725 3.502m-11.724-3.502h0c-8.434 0-15.334-6.9-15.334-15.333v-7.667c0-8.433 6.9-15.333 15.334-15.333 8.433 0 15.333 6.9 15.333 15.333V34.5c0 8.433-6.9 15.333-15.333 15.333zm-15.334-9.976a5.75 5.75 0 110-11.5m30.667 11.5a5.75 5.75 0 100-11.5m-30.852 13.81h11.87"/><path d="M21.083 28.324S33.216 28.677 40.25 23c0 0 4.2 6.003 11.5 6.003"/></g></svg>