<svg xmlns="http://www.w3.org/2000/svg" width="92" height="92"><g fill="none" fill-rule="evenodd" stroke="#B82B22" stroke-width="2"><path stroke-linejoin="round" d="M80.208 61.628c0 10.423-8.448 18.872-18.873 18.872-10.42 0-18.87-8.45-18.87-18.872 0-10.423 8.45-18.871 18.87-18.871 10.425 0 18.873 8.448 18.873 18.871z"/><path stroke-linecap="round" stroke-linejoin="round" d="M66.738 54.904s-1.373-.472-4.725-.46c-3.444.011-4.698 1.671-4.698 3.348 0 1.677 2.015 3.132 4.03 3.634 2.01.504 5.371 1.946 5.373 4.213.002 2.31-1.725 4.083-5.382 4.08-3.607-.001-5.4-1.398-5.4-1.398m6.244-17.477v10.783m-.837.001v10.783"/><path d="M67.505 35.823c0 3.006-2.436 6.852-5.443 6.852-3.006 0-5.444-3.846-5.444-6.852 0-3.007 2.438.05 5.444.05 3.007 0 5.443-3.057 5.443-.05z"/><path stroke-linecap="round" stroke-linejoin="round" d="M53.589 78.839c-7.314 1.913-17.172 1.648-17.172 1.648s-24.916.665-24.916-7.8 11.155-22.853 24.916-22.853c3.103 0 6.074.732 8.815 1.963m-8.815-1.964h0c-8.433 0-15.333-6.9-15.333-15.333v-7.667c0-8.433 6.9-15.333 15.333-15.333 8.432 0 15.334 6.9 15.334 15.333V34.5c0 8.433-6.902 15.333-15.334 15.333zm-15.333-9.976a5.75 5.75 0 110-11.5"/><path stroke-linecap="round" stroke-linejoin="round" d="M57.486 34.517a5.75 5.75 0 00-5.735-6.16m-.001 11.5a5.738 5.738 0 004.767-2.536m-35.618 4.846h11.869M21.084 28.324s12.132.353 19.167-5.324c0 0 4.199 6.003 11.5 6.003"/></g></svg>