<svg xmlns="http://www.w3.org/2000/svg" xmlns:xlink="http://www.w3.org/1999/xlink" width="93" height="92"><defs><path id="a" d="M0 72.833h72.833V0H0z"/></defs><g fill="none" fill-rule="evenodd" transform="translate(10.2 9.583)"><path stroke="#B82B22" stroke-width="2" d="M36.42 63.25H5.324c-1.883 0-3.406-1.526-3.406-3.408s1.523-3.408 3.406-3.408h27.84m23.271-30.666H8.73a3.417 3.417 0 01-3.408-3.408 3.418 3.418 0 013.408-3.407h47.704a3.419 3.419 0 013.408 3.407 3.418 3.418 0 01-3.408 3.408z"/><path stroke="#B82B22" stroke-width="2" d="M27.473 56.435V25.768h10.221v12.955M44.512 34v-8.232h10.221v7.048"/><mask id="b" fill="#fff"><use xlink:href="#a"/></mask><path stroke="#B82B22" stroke-width="2" d="M10.436 56.434h10.222V25.768H10.436zm-.001-37.481l17.037-15.16c2.81-2.502 7.412-2.502 10.222 0l17.037 15.16" mask="url(#b)"/><path stroke="#B82B22" stroke-linejoin="round" stroke-width="2" d="M70.917 51.75c0 10.586-8.581 19.167-19.167 19.167-10.586 0-19.167-8.581-19.167-19.167 0-10.586 8.581-19.167 19.167-19.167 10.586 0 19.167 8.581 19.167 19.167z" mask="url(#b)"/><path stroke="#B82B22" stroke-linecap="round" stroke-linejoin="round" stroke-width="2" d="M51.75 41.23v11.13m8.567-.001h-8.568" mask="url(#b)"/></g></svg>