<svg xmlns="http://www.w3.org/2000/svg" width="93" height="92"><g fill="none" fill-rule="evenodd" stroke="#B82B22" stroke-width="2"><path stroke-linecap="round" stroke-linejoin="round" d="M68.456 52.357L58.131 62.682m-.019-21.885v21.906M47.787 52.357l10.325 10.325"/><path d="M58.121 74.75c-12.701 0-23-10.298-23-23s10.299-23 23-23c12.702 0 23 10.298 23 23s-10.298 23-23 23z"/><path d="M65.759 73.451c-.318 3.931-3.634 7.05-7.642 7.05H19.784c-4.217-.001-7.667-3.451-7.667-7.667V19.167c0-4.216 3.45-7.666 7.667-7.666h38.333c4.217 0 7.667 3.45 7.667 7.666v10.898"/><path stroke-linecap="round" stroke-linejoin="round" d="M23.617 51.75H35.12m-11.503 11.5h14.584m-14.584-23h14.584"/></g></svg>