<svg xmlns="http://www.w3.org/2000/svg" width="93" height="92"><g fill="none" fill-rule="evenodd" stroke="#B82B22"><path stroke-linecap="round" stroke-linejoin="round" stroke-width="2" d="M54.531 61.388h16.71m-22.377 7.666h22.377M59.772 24.94s-1.949-.669-6.716-.654c-4.895.016-6.681 2.375-6.681 4.761 0 2.385 2.865 4.451 5.729 5.168 2.861.715 7.64 2.766 7.642 5.987.001 2.57-1.501 4.671-4.645 5.465m-1.808-26.5v15.334m-1.19 0v4.573"/><path stroke-width="2" d="M25.26 30.103V19.167c0-4.217 3.45-7.667 7.667-7.667H71.26c4.217 0 7.667 3.45 7.667 7.667v53.666c0 4.219-3.45 7.667-7.667 7.667H32.927c-4 0-7.31-3.103-7.64-7.023"/><path stroke-width="1.714" d="M55.927 51.79c0 12.702-10.298 23-23 23s-23-10.298-23-23c0-12.701 10.298-23 23-23s23 10.299 23 23z"/><path stroke-linecap="round" stroke-linejoin="round" stroke-width="2" d="M42.478 42.239l-19.134 19.13m19.134-1.961a3.834 3.834 0 11-7.665 0 3.834 3.834 0 017.665 0zM31.01 44.112c0 2.116-1.717 3.834-3.833 3.834s-3.834-1.718-3.834-3.834a3.834 3.834 0 017.667 0z"/></g></svg>