<svg xmlns="http://www.w3.org/2000/svg" width="93" height="92"><g fill="none" fill-rule="evenodd" stroke="#B82B22" stroke-width="2"><path stroke-linecap="round" stroke-linejoin="round" d="M23.617 80.5h46m-23-9.583V80.5m26.834-9.51H19.784c-4.217 0-7.667-3.45-7.667-7.667V30.74c0-4.217 3.45-7.667 7.667-7.667h53.667c4.216 0 7.666 3.45 7.666 7.667v32.583c0 4.217-3.45 7.667-7.666 7.667z"/><path d="M12.117 61.334h69m-61.33 0V19.167c0-4.217 3.45-7.667 7.667-7.667h38.333c4.217 0 7.667 3.45 7.667 7.667v42.167"/><path stroke-linecap="round" stroke-linejoin="round" d="M25.534 17.25h3.833m5.75 0h3.834m5.75 0h3.833m4.792 16.869s-1.704-.585-5.87-.572c-4.275.014-5.833 2.076-5.833 4.16 0 2.083 2.503 3.889 5.002 4.513 2.501.625 6.676 2.417 6.678 5.233.002 2.87-2.143 5.071-6.686 5.07-4.479-.003-6.708-1.737-6.708-1.737m7.757-21.711v13.396m-1.041-.001v13.396"/></g></svg>