<svg xmlns="http://www.w3.org/2000/svg" xmlns:xlink="http://www.w3.org/1999/xlink" width="36" height="36"><defs><circle id="a" cx="18" cy="18" r="18"/></defs><g fill="none" fill-rule="evenodd"><mask id="b" fill="#fff"><use xlink:href="#a"/></mask><use fill="#00008B" xlink:href="#a"/><g mask="url(#b)"><path fill="#FFF" d="M3.485 21.305l.941 2.923 2.867-1.087-1.697 2.554 2.638 1.565-3.056.267.42 3.037-2.113-2.222-2.113 2.222.421-3.037-3.056-.267 2.638-1.565-1.697-2.554 2.868 1.087zm22.068 6.513l.358 1.112 1.092-.413-.646.972 1.006.598-1.166.1.161 1.157-.805-.847-.805.847.16-1.157-1.164-.1 1.005-.598-.647-.972 1.093.413zM22.81 15.286l.357 1.113 1.093-.416-.647.975 1.005.595-1.164.102.16 1.156-.805-.846-.805.846.16-1.156L21 17.553l1.005-.595-.647-.975 1.093.416zm6.493-7.036l.358 1.113 1.092-.413-.646.972 1.006.597-1.166.101.161 1.157-.805-.846-.805.846.16-1.157-1.164-.1 1.005-.598-.647-.972 1.093.413zm5.023 5.304l.357 1.112 1.094-.413-.647.972 1.005.597-1.165.101.16 1.159-.804-.848-.805.848.16-1.159-1.165-.1 1.006-.598-.647-.972 1.094.413zm-3.175 5.21l.283.694.746.054-.57.484.177.727-.636-.394-.636.394.179-.727-.573-.484.748-.054zM14.213-.75l-10.8 5.4v-5.4H-2.49v5.4l-10.8-5.4h-3.96v1.98l7.846 3.923h-7.845v5.906h7.846l-7.846 3.923v1.982h3.96l10.8-5.4v5.4h5.903v-5.401l10.799 5.4h3.96v-1.981l-7.847-3.923h7.848V5.153h-7.847l7.845-3.924V-.75z"/><path fill="red" d="M-1.309-.75v7.085h-15.94v3.54h15.94v7.089h3.543V9.876h15.938V6.335H2.234V-.75z"/><path fill="red" d="M15.533-.75L3.726 5.153h2.64L18.172-.75h-2.639zm-32.783 0V.572l9.169 4.58h2.639L-17.25-.75zM6.366 11.058l11.808 5.906v-1.321l-9.168-4.585h-2.64zm-11.808 0l-11.807 5.906h2.64l11.807-5.906h-2.64z"/></g></g></svg>