<svg xmlns="http://www.w3.org/2000/svg" xmlns:xlink="http://www.w3.org/1999/xlink" width="36" height="36"><defs><circle id="a" cx="18" cy="18" r="18"/></defs><g fill="none" fill-rule="evenodd"><mask id="b" fill="#fff"><use xlink:href="#a"/></mask><use fill="#FFF" xlink:href="#a"/><g mask="url(#b)"><path fill="#F91D1E" d="M-.75 35.051h8.792V.551H-.75zm28.583 0h8.792V.551h-8.792z"/><path fill="#FFF" d="M8.042 29.801h19.79V8H8.043z"/><path fill="#F91D1E" d="M17.937 10.827l-1.296 2.519c-.147.274-.41.249-.675.095l-.938-.507.7 3.87c.147.707-.325.707-.558.402l-1.638-1.91-.266.97a.316.316 0 01-.368.228l-2.07-.453.544 2.06c.117.459.207.649-.118.77l-.738.361 3.565 3.018c.14.114.213.32.162.505l-.312 1.067 3.555-.427c.11-.001.29.096.29.226l-.163 3.91h.597l-.094-3.901c-.001-.131.163-.236.272-.235l3.556.427-.312-1.067a.496.496 0 01.162-.505l3.565-3.018-.739-.36c-.325-.122-.234-.312-.117-.77l.544-2.061-2.07.453a.315.315 0 01-.368-.228l-.267-.97-1.638 1.91c-.232.305-.704.305-.558-.402l.7-3.87-.938.507c-.264.154-.527.18-.674-.095l-1.297-2.52z"/></g></g></svg>