<svg xmlns="http://www.w3.org/2000/svg" xmlns:xlink="http://www.w3.org/1999/xlink" width="36" height="36"><defs><circle id="a" cx="18" cy="18" r="18"/></defs><g fill="none" fill-rule="evenodd"><mask id="b" fill="#fff"><use xlink:href="#a"/></mask><use fill="#F50000" xlink:href="#a"/><g fill="#FD0" mask="url(#b)"><path d="M10.438 21.28l1.16-3.593L8.55 15.46l3.774-.008 1.177-3.587 1.173 3.59 3.776.009-3.05 2.224 1.157 3.594-3.059-2.214zm10.525 1.942l1.274.511.885-1.05-.093 1.37 1.271.519-1.33.334-.1 1.369-.73-1.163-1.333.329.88-1.054zm6.895-6.902l-1.352-.237-.648 1.211-.193-1.359-1.352-.242 1.233-.604-.188-1.36.955.985 1.237-.599-.643 1.214zm-2.872 6.15l.422-1.307-1.108-.81 1.372-.003.428-1.304.427 1.305 1.373.003-1.11.81.422 1.306-1.113-.805zM21.03 10.538l1.245.578.94-1.002-.165 1.363 1.243.584-1.349.264-.17 1.362-.668-1.2-1.348.26.934-1.006z"/></g></g></svg>