<svg xmlns="http://www.w3.org/2000/svg" width="48" height="48"><defs><linearGradient id="a" x1="50%" x2="50%" y1="0%" y2="100%"><stop offset="0%" stop-color="#007FFF"/><stop offset="100%" stop-color="#0054DC"/></linearGradient></defs><g fill="none" fill-rule="evenodd"><path fill="url(#a)" d="M13 45c-2.2 0-4-1.8-4-4V7c0-2.2 1.8-4 4-4h14l12 12v26c0 2.2-1.8 4-4 4H13z"/><path fill="#B3D9FF" d="M39 15h-8a4 4 0 01-4-4V3l12 12z"/><path fill="#FFF" fill-rule="nonzero" d="M16.332 34c.533 0 .96-.05 1.279-.151.426-.137.765-.328 1.015-.572.332-.322.588-.743.767-1.264.147-.427.22-.935.22-1.524 0-.67-.078-1.234-.235-1.692a3.136 3.136 0 00-.683-1.16c-.3-.315-.66-.535-1.08-.658-.312-.092-.766-.137-1.362-.137h-2.641V34h2.72zm-.196-1.206h-1.079v-4.741h.65c.589 0 .984.023 1.186.068.27.059.493.171.669.337.176.166.313.397.41.693.098.297.147.721.147 1.275 0 .553-.05.99-.147 1.31-.097.321-.224.552-.378.692-.155.14-.35.239-.584.298-.179.045-.47.068-.874.068zm7.89 1.328c1.052 0 1.892-.326 2.52-.979.629-.653.943-1.557.943-2.712 0-1.166-.317-2.076-.95-2.73-.633-.654-1.477-.981-2.532-.981-.582 0-1.097.094-1.543.283-.335.14-.643.355-.925.644-.282.29-.504.617-.666.982-.219.495-.328 1.107-.328 1.836 0 1.14.315 2.034.943 2.683.628.65 1.474.974 2.539.974zm-.004-1.235c-.576 0-1.051-.21-1.426-.628-.374-.418-.561-1.032-.561-1.843 0-.824.182-1.44.547-1.848.364-.409.844-.613 1.44-.613s1.073.202 1.433.606c.36.403.54 1.015.54 1.835 0 .83-.185 1.453-.555 1.868-.369.415-.842.623-1.418.623zm7.603 1.235c.768 0 1.402-.19 1.901-.569.5-.379.857-.96 1.072-1.74l-1.401-.445c-.12.524-.32.908-.596 1.153a1.448 1.448 0 01-.991.366c-.521 0-.944-.192-1.27-.576-.325-.385-.488-1.03-.488-1.934 0-.853.165-1.47.496-1.85.33-.381.76-.572 1.291-.572.384 0 .71.108.98.322.268.215.444.508.529.88l1.43-.343c-.162-.572-.406-1.012-.732-1.318-.547-.517-1.258-.776-2.134-.776-1.002 0-1.811.33-2.426.988-.616.66-.923 1.585-.923 2.776 0 1.127.306 2.015.918 2.664.612.65 1.393.974 2.344.974z"/></g></svg>