<svg xmlns="http://www.w3.org/2000/svg" width="48" height="48"><defs><linearGradient id="a" x1="50%" x2="50%" y1="0%" y2="100%"><stop offset="0%" stop-color="#005C9E"/><stop offset="100%" stop-color="#00335A"/></linearGradient></defs><g fill="none" fill-rule="evenodd"><path fill="url(#a)" d="M35 45H13c-2.2 0-4-1.8-4-4V7c0-2.2 1.8-4 4-4h14l12 12v26c0 2.2-1.8 4-4 4"/><path fill="#B3DFFF" d="M39 15h-8a4 4 0 01-4-4V3l12 12z"/><path fill="#FFF" fill-rule="nonzero" d="M20.167 34v-1.206h-3.999v-1.948h3.594V29.64h-3.594v-1.587h3.862v-1.211h-5.307V34h5.444zm2.231 0l1.592-2.476L25.577 34h1.743l-2.446-3.682 2.227-3.476h-1.675l-1.406 2.3-1.436-2.3h-1.69l2.217 3.423L20.665 34h1.733zm11.109 0v-1.206h-4v-1.948h3.595V29.64h-3.594v-1.587h3.862v-1.211h-5.307V34h5.444z"/></g></svg>