<svg xmlns="http://www.w3.org/2000/svg" xmlns:xlink="http://www.w3.org/1999/xlink" width="36" height="36"><defs><circle id="a" cx="18" cy="18" r="18"/></defs><g fill="none" fill-rule="evenodd"><mask id="b" fill="#fff"><use xlink:href="#a"/></mask><use fill="#FFF" xlink:href="#a"/><g mask="url(#b)"><path fill="#FFF" d="M-12.75 36h61.715V0H-12.75z"/><path fill="#00247D" d="M23.134 0v12.104L44.744 0zM-7.929 0l21.522 12.104V0zm42.237 13.017h14.657v-8.26zm0 10.693l14.657 8.166V23.71zM-6.707 36h20.3V24.623zm29.841 0h20.364L23.134 24.623zM-12.75 23.71v8.536l15.169-8.537zm0-10.693H2.419L-12.75 4.465z"/><path fill="#CF142B" d="M47.557 0l-23.25 13.017h4.267L48.965 1.603V0zM27.61 23.71l21.355 11.947v-2.39l-17.089-9.558zM-12.75 2.743L5.517 13.017h4.268L-12.75.349zM8.82 23.71l-21.57 12.082V36h3.895l21.943-12.29z"/><path fill="#CF142B" d="M15.5 0v15.155h-28.25v6.415H15.5V36h5.726V21.57h27.739v-6.415H21.226V0z"/></g></g></svg>