<svg xmlns="http://www.w3.org/2000/svg" width="27" height="24"><path fill="#B82B22" fill-rule="evenodd" stroke="#B82B22" stroke-linecap="round" stroke-linejoin="round" stroke-width="2" d="M13.268 20c-.273 0-.535-.093-.74-.261a212.605 212.605 0 00-2.173-1.759l-.003-.003c-1.927-1.544-3.59-2.877-4.748-4.19-1.293-1.469-1.896-2.861-1.896-4.382 0-1.478.54-2.841 1.516-3.839C6.214 4.556 7.572 4 9.05 4c1.104 0 2.115.329 3.004.976.45.326.856.726 1.215 1.192a5.938 5.938 0 011.215-1.192c.89-.647 1.9-.976 3.003-.976 1.477 0 2.835.556 3.825 1.566.978.998 1.517 2.361 1.517 3.839 0 1.521-.603 2.913-1.896 4.382-1.158 1.313-2.821 2.646-4.747 4.19-.658.527-1.404 1.125-2.178 1.762a1.166 1.166 0 01-.74.261z"/></svg>