<svg xmlns="http://www.w3.org/2000/svg" xmlns:xlink="http://www.w3.org/1999/xlink" width="36" height="36"><defs><circle id="a" cx="18" cy="18" r="18"/></defs><g fill="none" fill-rule="evenodd"><mask id="b" fill="#fff"><use xlink:href="#a"/></mask><use fill="#F50000" xlink:href="#a"/><g mask="url(#b)"><path fill="#FFF" d="M17.891 18.75a5.685 5.685 0 01-3.144-7.402 5.69 5.69 0 015.766-3.538c-.921.454-1.522 1.562-.762 2.706.83 1.255.366 3.376-1.25 4.135-1.261.592-2.287 2.563-.61 4.1"/><path fill="red" d="M17.38 12.82l.71-1.633-1.536.905 1.776.17-1.337-1.182zm.54 5.845c-2.13-1.285-2.232-4.179-1.152-5.782l-.138-.089c-1.039 1.48-1.144 4.608 1.213 6.017l.076-.147z"/><path fill="#FFF" d="M17.891 18.75a5.687 5.687 0 0111.215-.886c-.716-.738-1.954-.967-2.81.11-.937 1.178-3.098 1.392-4.32.088-.95-1.014-3.143-1.383-4.085.688"/><path fill="red" d="M23.373 16.432l1.774.171-1.335-1.183.386 1.741.712-1.634zM17.98 18.75c.566-2.423 3.287-3.413 5.145-2.883l.04-.158c-1.727-.529-4.736.338-5.345 3.014l.16.027z"/><path fill="#FFF" d="M17.891 18.75a5.687 5.687 0 01-9.593-5.875c.146 1.017 1.013 1.932 2.336 1.564 1.452-.403 3.326.694 3.548 2.467.173 1.381 1.73 2.966 3.71 1.844"/><path fill="red" d="M12.096 17.404l-1.337-1.18.387 1.74.71-1.635-1.535.905zm5.724 1.293c-1.881 1.63-4.665.832-5.857-.691l-.126.105c1.087 1.444 4.03 2.51 6.097.704l-.114-.118z"/><path fill="#FFF" d="M17.891 18.75a5.686 5.686 0 016.895 4.14 5.685 5.685 0 01-2.585 6.252c.48-.907.314-2.158-.972-2.638-1.412-.526-2.282-2.516-1.42-4.082.67-1.219.344-3.415-1.918-3.672"/><path fill="red" d="M21.791 23.246l.387 1.741.71-1.635-1.537.905 1.776.17zm-3.871-4.411c2.48-.211 4.262 2.07 4.33 4.001l.164-.009c-.03-1.808-1.786-4.401-4.517-4.154l.024.162z"/><path fill="#FFF" d="M17.891 18.75a5.687 5.687 0 01-8.551 7.31c1.012.175 2.149-.367 2.21-1.739.065-1.505 1.687-2.948 3.441-2.613 1.367.263 3.355-.727 2.9-2.957"/><path fill="red" d="M14.82 23.848l-1.535.905 1.775.171-1.336-1.182.387 1.74zm3-5.044c.966 2.29-.65 4.692-2.469 5.354l.06.154c1.711-.588 3.634-3.059 2.555-5.581l-.146.073z"/><path fill="red" d="M17.891 18.5a.25.25 0 110 .5.25.25 0 010-.5"/></g></g></svg>