<svg xmlns="http://www.w3.org/2000/svg" width="48" height="48"><defs><linearGradient id="a" x1="50%" x2="50%" y1="0%" y2="100%"><stop offset="0%" stop-color="#C6E300"/><stop offset="100%" stop-color="#6EB300"/></linearGradient></defs><g fill="none" fill-rule="evenodd"><path fill="url(#a)" d="M26 42H4c-2.2 0-4-1.8-4-4V4c0-2.2 1.8-4 4-4h14l12 12v26c0 2.2-1.8 4-4 4" transform="translate(9 3)"/><path fill="#F2FFAE" d="M39 15h-8a4 4 0 01-4-4V3l12 12z"/><path fill="#FFF" fill-rule="nonzero" d="M13.298 34.158v-3.13h2.542v3.13h1.298V27H15.84v2.817h-2.542V27H12v7.158h1.298zm7.925 0v-5.947h1.902V27H18.02v1.21h1.906v5.948h1.298zm3.928 0v-5.635l1.27 5.635h1.25l1.276-5.635v5.635h1.205V27h-1.946l-1.153 4.883L25.887 27h-1.942v7.158h1.206zm10.849 0v-1.206h-3.226V27.06h-1.298v7.1H36z"/></g></svg>