<svg xmlns="http://www.w3.org/2000/svg" width="36" height="36"><g stroke="#fff" stroke-width="2" fill="none" fill-rule="evenodd"><path d="M23.08 13.534l-9.546 9.546L7.7 17.247l9.547-9.546z"/><path d="M13.534 25.732h0a1.872 1.872 0 01-2.65 0L5.05 19.9a1.874 1.874 0 112.65-2.652l5.834 5.833c.733.732.733 1.92 0 2.652zm12.198-12.198h0a1.874 1.874 0 01-2.652 0l-5.833-5.833a1.875 1.875 0 112.652-2.651l5.833 5.833a1.873 1.873 0 010 2.651zm4.887 17.085h0a2.631 2.631 0 01-3.797-.079l-9.9-10.847 2.77-2.771 10.848 9.9a2.631 2.631 0 01.079 3.797z"/></g></svg>