<svg xmlns="http://www.w3.org/2000/svg" width="36" height="36"><defs><filter id="a" color-interpolation-filters="auto"><feColorMatrix in="SourceGraphic"/></filter></defs><g filter="url(#a)" fill="none" fill-rule="evenodd" stroke-linecap="round" stroke-linejoin="round"><path stroke="#B82B22" stroke-width="2" d="M18 30c-.385 0-.755-.14-1.044-.392-1.09-.953-2.142-1.848-3.07-2.638l-.004-.004c-2.72-2.317-5.07-4.316-6.704-6.286C5.35 18.477 4.5 16.389 4.5 14.108c0-2.218.761-4.263 2.141-5.76C8.04 6.834 9.957 6 12.043 6c1.558 0 2.985.493 4.242 1.463A8.685 8.685 0 0118 9.253c.506-.7 1.08-1.3 1.715-1.79C20.971 6.493 22.4 6 23.957 6c2.086 0 4.003.834 5.402 2.349 1.38 1.496 2.141 3.542 2.141 5.758 0 2.282-.851 4.37-2.677 6.573-1.636 1.97-3.984 3.97-6.704 6.285-.93.792-1.982 1.689-3.075 2.643A1.59 1.59 0 0118 30z"/></g></svg>