<svg xmlns="http://www.w3.org/2000/svg" width="24" height="24"><g fill="#999" fill-rule="evenodd"><path d="M10 11.5c-.277 0-.5.223-.5.5v6a.5.5 0 101 0v-6c0-.277-.223-.5-.5-.5m4 0c-.277 0-.5.223-.5.5v6a.5.5 0 101 0v-6c0-.277-.223-.5-.5-.5"/><path d="M18 8H6a1.001 1.001 0 010-2h12a1.001 1.001 0 010 2zm-2 13H8c-.827 0-1.5-.673-1.5-1.5V9h11v10.5c0 .827-.673 1.5-1.5 1.5zM9.5 4.5c0-.827.673-1.5 1.5-1.5h2c.827 0 1.5.673 1.5 1.5V5h-5v-.5zM20 7c0-1.103-.897-2-2-2h-2.5v-.5C15.5 3.121 14.379 2 13 2h-2a2.503 2.503 0 00-2.5 2.5V5H6c-1.103 0-2 .897-2 2 0 .929.64 1.705 1.5 1.929V19.5C5.5 20.878 6.622 22 8 22h8c1.379 0 2.5-1.122 2.5-2.5V8.929c.86-.224 1.5-1 1.5-1.929z"/></g></svg>