<svg xmlns="http://www.w3.org/2000/svg" width="24" height="24"><path d="M12 20c-.257 0-.504-.093-.696-.261a196.1 196.1 0 00-2.046-1.759l-.003-.003c-1.814-1.544-3.38-2.877-4.47-4.19C3.567 12.318 3 10.925 3 9.405c0-1.478.507-2.841 1.428-3.839A4.84 4.84 0 018.027 4c1.04 0 1.991.329 2.829.976.423.326.805.726 1.143 1.192.338-.466.72-.866 1.143-1.192A4.535 4.535 0 0115.971 4c1.39 0 2.668.556 3.6 1.566.92.998 1.428 2.361 1.428 3.839 0 1.521-.567 2.913-1.785 4.382-1.09 1.313-2.655 2.646-4.469 4.19-.62.527-1.322 1.125-2.05 1.762-.192.168-.44.261-.696.261z" fill="#B82B22" stroke="#B82B22" stroke-width="2" fill-rule="evenodd" stroke-linecap="round" stroke-linejoin="round"/></svg>