<svg xmlns="http://www.w3.org/2000/svg" width="36" height="36"><g stroke="#fff" stroke-width="2" fill="none" fill-rule="evenodd"><path stroke-linecap="round" stroke-linejoin="round" d="M27.751 9h.749c1.65 0 3 1.35 3 3v14.25h-27V12c0-1.65 1.35-3 3-3h.75"/><path d="M8.251 26.25v-18c0-1.65 1.35-3 3-3h13.5c1.65 0 3 1.35 3 3v18"/><path stroke-linecap="round" stroke-linejoin="round" d="M20.625 12.482s-.667-.23-2.297-.224c-1.672.006-2.282.812-2.282 1.628 0 .815.979 1.521 1.958 1.766.978.245 2.611.945 2.612 2.047 0 1.123-.838 1.985-2.616 1.984-1.753 0-2.625-.68-2.625-.68m3.035-8.495v5.242m-.406 0v5.242M30.75 30H5.25a3 3 0 01-3-3v-.75h31.5V27a3 3 0 01-3 3z"/></g></svg>