<svg xmlns="http://www.w3.org/2000/svg" xmlns:xlink="http://www.w3.org/1999/xlink" width="60" height="60" viewBox="0 0 36 36"><defs><circle id="a" cx="18" cy="18" r="18"/></defs><g fill="none" fill-rule="evenodd"><mask id="b" fill="#fff"><use xlink:href="#a"/></mask><use fill="#FFF" xlink:href="#a"/><g mask="url(#b)"><path fill="#FFF" d="M-5.25 31.5h46.284v-27H-5.25z"/><path fill="#000" d="M25.38 8.952l1.717 2.574-.937.625-1.715-2.576zm2.028 3.042l1.716 2.574-.935.624-1.716-2.574zm-.623-3.978l3.744 5.616-.937.624-3.743-5.617zm1.404-.936l1.716 2.574-.936.624-1.716-2.574zm2.028 3.042l1.716 2.574-.936.624-1.716-2.574zM7.595 20.808l3.744 5.616-.936.625-3.743-5.617zm-1.404.937l1.716 2.574-.936.624-1.715-2.575zm2.029 3.042l1.715 2.573-.935.625-1.716-2.574zM4.787 22.68l3.744 5.617-.936.624-3.743-5.616zm1.873-8.112l3.744-5.616.935.624-3.744 5.616zm-1.404-.936L9 8.016l.935.624-3.744 5.616zm-1.405-.936L7.596 7.08l.935.624-3.744 5.616zm20.594 13.729l1.716-2.574.936.624-1.717 2.574zm2.028-3.042l1.716-2.575.935.624-1.716 2.574zm-.624 3.977l1.716-2.573.936.624-1.716 2.573zm2.028-3.042l1.716-2.573.936.624-1.717 2.574zm-.624 3.979l1.716-2.574.936.624-1.716 2.574zm2.027-3.043l1.718-2.574.935.625-1.716 2.573z"/><path fill="#CD2E3A" d="M21.637 12.384a6.751 6.751 0 00-9.36 1.872A3.374 3.374 0 1017.892 18a3.375 3.375 0 115.615 3.745 6.75 6.75 0 00-1.871-9.361"/><path fill="#0047A0" d="M12.276 14.256A3.374 3.374 0 1017.893 18a3.374 3.374 0 115.615 3.745 6.75 6.75 0 01-11.232-7.49"/></g><circle cx="18" cy="18" r="17.5" stroke="#E3E3E3"/></g></svg>