<svg xmlns="http://www.w3.org/2000/svg" width="26" height="24"><g fill="none" fill-rule="evenodd"><path fill="#39AD36" d="M25.967 12c0 6.627-5.707 12-12.747 12S.474 18.627.474 12 6.18 0 13.22 0s12.747 5.373 12.747 12"/><path fill="#FFF" d="M18.2 10.635c.235 0 .425.18.425.401 0 .22-.19.4-.425.4h-1.186v.716H18.2c.234 0 .425.18.425.4a.414.414 0 01-.425.402h-1.612c-.234 0-.425-.18-.425-.401V9.518c0-.22.19-.4.425-.4H18.2c.235 0 .425.18.425.4 0 .221-.19.401-.425.401h-1.186v.716H18.2zm-2.608 1.918a.402.402 0 01-.291.38.44.44 0 01-.475-.14l-1.652-2.117v1.877c0 .221-.19.4-.425.4s-.426-.179-.426-.4V9.518c0-.173.118-.325.292-.38a.434.434 0 01.474.14l1.652 2.118V9.518c0-.22.19-.4.426-.4.234 0 .425.18.425.4v3.035zm-3.88 0c0 .221-.19.4-.425.4s-.426-.179-.426-.4V9.518c0-.22.191-.4.426-.4.234 0 .425.18.425.4v3.035zm-1.667.4H8.433c-.234 0-.425-.179-.425-.4V9.518c0-.22.19-.4.425-.4s.425.18.425.4v2.634h1.187c.235 0 .425.18.425.4 0 .222-.19.402-.425.402zm11.287-2.033c0-3.417-3.638-6.196-8.112-6.196-4.472 0-8.112 2.78-8.112 6.196 0 3.064 2.886 5.63 6.784 6.116.264.053.624.164.715.376.082.193.054.495.026.69l-.116.654c-.034.193-.162.755.703.412.866-.344 4.672-2.59 6.374-4.434h-.001c1.176-1.214 1.74-2.446 1.74-3.814z"/></g></svg>