<svg version="1.1" id="圖層_1" xmlns="http://www.w3.org/2000/svg" x="0" y="0" viewBox="0 0 525.2 72.1" xml:space="preserve"><style>.st0{fill-rule:evenodd;clip-rule:evenodd;fill:#fff}</style><path class="st0" d="M230.6 16.7c-.3 1 .3 2.3 0 3.3 1.7.4 3.2.1 4.3.6 2.4 1 3.7 3.5 3.7 6.3 0 2.1-.6 4.4-.4 6.8.1.7.3 1.4.3 2.1.1 2.6-1.1 5.6 0 7.8-.5 1.4-1.3 2.5-2 3.7-2.3 0-3 2.4-5.4 2-.7-.1-1.6-1-2.2-1.4-1.3-.9-3.2-2.1-2.5-4.3.8-.7 2-1 3.4-1.1 1.6-2 .7-6.1.4-9.6-.2-2.6-.1-5.3-1.2-7-.5 0-1.3-.1-1.6.1-.2 1.8-.1 3.9-.7 5.3.6.8 2 1.2 2.5 2.3.4.9.1 1.6-.1 2.8-1.7 1.1-1 3.8-2.3 5.1-2 2.2-6.7-.3-8.9 1.7-1-.4-1.4-1.3-2.3-1.8.6-3.5-3.6-7.1.1-9.2-1-1.3-1.5-2.9-2.7-3.9.1 4.3.5 9 .9 13.6.1 1.2.5 2.5.4 3.4-.1 1-1.7 3.2-2.7 3.2-.2 0-1.6-.7-1.8-.9-.2-.2-.1-.6-.4-.9-.3-.5-1-.8-1.2-1.2-1.4-2.2-.3-4.9-.1-7.8.1-1.3 0-2.8-.1-4.3s.2-3 0-4.3c-.3-1.7-2-3.1-1.4-5.4 1.4-.7 3.6-.6 4.5-1.7-.2-.9-.2-2-.5-2.9-1.6 0-2.9.4-3.9-.1-.6-.3-.8-1.1-1.2-1.6-.7-.9-1.9-1.5-2.6-2.1-.7-1.5-2.9-3.7-.2-4.7 3.2-1.1 10.8 1.3 12.7-1.2-.1-1.6-1.7-2.1-1.7-3.6 0-1.3 1.3-2.5 3.1-2.3.9.1 2 .5 3 .7 2 .3 4 .4 5.1 1.1 1.2.7.9 3.7 2.3 4.2.6.2 2.2-.2 3.4-.4 3.9-.5 8.9-1 11 1.5.5.5 1.1 1.9 1 2.7-.1.7-1.3 1.7-2.1 2.4-.6.5-1.5 1.7-2.7 1.8-.9.1-1.4-.5-2.2-.7-.6-.1-1.2 0-1.8-.1-1.1-.3-2.4-.8-3.2 0zm-10.1.5c-.5.9-1.2 2.2-.8 3.6.6.3 1.3.6 2.2.6 1.3-.8 1.1-2.5.8-4.2-.7 0-1.6-.3-2.2 0zm.2 9.2c-.9 1-.3 3 .1 4.1.3-1.1 1.6-3.6-.1-4.1zm0 9.1c-.4.4-.7.8-1 1.2.7 1.1 1.1 2.2 3.1 1.8.4-.5.7-1.1 1.1-1.6-.5-.4-.4-1.3-1-1.5-.6.1-1.5.3-2.2.1zm165.8-22.9c1.3.5 3.1.2 3.8-.6.1-1.1.4-1.8.2-2.8-.1-.6-.8-.9-.8-1.4 0-.3.4-1 .6-1.2.7-.8 2-1.6 3.3-1.9 1 1.3 3.5 1.8 3.2 4.1.5 1 2.1.4 2.9 1 .3.3 1.2 1.9 1 2.5-.4 1.7-3.4.6-5.4 1.1-.5.1-.8.8-1.4 1.1-1 .6-2.2.7-3.2.7-.1.4-.2 1.2-.1 1.4 3.9-.3 9.1-.4 12.1-1.6 1.8.6 2.7 1.9 3.9 3.4.4.5 1 .9 1.1 1.3.2 1-.4 1.5-1.1 2.1-.5.4-1.4 1.2-1.9 1.3-1.1.2-3.7-.5-5.1-.7-1.9-.2-3.6-.4-5.2-.1-.3.8.3.9.3 1.4-.1.7-1 1.2-1.7 1.9-.5.4-1.8 1.6-1.8 1.8 0 .4 1.4 1.4 1.8 1.7.6.4 1.8.7 2.3 1.2.9.9.3 2.1-.1 3.5 1.7.6 3.2 1.2 4 2.6-.6 2.5-1.3 5.3-1.9 7.8-.2.9-.3 1.9-.6 2.6-.3.6-2 2-2.8 2-.6 0-1.1-.9-1.7-1.2-.9-.5-2.5-1-4.2-1-1.4 0-1.9.4-3.3.6-.3 0-.8-.1-1.2-.1-1.3.1-3.2 1.3-4.6.9-.6-.2-1.5-1.3-1.6-2-.2-.8.3-1.7.1-2.5-.1-.4-.6-.7-.9-1.2-.5-.8-.4-2.4-.7-3.7-.2-.8-.6-1.4-.3-2.4.3-.8 1.1-1.2 1.8-2 0-.6-.7-.5-.8-.9.7-.8.5-2 1.3-2.7.7-.6 1.9-.4 2.3-1.3-.9-.1-1.7.2-2.3-.1-.5-.2-1.9-2-1.9-2.7-.1-1 1.5-2.2-.4-2.5-.9-.1-2.6.3-3.6 1.1-.7-.2-1.6-.3-2.4-.4-.8-1.5-1.9-2.8-3.2-3.7-.1-.4-.1-.9.1-1.4.3-.7 1.3-2.1 1.8-2.3.9-.4 2.5.3 3.6.4 3.1.2 6.9-1 9.4-1.2.1-1-2-1.8-3.1-1.1-2-.6-3.3-1.8-4.3-3.2.2-.4.3-.9.2-1.5 3.5.4 2-2.9 2.9-5 .3-.7 1.6-2 2.7-1.8 1.1.2 1.8 2.2 2.6 2.6.6.3 1.3.2 1.8.5 2.1.9 2.4 2.7 2.5 5.6zm-2 11.1c.2 1-.8.9-.7 1.9 1.9 1.6 4.5-.1 4.4-2.3-1.4-1.7-2.5-.1-3.7.4zm-5.4 1.2c.4-.3.9-.6.9-1.2-1.1-1.4-2.8.7-.9 1.2zm6 5.8c1.1.1 2 0 2.6-.6-.5-.1-.5-1-.3-1.4-1.5-.8-2.1 1.3-2.3 2zm3.7 2c-1.1.9-3.6.6-5.5.8-.1.6-.7.9-.6 1.7.9.4 2.7.6 3.6.4.7-.2 1.1-1.2 1.9-1.6 1-.4 1.9.2 2.5-.7-.5-.2-1.4-.2-1.9-.6zm-.6 4.8c-.5.6-.3 1.7.1 2.2 1 .1 1.3-.4 2.2-.4.7 1.8-1.5 2.5-1.7 4.1.7-.1 1.6-.3 2.2 0 2-1.2 1.2-5.4-.3-6.5-.9.1-1.8.2-2.5.6zm-8.3 1c.3.3.9.4 1.5.5.5-.4.7-.9.7-1.7-1.1-.3-2.1.3-2.2 1.2zm1.9 3.8c-.2 1.1 1.2 2.2 1.7 1-.2-.6-.7-1.6-1.7-1zM281.3 15.1c1 .7 2.2-.2 2.7-.8 1.3-1.5 2.1-4.3 3.7-5.4 1.3.6 2.8 1.5 2.8 2.8 0 1.4-1.8 1.8-2.2 3.1 1.8.9 3.3-.5 5.1-.1 1.4.3 2.9 3.2 2.6 5.1-.2 1.7-2.1 3.9-3.8 3.9-.9 0-2.3-.9-3.1-1.4-1.1-.6-2.2-1.3-3-1.5-.4-.1-3.5 0-3.8.5-1.2 1.5 1.9 2 2.6 3 .3.4.5 1.3.4 2.1-1 .5-2.4.9-3.5.7-.7-.1-1.1-.7-1.8-.7-1.1-.1-2.4.7-3.6.7-1.1 0-2-.4-2.4.7.9 1.2 3.9.4 5.3 1.2 1.4-.4 2.7.3 2.5 1.7-.4 2.9-6.8-1-6.3 2.6 2.7-.2 6.8-.3 7.8 1.6.5.9 0 2.9.7 3.4.4.3 1.1 0 1.6.1 2.3.4 4 3 3.9 5.6-.8.7-1.4 1.5-2.8 1.6-.7.3-.8 1.2-1.5 1.3-2.1.2-2.3-3.9-4.9-3.6-.4-.8-1.6-1-1.7-1.9-.1-.8 1-1.3.7-2.2-3-.3-.9 4-1.3 5.8-.1.5-1.1.9-1.3 1.6-.4.9-.2 1.6-.3 2.6-2.5.6-3.7-.8-5.2-1.8-.8-.5-1.7-.8-2.1-1.1-1.2-1-1.1-2.9-1.4-4.5.8-.4 2.6 0 3.4-.4.2-.8.3-2.2-.3-2.6-5.2-1.2-5.9 2.6-6.1 6.4-.8.6-1.5 1.8-2.7 1.8-1.6 0-2.3-2.4-3.1-3.5-.3-.4-.7-.9-.8-1.3-.4-2.6 2.5-2.6 3.9-3.8-.8-4.8 5.7-2.8 8.5-4.3.2-.4.7-.6.7-1.2-.8-.6-1.9-.7-3-.5-.5.1-1 .7-1.3.7-.8-.1-1.2-1-1.5-1.5 1.6-.8 2.9-1.9 3.5-3.5-.9-.8-3.1-.5-4.1 0-.7-.5-1.6-.8-1.7-1.6-.3-1.9 2.5-2.5 3.3-3.6-.8-1.3-3.5-.5-5.4-.3-1.9.3-3.9.8-5.2 1.3-3.9-.6-3.5-6.4-.6-8 1.3-.7 2.7-.5 4.3-.7.8-2-2-2.5-1.7-4.8.2-1.2 1.6-3 2.7-3.3 1.3-.3 3.7.6 4.5 1.1 1.9 1.2 1 5.3 1.1 7.6 1.2.5 2.3-.4 2.9-1 .9-2.9-2.8-3.6-2.4-6.4.1-.7.7-1.1 1.1-1.7.5-.7.6-1.8 1.6-1.9 1.1-.1 3.2 1.6 3.8 2.2.5.4 1.4 1.5 1.4 2.1.1 1.3-2.1 4.5-.2 5.9 1-.5 1.5-1.6 1.9-2.6.4-.9 1-2.1 1.2-3.2.3-1.9-1.1-4.5 1.2-4.8 1.7-.2 2.6 1.1 3.6 2.1.7.8 1.7 1.3 1.8 2 .4 2.2-2.2 2.8-2.5 4.7-.1.5.1 1.1-.2 1.9zm-8.8 6.6c.1 1.5 2.9 2 3 .2-.7-.4-2.1-.6-3-.2zm167.4-9.6c2.4-.7 3.3.4 4.2 1.8.4.6.8 1.4.8 2.1 0 1-1 3.2-2 3.4-.7.1-1.1-.4-1.8-.6-.4-.1-.8 0-1.1-.1-1.3-.4-2.5-2.6-3.8-2.6-1.4 0-1.8 1.9-2.2 2.7 2.2 1.1 4.6-1.4 5.8.6.2.4.5 1 .5 1.4-.1 2.1-3.6 1.8-3.5 4 .7.5 2.2 0 3.2.3 1.2 1.5.8 3.2-.4 4.4-1.3 1.3-4.3 1.7-3 4.2 1.8-.3 2.2-3.3 4.6-2 .2 1.2.1 2.6.4 3.6-.2.9-3.3 1.6-1.8 2.8.5.4 1.5.2 1.8 0 .8-.4 1.6-1.9 1.7-3.1.1-.5-.1-1-.1-1.5 0-.4.2-.8.2-1.1 0-1.2-.9-2.1-.7-3.4.1-.6.7-1.1.8-1.7.3-2.6.3-5.3.3-7.7 1.6-1.3 4.3.1 5.2 1.3 1.9-.2 2.3 1.1 3.2 1.8.4-.8.9-1.9.5-2.6-.7-1.3-3 0-4.5-.5-.4-.7-.7-1.6-.9-2.7-.1-.9-.5-2.5-.2-3.1.3-.7 1.3-.6 2.2-.8.7-.2 1.9-.7 3-1.2.9-.4 2.4-1.1 3.2-1 .6.1.9.8 1.5 1.4 1.5 1.5 3.6 2.7 4.5 4.6-.7 2.1-1.6 4.2-2.3 6.4-.7 2.2-1.4 4.4-2.3 6.4 1 1.8-.2 4.2-.5 5.6 3.1.2 4.8 1.7 7 2.7.7 1.6 2.3 4.3 1.2 6.5-.4.9-1.6 2.1-2.8 2.1-2.3.1-2.7-2.8-4-4.1-.7-.6-1.8-1.4-2.9-2-1-.7-2.5-2-3.6-1.6-1 .4-1.7 3.3-2.2 4.5-.9 1.8-1.7 2.9-3 3.7-2.6-.8-3.4-3.2-5-5-.9.7-1.8 2.4-3.4 2.6-1.4.2-3.1-.3-4.6-.2-1.5.1-2.9.9-3.8 1.5-.9.6-2.5 2-3.4 2-3 0-.7-4.9-1.7-6.8.5-1.7 4.4-.8 4.3-2.7 0-.9-.9-1-1.3-1.8.5-1.9 1-5.5 3.3-5.1.7.1 1.6 1.4 2 2 .9-.4.5-1.5 0-2-.4-.3-.9 0-1.5-.3-1-.5-2.3-2.7-1.9-3.8.3-1.2 3.5-1.4 4.1-2.5-.2-1.1-1.7-.9-2.2-1.7-1.3 1.7-3 4.6-5.2 6.1-.9.6-2.7 1.6-3.9 1.4-1.7-.2-1.8-2.3-2.5-3.6.2-1.6.2-3 1.2-3.8.7-.6 1.5-.9 2-1.3 2.9-2.2 4.9-6.2 6.3-10 .6-1.5.7-3.2 1.4-4.9.5-1.3 2.6-1.9 4.4-1.8.9.7 1.6 1.5 2.3 2.3 1 .5 2 .4 2.4 1.3 0 .9-.9 2.7.5 3.2zm7.9 13.3c.2.9.8 1.4 1.3 2 1.7-.2 2.7-1.5 2.5-3.1-1.4 0-3.3 0-3.8 1.1zm-.1 5.5c-.2 1.9-1.5 4.2-.3 6 2.8-1.1 3.9-3.9 4.8-6.8-1.4-.9-3.7-.1-4.5.8zm-334-14.6c2 .1 3.4-1.1 4.8-1 2.5.1 3.1 3 4.8 4-.7 1.9-1.5 3.7-3 4.8-2.2.4-4.8 0-7.3.3-1 1.4-1.2 3.6-1.3 6 0 .7-.2 1.5-.1 2 .3.9 2.4 1.4 3.9 1.3 1.4-.1 3.2-.4 5-.6.8-.1 1.7-.2 2.5-.3.9-.1 1.9-.3 2.4-.3 1.8.2 2.6 2.7 3.4 4 .3.5.9.9 1 1.4.5 2.1-1.3 3.6-2.5 4.6-.6.4-1.3 1.2-2 1.2s-1.7-.6-2.5-.7c-2-.4-4-.2-6.1-.5-.9-.1-1.7-.5-2.5-.6-5.1-.9-10.2.8-14.5 1.4-1.3.2-2.7.3-4 .7-1.3.3-2.9.4-3.9.9-.8.4-1.2 2.1-2.2 2.2-1.3.2-1.8-1-2.4-1.7-.1-2 .2-3.8 0-5.7-.1-1-.6-2.1-.3-3 .5-1.4 4.1-2.2 5.9-2.4 2.7-.4 5.4-.3 8-.1 1.4-5.6 1.9-13.8-.4-18.9-.3-.7-.8-1.5-1.3-2.3-.5-.8-1.2-1.7-1.1-2.5.1-1.3 2.1-1.9 3.2-2.5 1.2-.6 2.8-1.6 4-1.7 1.7-.1 1.8 1.3 2.6 2 2.2 1.1 4.8 2.4 5.3 5 0 1-.4 2.4.6 3zm212.2 10.3c-1.1-1.4 1.1-1.9 2.6-3.3.5-.5.8-1.5 2-1.2.3.1.8.7.9.8.6.8.7 2-.5 2.6-.5.2-1.1.1-1.6.2-1.1.2-2.2 1.1-3.4.9zm6.7 2c-.4.8-1.2 1.3-1.9 1.9-.6 0-.9-.2-1.3-.5-1.2 1-4 1.9-3.9-.7 2-.7 4.7-1.1 6.4-1.8.4.1.5.7.7 1.1z"/><path class="st0" d="M319.7 7.2c1.2 1.1 2.1 2.9 3.1 4.5.6 1 1.3 1.5 1.1 3-.2 1.4-1.3 1.8-1.7 3.2 1 .3 2-.4 2.7-.8.7-.4 1.8-1 2-1.9.3-1.3-.9-3.7-.5-5.2.2-.6 1.4-1.7 1.9-1.7.6 0 1.3 1.3 1.7 1.6 1 .9 5 2.8 5.4 4.4.3 1.2-.7 2.5.1 3.3.9-.8 2.1-1.4 2.5-2.8.1-.4 0-.9.1-1.3.2-1 1.2-2.4 2-3 .8-.6 2-.5 2.5-1.3 1.3.2 2.2.7 3.6.7.4 1 1.2 1.4 1.3 2.4.1.8-.9 1.6-.1 2.4.3.3 1.2.3 1.5.6 1.9 1.3-.7 3.5-.3 5.3.2.9 2 2.7 3.6 2.7.9 1.2 2.6 1.6 2.8 3.4-.7.7-2 .9-2.8 1.5-2.2-.3-5.2-.3-6.9.6-.7.3-1.5.9-1.2 1.9 1.8.4 3.8-.4 5.4.2 1.2.4 2.7 1.9 2.3 3.5-.2.7-1 .9-1.3 1.7 0 2.2 1.4 4.1.9 6.6-.3 1.4-2.4 3.7-3.9 3.4-.7-.1-1.1-1.1-1.9-1.5-1.8-.8-4.4-.5-6.6-.1-.7-.4-1.2-1-1.7-1.5-.4-.4-1.3-1-1.5-1.6-.4-1.3.4-3 .2-4.4-.2-1-.8-1.5-1.8-2-2 1-.4 4.8-2.3 5.9-1.1.7-3.3.3-4.8.7-.7.2-1.1.6-1.6.9-2.6-1.4-2.4-5.4-4.1-7.5-.9 2.7.6 6.2-.3 8.6-.5 1.4-2.1 1.5-3.2 2.4-4.1-1.4-2.7-7.5-2.4-12.5.1-2.2.8-4.4.4-6.2-2.3.2-3.2 2.1-5 3.3-.5.3-1.2.7-1.5.7-1.4.1-2.8-2.2-2.5-3.5.1-.6 1.2-1.5 1.8-2.2 4-5 7.3-12.2 9.7-18.3.5-.1.8-.2 1.3-.1zm22.9 15.5c1.8.5 3.4-1.1 2.5-2.4-1.7-.1-2 1.2-2.5 2.4zm-7.8.1c.6-.1 1.3.6 2 .5 2.3-.3.1-2.8-1-2.8-.8 0-2.1.6-3.4.8-1.3.2-2.7.3-4 .3-.4 0-1.1-.2-1.4-.1-.4.1-.7.6-1 .7-.4.2-.9.3-1.4.5-2.1.6-4.3.4-4.7-1.4-.5.6-1.9 1.1-1.7 2.3.2 1.2 2.4.9 2.9 2.1.4.8.1 1.9.1 2.9.1 1.6.2 3.2.3 4.9.8 0 1.4-1 2.3-1 .3 0 .8.3 1.1.3 2.8.2 6-1.4 8.8-.4.9-.7 2.9-1.9 2.7-3.2-.1-1-1.6-1-2.2-1.8-.3-1.1-1.2-4.3.6-4.6zm6.2 13.1c1.5-.2 2.6.6 3.9.3.5-.5.1-1.3 0-2-1.8-.5-5.3-.7-3.9 1.7zm-11.5.8c.1-.8-.7-1.8-1.5-1.8-1.1 0-2.7 2.5-1.9 3.4 1.8.2 3.3-.4 3.4-1.6zm11.3 4.9c2 .5 4.4-.1 4.6-2-1.3-1.7-5.8-1-4.6 2zm152.5-25.8c-4.9-.4-6.4 3-8.7 4.8-1.3 0-1.9-1.1-2.3-2.1-.7-1.5-1.7-3.2-.7-4.9 1.1-2 4.2-3.3 5.2-6.1.6-1.8.5-3.2 2.6-3.3 1.6 0 1.7 1 2.7 1.8.9.7 2 .8 2.3 1.6.3.6.3 1.9.3 3.2 0 2.3.4 4.1-1.4 5zm18-9.5c1.7 1.4 3.8 2.2 4.3 5 .4 2.6 0 3.5-1.9 4.6-.9.5-1.7 1.2-2.5 1.5-2.4.8-6.5.2-8.3-1.1-.6-.4-1.1-1.2-1.7-1.8-.9-.9-1.6-1.4-1.4-3 .3-2.3 3.6-4.9 6.2-5.2 1.8-.3 3.5 0 5.3 0z"/><path class="st0" d="M499 21.3c2.3-.4 5.4-.1 7.9-.2 1.4-.1 2.7-.5 4-.7 1.4-.3 2.8-.4 4-.7 2.6-.6 5.2-1.5 8.1-1.2 1.1 1.6-.3 3.6-.2 5.6.1 1.1.9 1.9.8 2.9-.1 1.2-1.5 1.8-2.2 2.6-2.5.1-5.4-1-7.3.2-.1 3.9-.3 7.5-.9 11.1-.3 1.5-.5 3.4-1.2 4.8-.6 1.2-1.9 2.9-3.1 3.1-1 .2-3.2 0-3.9-.4-.8-.4-1.2-2-2.4-2.5-.6-.3-1.4-.1-1.9-.3-.6-.2-1.9-2-2-2.7-.1-.9.5-1.4 1-1.9 3.7 1.4 6.1-1.2 6.4-4.8.2-2.4.3-5.3-.6-6.2-1.9-.6-4.1.4-5.8-.1-.6-.2-1.3-1.5-1.6-2-.5-.8-1-1.5-1.7-2-1.8 1.1-4.1 1.6-5.3 3.3-.2 4.8 1.1 10.9-.7 14.5-.4.9-1.3 2.3-2.6 2.3-1.2 0-2.6-1.7-3.2-2.8-1.2-2-.7-5-.3-7.6-1.2.5-3.1 1.4-4.4 2.2-.5.4-1.1 1.1-1.7 1.2-1 .1-2.5-1.4-2.8-2.1-.6-1.6.8-4.3 1.6-5.2.5-.5 1.4-1 2.1-1.6 4.4-3.5 9.6-8.1 12.3-13 3.8-2.1 5.5 2.5 7.6 4.2zm-345.2-1.5c-5.1-.4-6.5-4.1-9.3-6.6.9-2 2.5-3.5 4.3-4.7 3.6-.3 4.6 1.2 5.9 3.4 1.4 2.5 1.9 6.3-.9 7.9zm26.8-2.9c-1.4 0-1.8 1.6-3 1.7-.9.1-1.8-1-2.7-.2-1-.8-3-1-4.7-.8-2.1.2-3.8 1.6-4.6 2.7 4.4-.4 9.5-.2 13.4-1.1.3.5.6 1.3 1.1 1.8.3.3.7.3 1 .6 1.7 1.3 2.5 3.7 1.2 5.7 1.1 1 3.4 0 5.2.3 1.3.2 2.8 1.3 2.7 2.2 0 .4-.8 1.1-1.1 1.5-1 1.5-1.6 3.2-3.3 4-.8-.4-2.3-.6-3.4-.4-.2 1.3-.9 1.9-.8 3 .2 1.8 2.5 2.3 2.3 4.1-.4 2.9-6 .5-5.9 4.1-1.3.7-1.7 2.5-3.4 2.5-2 .1-2.6-2-3.9-3-2.2.2-4.2-.3-6 .3-.7.2-1.5 1-2.2 1-.7 0-1.9-.6-2.3-.9-.8-.6-2-2.6-2.2-3.6-.4-1.9 1.8-4.3.6-5.9-.6-.8-2.6-.7-2.9-1.7.4-1.6-1-3-.1-4.4 1.6-.6 4.2-.3 5.2-1.5.4-1.8 1.7-4.4.5-6.2.6-1 1.3-1.8 2.6-2-.7-.2-1.5-.4-1.8-1-.3-3.4 2.3-5 1-8.1-.3-.7-.8-1.3-1.3-1.9-.7-.7-1.3-1.3-1.3-1.9 0-1.2 2.4-2.8 3.7-3 2.4-.3 4.3 1.2 5.4 2.3 1 1.1 1.5 2.5 4 2.2 1.6-.2 3.4-1.3 5.3-.7 1 .3 3.3 2.9 3.4 3.9 0 1.8-1.9 2.5-1.7 4.4zm-7.7 9.8c.1.5.3 1 .6 1.3 1.5.5 2-1 1.8-2-1-.3-1.6.5-2.4.7zm-6.7.3c0 .6.1 1.2.6 1.4.7.2 1.3-.9 1-1.8-.8 0-1.1.3-1.6.4zm7.9 8.7c-1-1.9-2.4.6-2.7 1.8.3.5 1.1.6 1.8.8.8-.4.5-1.8.9-2.6zm-9.5 2.6c.5 0 1.1-.3 1.6-.1.5-1 .6-2.4-.7-2.6-.2 1-1.1 1.4-.9 2.7zm-13.6-10c-2.3.4-3.7 1.4-6 .8-.5-.1-1.6-.8-2.4-1.4-1.9-1.3-2.2-2.5-1.5-5.2.2-.9.6-2.1 1.6-2.2 2.1-.3 3 1.3 5.2 1.8.9.2 2.6 0 3.1.3.6.2 1.8 2.2 1.8 2.9.1 1.4-1.4 1.7-1.8 3zm2.7 1.6c.2 4.7.6 10.8-1.4 14.5-.5 1-1.6 2.8-2.8 2.8-1.1 0-2-1.4-2.4-1.8-.7-.6-1.7-1.1-2.3-1.8-1.1-1.4-1.6-4.6-.6-6.5.6-1.3 2.5-2.7 3.9-4 1.6-1.4 3.3-2.5 4.8-3.2.1 0 .4-.2.8 0zm357.2 27.3c3 .1 5.6-.3 7.4.7 3.5 2 3.6 9.3-.6 11.1-1.9.8-3.9.3-6.9.5v-12c0-.1 0-.2.1-.3zm2.8 2.4c-.2 2.4 0 5.1-.1 7.6 6.1 1.4 6.1-8.9.1-7.6zm-278.8-2.5c1.5-.2 3.1.2 4.1.9 2.7 2.1 3 8.4 0 10.8-1.5 1.2-5 1.4-6.8 0-2.4-1.9-2.7-6.8-1.3-9.2.8-1.5 1.9-2.3 4-2.5zm.3 10.4c4.2.5 4.1-9.1-.2-8.1-3.1.6-2.9 7.7.2 8.1zm-101.9-9.7v2.8c-1-.3-1.7-1.2-3.1-1.4-1.2-.1-2.9.1-2.7 1.4.1 1.3 4.5 1.6 5.6 2.8.4.5.6 1.1.7 1.9.4 4.5-5.2 5.6-9.2 3.6v-3c1.1.5 2.1 1.5 3.6 1.7 1.2.1 2.6-.1 2.7-1.1.1-1.4-1.5-1.4-2.5-1.7-2.2-.6-3.8-1.6-3.7-3.9 0-3.7 4.9-4.9 8.6-3.1zm47.8.2v2.9c-1.5-.8-3.1-2.1-5.2-1.4-3.5 1.3-3 9.1 2.2 8.1.2-.7 0-1.7.1-2.5h-2.1v-2.3h5V69c-2.4 1.1-6.1 1.3-8-.2-2.6-2-2.9-7.3-.7-9.9 1.8-2.2 5.8-2.5 8.7-.9zm47.6 0v3c-1.2-.4-1.5-1.5-2.7-1.7-5.2-.9-4.8 9.9.5 8 .9-.3 1.3-1.2 2.2-1.5v2.8c-1.4 1.2-4.1 1.7-6.2.7-3.7-1.7-4-8.5-1.2-11.1 1.6-1.4 5.4-1.7 7.4-.2zm72.2 0v3c-1.2-.4-1.5-1.5-2.7-1.7-5.2-.9-4.8 9.9.5 8 .9-.3 1.3-1.2 2.2-1.5v2.8c-1.2.8-2.2 1.3-4.1 1.2-5.4-.4-6.7-8.4-3.2-11.6 1.6-1.4 5.3-1.7 7.3-.2zm40.9 4.7c.6.9 1.4 1.6 2.2 2.3v-2.7h2.7c.1 1.9-.2 3.4-1.1 4.4.8 1 1.9 1.7 2.6 2.8-1.8 0-4 .3-4.3-1-1.5 1.4-4.8 1.9-6.6.3-1.7-1.6-1.4-5.1.8-6-1.3-1-2.1-3.6-.5-4.9 1.8-1.5 6.3-1.1 6.6 1.5.2 1.5-.7 2.8-2.4 3.3zm-1-1c.7-.5 1.1-2.2.3-2.9-2.4-.7-1.7 2.7-.3 2.9zm1.8 5.3c-1.1-1-2-2.1-3.1-3.1-1.7 2.1 1.2 5.2 3.1 3.1zm20-9.2v2.8c-1.2-.6-2.9-1.9-4.9-1.3-.6.2-1.1.6-1 1.3.1 1.4 4.7 1.4 5.8 3.1.3.4.5 1 .5 1.6.4 4.5-5.2 5.6-9.2 3.6v-3c1.1.5 2.1 1.5 3.6 1.7 1.2.1 2.6-.1 2.7-1.1.1-1.4-1.4-1.4-2.5-1.7-2.2-.6-3.9-1.7-3.7-4.2.2-3.5 5.1-4.5 8.7-2.8zm54.6.2v2.9c-1.5-.8-3.1-2.1-5.2-1.4-3.5 1.3-3 9.1 2.2 8.1.2-.7 0-1.7.1-2.5h-2.1v-2.3h5V69c-2.6 1.3-6.5 1.2-8.3-.5-3.7-3.4-1.8-11.1 3.5-11.5 1.9-.2 3.2.3 4.8 1zm10.6-.2v2.8c-1-.3-1.7-1.2-3.1-1.4-1.2-.1-2.9.1-2.7 1.4.1 1.3 4.5 1.6 5.6 2.8.4.5.6 1.1.7 1.9.4 4.5-5.2 5.6-9.2 3.6v-3c1.1.5 2.1 1.5 3.6 1.7 1.2.1 2.6-.1 2.7-1.1.2-1.8-4.1-1.7-5.4-3-.6-.6-.9-1.6-.9-2.6 0-3.9 5-4.8 8.7-3.1zm-331.6-.6v2.3H93c-.2 3.1 0 6.7-.1 10h-2.7v-10h-3.3v-2.3h9.3zm4.4 0v4.5h4c.2-1.3 0-3 .1-4.5h2.7v12.3h-2.7V64h-4c-.2 1.6 0 3.7-.1 5.5h-2.7V57.2h2.7zm17.3 0v2.3h-5c-.2.5 0 1.5-.1 2.1h4.6v2.3h-4.6V67c1.5.2 3.4 0 5.1.1v2.3h-7.8V57.1c2.6.1 5.2.1 7.8.1zm20.3 0v4.5h4c.2-1.3 0-3 .1-4.5h2.7v12.3h-2.7V64h-4c-.2 1.6 0 3.7-.1 5.5h-2.7V57.2h2.7zm15.6 0c1.3 4.1 2.6 8.2 4 12.2-.7.2-1.9 0-2.8.1-.2-.9-.5-1.6-.7-2.5h-3.9c-.4.7-.5 1.7-.8 2.5h-2.7c1.4-4 2.5-8.3 4-12.3h2.9zm-3 7.6h2.6c-.5-1.4-.7-3.1-1.4-4.3-.3 1.5-.8 2.8-1.2 4.3zm11.6-7.6c1.3 2.3 2.8 4.6 4 7 .2-2.1 0-4.7.1-7h2.4v12.3h-2.5c-1.6-2.8-3.2-5.5-4.8-8.4-.2 2.6 0 5.6-.1 8.4h-2.4V57.2h3.3zm23.7 0v4.5h4c.2-1.3 0-3 .1-4.5h2.7v12.3h-2.7V64h-4c-.2 1.6 0 3.7-.1 5.5h-2.7V57.2h2.7zm15.6 0c1.3 4.1 2.6 8.2 3.9 12.2-.7.2-1.9 0-2.8.1-.2-.9-.5-1.6-.7-2.5h-3.9c-.4.7-.5 1.7-.8 2.5h-2.7c1.4-4 2.5-8.3 4-12.3h3zm-2.9 7.6h2.6c-.5-1.4-.7-3.1-1.4-4.3-.4 1.5-.8 2.8-1.2 4.3zm14-7.6v2.2h-1.7v7.7c.4.2 1.2 0 1.7.1v2.2h-6.2v-2.2h1.7v-7.7c-.4-.2-1.2 0-1.7-.1v-2.2h6.2zm33.6 0c.7 2.1 1.6 4 2.3 6.2 1-1.9 1.6-4.2 2.5-6.2h3.1v12.3h-2.7v-8.1c-.8 1.6-1.3 3.5-2 5.2h-1.8c-.7-1.7-1.3-3.4-1.9-5.2-.2 2.5 0 5.4-.1 8.1h-2.6V57.2h3.2zm13.9 0c.7 2.1 1.6 4 2.3 6.2 1-1.9 1.6-4.2 2.5-6.2h3.1v12.3h-2.7v-8.1c-.8 1.6-1.3 3.5-2 5.2h-1.8c-.7-1.7-1.3-3.4-1.9-5.2-.2 2.5 0 5.4-.1 8.1h-2.6V57.2h3.2zm18.4 0v2.3h-5c-.2.5 0 1.5-.1 2.1h4.7v2.3h-4.7V67c1.5.2 3.4 0 5.1.1v2.3h-7.8V57.1c2.6.1 5.2.1 7.8.1zm9 7.1c1.1 1.8 2.4 3.4 3.4 5.2h-3.3c-.4-.6-.9-1.3-1.5-2.2-.6-.9-.9-2.5-2.5-2.2-.2 1.3 0 3-.1 4.5H281V57.3c4.3-.1 8.5-.5 8.9 2.9.1 1.8-.7 3.2-2.2 4.1zm-4-4.8v3.4c4.2 1.1 4.4-4.7 0-3.4zm25-2.3v2.2H307v7.7c.4.2 1.2 0 1.7.1v2.2h-6.2v-2.2h1.7v-7.7c-.4-.2-1.2 0-1.7-.1v-2.2h6.2zm8.2 0c1.3 4.1 2.6 8.2 3.9 12.2-.7.2-1.9 0-2.8.1-.2-.9-.5-1.6-.7-2.5h-3.9c-.4.7-.5 1.7-.8 2.5h-2.7c1.4-4 2.5-8.3 4-12.3h3zm-2.9 7.6h2.6c-.5-1.5-.7-3.1-1.4-4.4-.3 1.6-.8 2.9-1.2 4.4zm11.1-7.6v9.9c1.5.2 3.3 0 5 .1v2.3h-7.7c.1-4.1-.1-8.4.1-12.3h2.6zm45.6 0c1.3 4.1 2.6 8.2 4 12.2-.7.2-1.9 0-2.8.1-.2-.9-.5-1.6-.7-2.5h-3.9c-.4.7-.5 1.7-.8 2.5h-2.7c1.4-4 2.5-8.3 4-12.3h2.9zm-2.9 7.6h2.6c-.5-1.5-.7-3.1-1.4-4.4-.3 1.6-.8 2.9-1.2 4.4zm7.2-7.5c.7-.2 1.9 0 2.8-.1.8 3 1.8 5.7 2.5 8.8 1.1-2.7 1.8-5.9 2.7-8.8h2.7c-1.3 4.1-2.6 8.1-3.8 12.3h-3.1c-1.2-4.1-2.5-8.2-3.8-12.2zm18.1-.1v2.2h-1.7v7.7c.4.2 1.2 0 1.7.1v2.2h-6.2v-2.2h1.7v-7.7c-.4-.2-1.2 0-1.7-.1v-2.2h6.2zm5.5 0c1.3 2.4 2.8 4.6 4 7 .2-2.1 0-4.7.1-7h2.4v12.3h-2.5c-1.6-2.8-3.2-5.5-4.8-8.4-.2 2.6 0 5.6-.1 8.4h-2.4V57.2h3.3zm43.2 5.5c2.1.4 2.8 3.4 1.6 5.2-1.4 2.2-4.9 1.5-8.5 1.6.1-4.1-.1-8.4.1-12.3 2.2.2 4.9-.4 6.7.3 2.2.9 2.1 4.3.1 5.2zm-4.1-.6c1.2 0 2.3.1 2.7-.6.6-1.8-.8-2.3-2.7-2.1v2.7zm3.3 2.6c-.5-.7-2-.4-3.3-.5v3.1c2.5.6 4.6-.9 3.3-2.6zm11.2-7.5c1.3 4.1 2.6 8.2 3.9 12.2-.7.2-1.9 0-2.8.1-.2-.9-.5-1.6-.7-2.5h-3.9c-.4.7-.5 1.7-.8 2.5h-2.7c1.4-4 2.5-8.3 4-12.3h3zm-3 7.6h2.6c-.5-1.4-.7-3.1-1.4-4.3-.3 1.5-.8 2.8-1.2 4.3zm11.6-7.6c1.3 2.4 2.8 4.6 4 7 .2-2.1 0-4.7.1-7h2.4v12.3h-2.5c-1.6-2.8-3.2-5.5-4.8-8.4-.2 2.6 0 5.6-.1 8.4h-2.4V57.2h3.3zm9.2 0h2.7v5.5c1.3-1.5 2.6-3.8 3.9-5.5h3c-1.3 2-2.8 3.8-4.2 5.7 1.4 2.2 3 4.3 4.4 6.6h-3.3c-1.1-1.6-2.1-3.3-3.2-4.8-1.1.8-.4 3.2-.6 4.8H470V57.2zm24.2 0v9.9c1.4.2 3.3 0 5 .1v2.3h-7.7c.1-4.1-.1-8.4.1-12.3h2.6zm15.1 0v2.3h-3.2c-.2 3.1 0 6.7-.1 10h-2.7v-10H500v-2.3h9.3zm-25.1 9.1c-.9 2.1-1.8 4.1-2.5 6.2h-1.6c.5-2.1 1-4.2 1.4-6.2h2.7zm38.2.8h2.8v2.4h-2.8v-2.4z"/><path d="M1.1 36.6c0 .9 0 1.8.1 2.7h9.9v.3c1.1 9.5 7.4 17.4 16 21V42.8h-5.4v6.3l-.6-.7c-1.9-2.5-3.2-5.5-3.7-8.7l-.1-.4h12.9v26l-.4-.1C18.9 62.4 10.4 53.7 8 42.8H1.6c2.9 16.1 16.9 28.5 34 29.4V33.9H17.4l.1-.4c.5-3.2 1.8-6.2 3.7-8.8l.6-.8v6.3h5.4V12.7c-8.6 3.6-14.9 11.5-16 21v.3H7.5v-.3C8.8 21.2 17.9 11.1 29.9 8.1l.4-.1v22.4h5.4V1C16.4 1.9 1.1 17.5 1.1 36.6zm67.7 0l4-5.4c.3-.4.4-.8.3-1.2C70 14.1 56.2 1.8 39.2 1v71.2c17-.8 30.7-13.1 33.9-29 .1-.4 0-.8-.3-1.2l-4-5.4zm-1.9 6C64.6 53.6 56 62.3 45 65.1l-.4.1v-26h9.5l2.5 3.4-.1.1c-.7 2-1.7 3.9-2.9 5.6l-.6.7v-6.3h-5.4v17.7c7.2-3 12.8-9 15-16.4.1-.4.1-.9-.2-1.3l-2.6-3.5h4.7l2.4 3.2v.2zm-2.3-8.8l-.1.1h-8.6l-2.8-3.8V24l.6.8c1.3 1.7 2.3 3.5 2.9 5.5h6.5c-2-8-7.8-14.5-15.4-17.7v17.5c0 .3.1.6.3.9l2.1 2.8h-5.6V8l.5.1c11 2.8 19.6 11.6 21.9 22.6v.1l-2.3 3z" fill="#fff"/></svg>