<svg xmlns="http://www.w3.org/2000/svg" xmlns:xlink="http://www.w3.org/1999/xlink" width="36" height="36"><defs><circle id="a" cx="18" cy="18" r="18"/></defs><g fill="none" fill-rule="evenodd"><mask id="b" fill="#fff"><use xlink:href="#a"/></mask><use fill="#00247D" xlink:href="#a"/><g mask="url(#b)"><path fill="#FFF" d="M18.014-.75L6.259 5.127H3.63L15.386-.75h-1.314L3.322 4.625V-.75H2.145v7.053H18.03V5.127h-7.828l7.828-3.913V-.75zM2.145 9.831V17h1.177v-5.49L14.305 17h3.725v-.108L6.26 11.005h2.627l9.143 4.571v-.656l-7.828-3.915h7.828V9.83z"/><path fill="#CF142B" d="M15.386-.75L3.63 5.127h2.63L18.013-.75zM6.26 11.004l11.77 5.887v-1.314l-9.143-4.573z"/><path fill="#CF142B" d="M-1.382-.75v7.053H-17.25v3.528h15.868v7.168h3.527V9.83H18.03V6.303H2.145V-.75z"/><path fill="#FFF" d="M25.89 11.15h1.565l.485-1.49.482 1.49h1.567l-1.267.92.484 1.488-1.266-.92-1.268.92.485-1.489z"/><path fill="#CF142B" d="M26.584 11.377h1.034l.322-.985.319.985h1.034l-.837.608.32.985-.836-.609-.838.609.32-.985z"/><path fill="#FFF" d="M19.63 17.448h1.565l.484-1.49.483 1.49h1.566l-1.266.919.483 1.49-1.266-.92-1.266.92.483-1.49z"/><path fill="#CF142B" d="M20.324 17.675h1.034l.321-.984.32.984h1.035l-.837.608.32.986-.838-.61-.837.61.319-.986z"/><path fill="#FFF" d="M31.483 15.885h1.393l.43-1.323.431 1.323h1.393l-1.127.82.431 1.324-1.128-.82-1.127.82.43-1.325z"/><path fill="#CF142B" d="M32.1 16.087h.922l.284-.876.285.876h.92l-.744.542.284.875-.745-.54-.744.54.284-.875z"/><path fill="#FFF" d="M25.664 27.334h1.738l.538-1.655.537 1.655h1.739l-1.407 1.023.537 1.656-1.406-1.024-1.406 1.024.537-1.656z"/><path fill="#CF142B" d="M26.435 27.587h1.15l.354-1.096.356 1.096h1.148l-.93.676.357 1.096-.93-.678-.93.678.356-1.096z"/></g></g></svg>