<svg xmlns="http://www.w3.org/2000/svg" width="48" height="48"><defs><linearGradient id="a" x1="50%" x2="50%" y1="0%" y2="100%"><stop offset="0%" stop-color="#E41E24"/><stop offset="100%" stop-color="#9E1D21"/></linearGradient></defs><g fill="none" fill-rule="evenodd"><path fill="url(#a)" d="M35 45H13c-2.2 0-4-1.8-4-4V7c0-2.2 1.8-4 4-4h14l12 12v26c0 2.2-1.8 4-4 4"/><path fill="#F7BBBD" d="M39 15h-8a4 4 0 01-4-4V3l12 12z"/><path fill="#FFF" fill-rule="nonzero" d="M16.173 34v-2.7h.942c.655 0 1.154-.034 1.5-.103.253-.055.503-.168.749-.34.246-.17.448-.405.608-.705.16-.3.239-.669.239-1.108 0-.57-.138-1.034-.415-1.394a1.873 1.873 0 00-1.03-.7c-.267-.072-.84-.108-1.72-.108h-2.318V34h1.445zm.79-3.916h-.79v-2.031h.698c.52 0 .868.016 1.04.049a.997.997 0 01.581.317c.153.17.23.384.23.644a.962.962 0 01-.164.557.949.949 0 01-.452.352c-.192.075-.572.112-1.142.112zM24.114 34c.533 0 .96-.05 1.279-.151.426-.137.765-.328 1.015-.572.332-.322.588-.743.767-1.264.146-.427.22-.935.22-1.524 0-.67-.079-1.234-.235-1.692a3.136 3.136 0 00-.683-1.16c-.3-.315-.66-.535-1.08-.658-.312-.092-.766-.137-1.362-.137h-2.641V34h2.72zm-.196-1.206h-1.08v-4.741h.65c.59 0 .985.023 1.187.068.27.059.493.171.669.337.176.166.312.397.41.693.098.297.146.721.146 1.275 0 .553-.048.99-.146 1.31-.098.321-.224.552-.378.692-.155.14-.35.239-.584.298-.179.045-.47.068-.874.068zM30.074 34v-3.042h2.988v-1.21h-2.988v-1.695h3.462v-1.211H28.63V34h1.445z"/></g></svg>