<svg xmlns="http://www.w3.org/2000/svg" xmlns:xlink="http://www.w3.org/1999/xlink" width="36" height="36"><defs><circle id="a" cx="18" cy="18" r="18"/></defs><g fill="none" fill-rule="evenodd"><mask id="b" fill="#fff"><use xlink:href="#a"/></mask><use fill="#FFF" xlink:href="#a"/><g mask="url(#b)"><path fill="#E8303D" d="M0 18h36V0H0z"/><g fill="#FFF"><path d="M8.557 10.41a6.308 6.308 0 016.051-6.299 6.629 6.629 0 00-2.205-.38 6.68 6.68 0 000 13.36 6.68 6.68 0 002.205-.381 6.309 6.309 0 01-6.05-6.3"/><path d="M13.23 10.57l-.906-.696-.909.697.349-1.123-.91-.691 1.123.003.345-1.124.346 1.124 1.122-.003-.908.691zm7.12 0l-.907-.696-.908.697.35-1.123-.91-.691 1.122.003.345-1.124.346 1.124 1.122-.003-.91.691zm-3.556-2.641l-.906-.697-.91.697.35-1.123-.91-.691 1.122.001.346-1.123.346 1.123 1.122-.003-.91.693zM14.563 14.8l-.908-.697-.907.696.349-1.122-.91-.692 1.123.003.345-1.124.344 1.124 1.124-.003-.91.692zm4.454 0l-.906-.697-.907.696.348-1.122-.91-.692 1.124.003.345-1.124.344 1.124 1.122-.003-.908.692z"/></g></g><circle cx="18" cy="18" r="17.5" stroke="#E3E3E3"/></g></svg>