<svg xmlns="http://www.w3.org/2000/svg" xmlns:xlink="http://www.w3.org/1999/xlink" width="36" height="36"><defs><circle id="a" cx="18" cy="18" r="18"/></defs><g fill="none" fill-rule="evenodd"><mask id="b" fill="#fff"><use xlink:href="#a"/></mask><use fill="#039" xlink:href="#a"/><g fill="#FC0" mask="url(#b)"><path d="M17.891 3.418l-.467 1.438h-1.513l1.224.89-.468 1.44 1.224-.89 1.226.89-.468-1.44 1.225-.89h-1.515zm.468 26.438l-.467-1.439-.468 1.44h-1.513l1.224.89-.468 1.439 1.225-.89 1.225.89-.468-1.44 1.225-.89zM5.392 18.797l1.224.89-.467-1.44 1.225-.89H5.86l-.467-1.44-.469 1.44H3.41l1.225.89-.468 1.44zm6.25-13.706l-.468 1.441H9.66l1.224.888-.466 1.44 1.224-.888 1.224.888-.468-1.44 1.227-.888H12.11zM7.067 9.667l-.468 1.439H5.085l1.224.89-.467 1.44 1.225-.89 1.224.89-.467-1.44 1.224-.89H7.534zm.468 13.941l-.468-1.44-.468 1.44H5.085l1.224.89-.467 1.438 1.225-.89 1.224.89-.467-1.439 1.224-.89zm4.575 4.575l-.467-1.44-.47 1.44H9.66l1.224.889-.468 1.44 1.227-.89 1.224.89-.468-1.44 1.226-.889zm20.264-10.826H30.86l-.467-1.44-.469 1.44h-1.512l1.224.89-.468 1.439 1.225-.89 1.224.89-.468-1.44zM24.142 5.091l-.469 1.441h-1.512l1.224.888-.468 1.44 1.225-.888 1.224.888-.467-1.44 1.225-.888H24.61zm3.818 6.906l-.468 1.438 1.225-.888 1.226.888-.469-1.438 1.224-.89h-1.513l-.468-1.44-.468 1.44h-1.513zm1.225 11.611l-.468-1.44-.468 1.44h-1.513l1.225.89-.469 1.438 1.225-.89 1.226.89-.469-1.439 1.225-.89zm-4.575 4.575l-.468-1.44-.469 1.44h-1.512l1.224.889-.468 1.44 1.225-.89 1.224.89-.466-1.44 1.224-.889z"/></g></g></svg>