<svg xmlns="http://www.w3.org/2000/svg" xmlns:xlink="http://www.w3.org/1999/xlink" width="36" height="36"><defs><circle id="a" cx="18" cy="18" r="18"/></defs><g fill="none" fill-rule="evenodd"><mask id="b" fill="#fff"><use xlink:href="#a"/></mask><use fill="#D8D8D8" xlink:href="#a"/><g mask="url(#b)"><path fill="#B22234" d="M-9.75 36h61.715v-2.77H-9.75z"/><path fill="#FFF" d="M-9.75 33.23h61.715v-2.769H-9.75z"/><path fill="#B22234" d="M-9.75 30.462h61.715v-2.77H-9.75z"/><path fill="#FFF" d="M-9.75 27.693h61.715v-2.77H-9.75z"/><path fill="#B22234" d="M-9.75 24.924h61.715v-2.77H-9.75z"/><path fill="#FFF" d="M-9.75 22.154h61.715v-2.769H-9.75z"/><path fill="#B22234" d="M-9.75 19.385h61.715v-2.769H-9.75z"/><path fill="#FFF" d="M-9.75 16.615h61.715v-2.77H-9.75z"/><path fill="#B22234" d="M-9.75 13.846h61.715v-2.77H-9.75z"/><path fill="#FFF" d="M-9.75 11.076h61.715V8.307H-9.75z"/><path fill="#B22234" d="M-9.75 8.307h61.715V5.538H-9.75z"/><path fill="#FFF" d="M-9.75 5.539h61.715v-2.77H-9.75z"/><path fill="#B22234" d="M-9.75 2.768h61.715V0H-9.75z"/><path fill="#3C3B6E" d="M-9.75 19.385h28.176V0H-9.75z"/><path fill="#FFF" d="M-.42 3.841l-.237.733h-.77l.621.452-.237.733.623-.452.623.452-.237-.733.622-.452H-.18zm0 3.236l-.237.732h-.77l.621.453-.237.732.623-.452.623.452-.237-.732.622-.453H-.18zm0 3.236l-.237.732h-.77l.621.453-.237.732.623-.452.623.452-.237-.732.622-.453H-.18zm.24 3.967l-.24-.732-.237.733h-.77l.621.453-.237.732.623-.452.623.452-.237-.732.622-.453zM1.862 2.136l-.238.734H.855l.623.45-.239.734.623-.453.624.453-.238-.733.623-.451H2.1zm0 3.236l-.238.733H.855l.623.452-.239.733.623-.453.624.453-.238-.733.623-.452H2.1zm0 3.235l-.238.734H.855l.623.451-.239.734.623-.454.624.454-.238-.734.623-.451H2.1zm0 3.237l-.238.733H.855l.623.452-.239.733.623-.453.624.453-.238-.733.623-.452H2.1zm.24 3.968l-.24-.732-.238.732H.855l.623.454-.239.731.623-.451.624.451-.238-.731.623-.454zM4.117 3.841l-.24.733H3.11l.623.452-.238.733.623-.452.623.452-.24-.733.623-.452h-.768zm0 3.236l-.24.732H3.11l.623.453-.238.732.623-.452.623.452-.24-.732.623-.453h-.768zm0 3.236l-.24.732H3.11l.623.453-.238.732.623-.452.623.452-.24-.732.623-.453h-.768zm.238 3.967l-.238-.732-.24.733H3.11l.623.453-.238.732.623-.452.623.452-.24-.732.624-.453zM6.4 2.136l-.238.734h-.77l.622.45-.237.734.622-.453.623.453-.237-.733.622-.451h-.77zm0 3.236l-.238.733h-.77l.622.452-.237.733.622-.453.623.453-.237-.733.622-.452h-.77zm0 3.235l-.238.734h-.77l.622.451-.237.734.622-.454.623.454-.237-.734.622-.451h-.77zm0 3.237l-.238.733h-.77l.622.452-.237.733.622-.453.623.453-.237-.733.622-.452h-.77zm.237 3.968l-.238-.732-.237.732h-.77l.622.454-.237.731.622-.451.623.451-.237-.731.622-.454zM8.652 3.841l-.237.733h-.77l.622.452-.238.733.623-.452.623.452-.238-.733.624-.452H8.89zm0 3.236l-.237.732h-.77l.622.453-.238.732.623-.452.623.452-.238-.732.624-.453H8.89zm0 3.236l-.237.732h-.77l.622.453-.238.732.623-.452.623.452-.238-.732.624-.453H8.89zm.238 3.967l-.238-.732-.237.733h-.77l.622.453-.238.732.623-.452.623.452-.238-.732.624-.453zm2.044-12.144l-.237.734h-.77l.622.45-.237.734.622-.453.623.453-.237-.733.622-.451h-.769zm0 3.236l-.237.733h-.77l.622.452-.237.733.622-.453.623.453-.237-.733.622-.452h-.769zm0 3.235l-.237.734h-.77l.622.451-.237.734.622-.454.623.454-.237-.734.622-.451h-.769zm0 3.237l-.237.733h-.77l.622.452-.237.733.622-.453.623.453-.237-.733.622-.452h-.769zm.239 3.968l-.239-.732-.237.732h-.77l.622.454-.237.731.622-.451.623.451-.237-.731.622-.454zm2.015-11.971l-.238.733h-.77l.624.452-.24.733.624-.452.623.452-.238-.733.624-.452h-.77zm0 3.236l-.238.732h-.77l.624.453-.24.732.624-.452.623.452-.238-.732.624-.453h-.77zm0 3.236l-.238.732h-.77l.624.453-.24.732.624-.452.623.452-.238-.732.624-.453h-.77zm.239 3.967l-.239-.732-.238.733h-.77l.624.453-.24.732.624-.452.623.452-.238-.732.624-.453zm1.42-10.226l.623-.453.624.453-.239-.733.624-.452h-.77l-.239-.733-.237.733h-.77l.623.452zm.623 1.318l-.237.733h-.77l.623.452-.24.733.624-.453.625.453-.24-.733.623-.452h-.769zm0 3.235l-.237.734h-.77l.623.451-.24.734.624-.454.625.454-.24-.734.623-.451h-.769zm0 3.237l-.237.733h-.77l.623.452-.24.733.624-.453.625.453-.24-.733.623-.452h-.769zm.24 3.968l-.24-.732-.237.732h-.77l.623.454-.24.731.624-.451.625.451-.24-.731.623-.454z"/></g></g></svg>