<svg xmlns="http://www.w3.org/2000/svg" width="48" height="48"><defs><linearGradient id="a" x1="50%" x2="50%" y1="0%" y2="100%"><stop offset="0%" stop-color="#00A660"/><stop offset="100%" stop-color="#005D32"/></linearGradient></defs><g fill="none" fill-rule="evenodd"><path fill="url(#a)" d="M35 45H13c-2.2 0-4-1.8-4-4V7c0-2.2 1.8-4 4-4h14l12 12v26c0 2.2-1.8 4-4 4"/><path fill="#9AF3CE" d="M39 15h-8a4 4 0 01-4-4V3l12 12z"/><path fill="#FFF" fill-rule="nonzero" d="M16.01 34l1.591-2.476L19.188 34h1.743l-2.446-3.682 2.226-3.476h-1.674l-1.407 2.3-1.435-2.3h-1.69l2.217 3.423L14.276 34h1.733zm10.741 0v-1.206h-3.593V26.9h-1.446V34h5.04zm3.619.127c.621 0 1.14-.087 1.557-.261.417-.174.74-.44.967-.799.228-.358.342-.742.342-1.152 0-.452-.095-.832-.286-1.14a2.014 2.014 0 00-.79-.728c-.338-.177-.858-.349-1.56-.515-.704-.166-1.147-.325-1.329-.478a.551.551 0 01-.215-.435c0-.185.077-.334.23-.444.237-.173.566-.259.986-.259.407 0 .712.08.916.242.203.16.336.425.397.793l1.446-.063c-.023-.658-.261-1.184-.716-1.577-.454-.394-1.13-.591-2.028-.591-.55 0-1.02.083-1.41.249a1.942 1.942 0 00-.893.725c-.206.317-.31.658-.31 1.023 0 .566.22 1.046.66 1.44.312.28.856.516 1.63.708.603.15.988.254 1.158.313.247.088.42.191.52.31a.654.654 0 01.149.432c0 .264-.118.494-.354.69-.236.198-.587.296-1.053.296-.44 0-.788-.11-1.047-.332-.259-.221-.43-.568-.515-1.04l-1.406.137c.094.8.384 1.41.869 1.829.485.418 1.18.627 2.085.627z"/></g></svg>