<svg xmlns="http://www.w3.org/2000/svg" width="32" height="32"><defs><linearGradient id="a" x1="50%" x2="50%" y1="0%" y2="100%"><stop offset="0%" stop-color="#FB0"/><stop offset="100%" stop-color="#FF8A00"/></linearGradient></defs><g fill="none" fill-rule="evenodd"><path fill="url(#a)" d="M23.333 30H8.667A2.675 2.675 0 016 27.333V4.667C6 3.2 7.2 2 8.667 2H18l8 8v17.333C26 28.8 24.8 30 23.333 30"/><path fill="#FFEBB3" d="M26 10h-5.333A2.667 2.667 0 0118 7.333V2l8 8z"/><path fill="#FFF" fill-rule="nonzero" d="M14.763 22.667v-.804h-2.715l2.614-3.22v-.748H11.17v.807h2.224l-2.507 3.096v.869h3.877zm1.543 0v-4.772h-.964v4.772h.964zm1.881 0v-1.8h.629c.436 0 .77-.023 1-.069.168-.037.335-.112.499-.226a1.3 1.3 0 00.405-.47c.106-.2.16-.446.16-.74 0-.38-.093-.689-.277-.929a1.256 1.256 0 00-.687-.467c-.178-.048-.56-.071-1.146-.071h-1.546v4.772h.963zm.528-2.611h-.527v-1.354h.465c.347 0 .578.01.693.032.157.029.286.1.388.212a.617.617 0 01.153.43.638.638 0 01-.41.605c-.128.05-.382.075-.762.075z"/></g></svg>